MFEKglifIconFont.ufo
<glyph name="knife" format="2">
  <advance width="700"/>
  <unicode hex="F000"/>
  <outline>
    <contour>
      <point x="417.5" y="624" type="line" smooth="yes"/>
      <point x="420.167" y="628"/>
      <point x="423.833" y="630"/>
      <point x="428.5" y="630" type="curve" smooth="yes"/>
      <point x="429.5" y="630" type="line" smooth="yes"/>
      <point x="433.5" y="630"/>
      <point x="437.167" y="628.333"/>
      <point x="440.5" y="625" type="curve" smooth="yes"/>
      <point x="443.833" y="621.667"/>
      <point x="445.5" y="618"/>
      <point x="445.5" y="614" type="curve" smooth="yes"/>
      <point x="445.5" y="248" type="line" smooth="yes"/>
      <point x="445.5" y="243.3333"/>
      <point x="443.833" y="239.6667"/>
      <point x="440.5" y="237" type="curve" smooth="yes"/>
      <point x="429.5" y="225" type="line"/>
      <point x="429.5" y="223" type="line"/>
      <point x="456.5" y="196" type="line" smooth="yes"/>
      <point x="459.833" y="192.66667"/>
      <point x="461.5" y="188.6667"/>
      <point x="461.5" y="184" type="curve" smooth="yes"/>
      <point x="461.5" y="153" type="line"/>
      <point x="465.5" y="153"/>
      <point x="469.167" y="151.3333"/>
      <point x="472.5" y="148" type="curve" smooth="yes"/>
      <point x="475.833" y="144.6667"/>
      <point x="477.5" y="141"/>
      <point x="477.5" y="137" type="curve" smooth="yes"/>
      <point x="477.5" y="41" type="line" smooth="yes"/>
      <point x="477.5" y="40.332993"/>
      <point x="477.167" y="39.332993"/>
      <point x="476.5" y="38" type="curve" smooth="yes"/>
      <point x="476.5" y="38"/>
      <point x="476.5" y="38"/>
      <point x="476.5" y="37" type="curve" smooth="yes"/>
      <point x="476.5" y="36.332993"/>
      <point x="476.333" y="35.832993"/>
      <point x="476" y="35.5" type="curve" smooth="yes"/>
      <point x="475.667" y="35.167007"/>
      <point x="475.333" y="34.667007"/>
      <point x="475" y="34" type="curve" smooth="yes"/>
      <point x="474.5" y="33"/>
      <point x="474.5" y="33"/>
      <point x="474.5" y="33" type="curve" smooth="yes"/>
      <point x="471.167" y="27.667007"/>
      <point x="466.833" y="25"/>
      <point x="461.5" y="25" type="curve" smooth="yes"/>
      <point x="453.5" y="25" type="line"/>
      <point x="453.5" y="-22" type="line" smooth="yes"/>
      <point x="453.5" y="-26.667007"/>
      <point x="451.833" y="-30.5"/>
      <point x="448.5" y="-33.5" type="curve" smooth="yes"/>
      <point x="445.167" y="-36.5"/>
      <point x="441.5" y="-38"/>
      <point x="437.5" y="-38" type="curve" smooth="yes"/>
      <point x="254.5" y="-38" type="line" smooth="yes"/>
      <point x="249.833" y="-38"/>
      <point x="246" y="-36.5"/>
      <point x="243" y="-33.5" type="curve" smooth="yes"/>
      <point x="240" y="-30.5"/>
      <point x="238.5" y="-26.667007"/>
      <point x="238.5" y="-22" type="curve" smooth="yes"/>
      <point x="238.5" y="25" type="line"/>
      <point x="233.833" y="25"/>
      <point x="230" y="26.667007"/>
      <point x="227" y="30" type="curve" smooth="yes"/>
      <point x="224" y="33.332993"/>
      <point x="222.5" y="37"/>
      <point x="222.5" y="41" type="curve" smooth="yes"/>
      <point x="222.5" y="137" type="line" smooth="yes"/>
      <point x="222.5" y="138"/>
      <point x="222.5" y="138"/>
      <point x="222.5" y="139" type="curve" smooth="yes"/>
      <point x="222.5" y="139.6667"/>
      <point x="222.667" y="140.3333"/>
      <point x="223" y="141" type="curve" smooth="yes"/>
      <point x="223.333" y="141.6667"/>
      <point x="223.5" y="142.1667"/>
      <point x="223.5" y="142.5" type="curve" smooth="yes"/>
      <point x="223.5" y="142.8333"/>
      <point x="223.667" y="143.3333"/>
      <point x="224" y="144" type="curve" smooth="yes"/>
      <point x="224.333" y="144.6667"/>
      <point x="224.833" y="145"/>
      <point x="225.5" y="145" type="curve" smooth="yes"/>
      <point x="228.167" y="150.3333"/>
      <point x="232.5" y="153"/>
      <point x="238.5" y="153" type="curve"/>
      <point x="238.5" y="184" type="line" smooth="yes"/>
      <point x="238.5" y="188.6667"/>
      <point x="240.167" y="192.66667"/>
      <point x="243.5" y="196" type="curve" smooth="yes"/>
      <point x="269.5" y="222" type="line"/>
      <point x="247.5" y="234" type="line" smooth="yes"/>
      <point x="241.5" y="236.6667"/>
      <point x="238.5" y="241.3333"/>
      <point x="238.5" y="248" type="curve" smooth="yes"/>
      <point x="238.5" y="407" type="line" smooth="yes"/>
      <point x="238.5" y="411"/>
      <point x="239.833" y="414.333"/>
      <point x="242.5" y="417" type="curve" smooth="yes"/>
    </contour>
    <contour>
      <point x="413.5" y="570" type="line"/>
      <point x="270.5" y="401" type="line"/>
      <point x="270.5" y="371" type="line"/>
      <point x="413.5" y="540" type="line"/>
    </contour>
    <contour>
      <point x="413.5" y="491" type="line"/>
      <point x="270.5" y="322" type="line"/>
      <point x="270.5" y="258" type="line"/>
      <point x="293.5" y="246" type="line" smooth="yes"/>
      <point x="299.5" y="243.3333"/>
      <point x="302.5" y="238.6667"/>
      <point x="302.5" y="232" type="curve"/>
      <point x="397.5" y="232" type="line"/>
      <point x="397.5" y="236.6667"/>
      <point x="399.167" y="240.3333"/>
      <point x="402.5" y="243" type="curve" smooth="yes"/>
      <point x="413.5" y="255" type="line"/>
    </contour>
    <contour>
      <point x="292.5" y="200" type="line"/>
      <point x="270.5" y="178" type="line"/>
      <point x="270.5" y="153" type="line"/>
      <point x="317.5" y="153" type="line"/>
      <point x="317.5" y="200" type="line"/>
    </contour>
    <contour>
      <point x="349.5" y="200" type="line"/>
      <point x="349.5" y="153" type="line"/>
      <point x="429.5" y="153" type="line"/>
      <point x="429.5" y="178" type="line"/>
      <point x="406.5" y="200" type="line"/>
    </contour>
    <contour>
      <point x="254.5" y="121" type="line"/>
      <point x="254.5" y="57" type="line"/>
      <point x="286.5" y="57" type="line"/>
      <point x="286.5" y="121" type="line"/>
    </contour>
    <contour>
      <point x="317.5" y="121" type="line"/>
      <point x="317.5" y="57" type="line"/>
      <point x="381.5" y="57" type="line"/>
      <point x="381.5" y="121" type="line"/>
    </contour>
    <contour>
      <point x="413.5" y="121" type="line"/>
      <point x="413.5" y="57" type="line"/>
      <point x="445.5" y="57" type="line"/>
      <point x="445.5" y="121" type="line"/>
      <point x="444.5" y="121" type="line"/>
    </contour>
    <contour>
      <point x="270.5" y="25" type="line"/>
      <point x="270.5" y="-7" type="line"/>
      <point x="421.5" y="-7" type="line"/>
      <point x="421.5" y="25" type="line"/>
    </contour>
  </outline>
</glyph>
<glyph name="measure" format="2">
  <advance width="700" height="700"/>
  <unicode hex="F001"/>
  <outline>
    <contour>
      <point x="366" y="429" type="curve" smooth="yes"/>
      <point x="513" y="429" type="line" smooth="yes"/>
      <point x="517.667" y="429"/>
      <point x="521.5" y="427.5"/>
      <point x="524.5" y="424.5" type="curve" smooth="yes"/>
      <point x="527.5" y="421.5"/>
      <point x="529" y="417.667"/>
      <point x="529" y="413" type="curve" smooth="yes"/>
      <point x="529" y="-222" type="line" smooth="yes"/>
      <point x="529" y="-226"/>
      <point x="527.5" y="-229.667"/>
      <point x="524.5" y="-233" type="curve" smooth="yes"/>
      <point x="521.5" y="-236.333"/>
      <point x="517.667" y="-238"/>
      <point x="513" y="-238" type="curve" smooth="yes"/>
      <point x="187" y="-238" type="line" smooth="yes"/>
      <point x="183" y="-238"/>
      <point x="179.333" y="-236.333"/>
      <point x="176" y="-233" type="curve" smooth="yes"/>
      <point x="172.667" y="-229.667"/>
      <point x="171" y="-226"/>
      <point x="171" y="-222" type="curve" smooth="yes"/>
      <point x="171" y="-91" type="line" smooth="yes"/>
      <point x="171" y="-87"/>
      <point x="172.667" y="-83.3333"/>
      <point x="176" y="-80" type="curve" smooth="yes"/>
      <point x="179.333" y="-76.6667"/>
      <point x="183" y="-75"/>
      <point x="187" y="-75" type="curve" smooth="yes"/>
      <point x="349" y="-75" type="line"/>
      <point x="349" y="413" type="line" smooth="yes"/>
      <point x="349" y="417.667"/>
      <point x="350.667" y="421.5"/>
      <point x="354" y="424.5" type="curve" smooth="yes"/>
      <point x="357.333" y="427.5"/>
      <point x="361.333" y="429"/>
    </contour>
    <contour>
      <point x="382" y="397" type="line"/>
      <point x="382" y="348" type="line"/>
      <point x="382" y="348"/>
      <point x="382" y="348"/>
      <point x="383" y="348" type="curve" smooth="yes"/>
      <point x="416" y="348" type="line" smooth="yes"/>
      <point x="420.667" y="348"/>
      <point x="424.5" y="346.5"/>
      <point x="427.5" y="343.5" type="curve" smooth="yes"/>
      <point x="430.5" y="340.5"/>
      <point x="432" y="336.667"/>
      <point x="432" y="332" type="curve" smooth="yes"/>
      <point x="432" y="327.333"/>
      <point x="430.5" y="323.333"/>
      <point x="427.5" y="320" type="curve" smooth="yes"/>
      <point x="424.5" y="316.667"/>
      <point x="420.667" y="315"/>
      <point x="416" y="315" type="curve" smooth="yes"/>
      <point x="383" y="315" type="line" smooth="yes"/>
      <point x="382.333" y="315"/>
      <point x="382" y="315.333"/>
      <point x="382" y="316" type="curve"/>
      <point x="382" y="250" type="line"/>
      <point x="382" y="250"/>
      <point x="382" y="250"/>
      <point x="383" y="250" type="curve" smooth="yes"/>
      <point x="416" y="250" type="line" smooth="yes"/>
      <point x="420.667" y="250"/>
      <point x="424.5" y="248.5"/>
      <point x="427.5" y="245.5" type="curve" smooth="yes"/>
      <point x="430.5" y="242.5"/>
      <point x="432" y="238.667"/>
      <point x="432" y="234" type="curve" smooth="yes"/>
      <point x="432" y="229.333"/>
      <point x="430.5" y="225.5"/>
      <point x="427.5" y="222.5" type="curve" smooth="yes"/>
      <point x="424.5" y="219.5"/>
      <point x="420.667" y="218"/>
      <point x="416" y="218" type="curve" smooth="yes"/>
      <point x="383" y="218" type="line" smooth="yes"/>
      <point x="382" y="218"/>
      <point x="382" y="218"/>
      <point x="382" y="218" type="curve"/>
      <point x="382" y="153" type="line"/>
      <point x="382" y="153"/>
      <point x="382" y="153"/>
      <point x="383" y="153" type="curve" smooth="yes"/>
      <point x="416" y="153" type="line" smooth="yes"/>
      <point x="420.667" y="153"/>
      <point x="424.5" y="151.333"/>
      <point x="427.5" y="148" type="curve" smooth="yes"/>
      <point x="430.5" y="144.667"/>
      <point x="432" y="140.833"/>
      <point x="432" y="136.5" type="curve" smooth="yes"/>
      <point x="432" y="132.167"/>
      <point x="430.5" y="128.333"/>
      <point x="427.5" y="125" type="curve" smooth="yes"/>
      <point x="424.5" y="121.667"/>
      <point x="420.667" y="120"/>
      <point x="416" y="120" type="curve" smooth="yes"/>
      <point x="383" y="120" type="line" smooth="yes"/>
      <point x="382" y="120"/>
      <point x="382" y="120"/>
      <point x="382" y="120" type="curve"/>
      <point x="382" y="55" type="line"/>
      <point x="382" y="55"/>
      <point x="382" y="55"/>
      <point x="383" y="55" type="curve" smooth="yes"/>
      <point x="416" y="55" type="line" smooth="yes"/>
      <point x="420.667" y="55"/>
      <point x="424.5" y="53.3333"/>
      <point x="427.5" y="50" type="curve" smooth="yes"/>
      <point x="430.5" y="46.6667"/>
      <point x="432" y="42.8333"/>
      <point x="432" y="38.5" type="curve" smooth="yes"/>
      <point x="432" y="34.1667"/>
      <point x="430.5" y="30.3333"/>
      <point x="427.5" y="27" type="curve" smooth="yes"/>
      <point x="424.5" y="23.6667"/>
      <point x="420.667" y="22"/>
      <point x="416" y="22" type="curve" smooth="yes"/>
      <point x="383" y="22" type="line" smooth="yes"/>
      <point x="382" y="22"/>
      <point x="382" y="22"/>
      <point x="382" y="22" type="curve"/>
      <point x="382" y="-43" type="line"/>
      <point x="382" y="-43"/>
      <point x="382" y="-43"/>
      <point x="383" y="-43" type="curve" smooth="yes"/>
      <point x="416" y="-43" type="line" smooth="yes"/>
      <point x="420.667" y="-43"/>
      <point x="424.5" y="-44.5"/>
      <point x="427.5" y="-47.5" type="curve" smooth="yes"/>
      <point x="430.5" y="-50.5"/>
      <point x="432" y="-54.3333"/>
      <point x="432" y="-59" type="curve" smooth="yes"/>
      <point x="432" y="-63.6667"/>
      <point x="430.5" y="-67.5"/>
      <point x="427.5" y="-70.5" type="curve" smooth="yes"/>
      <point x="424.5" y="-73.5"/>
      <point x="420.667" y="-75"/>
      <point x="416" y="-75" type="curve" smooth="yes"/>
      <point x="383" y="-75" type="line" smooth="yes"/>
      <point x="382" y="-75"/>
      <point x="382" y="-75"/>
      <point x="382" y="-75" type="curve"/>
      <point x="382" y="-91" type="line" smooth="yes"/>
      <point x="382" y="-95.6667"/>
      <point x="380.333" y="-99.6667"/>
      <point x="377" y="-103" type="curve" smooth="yes"/>
      <point x="373.667" y="-106.333"/>
      <point x="370" y="-108"/>
      <point x="366" y="-108" type="curve" smooth="yes"/>
      <point x="301" y="-108" type="line"/>
      <point x="301" y="-141" type="line" smooth="yes"/>
      <point x="301" y="-145.667"/>
      <point x="299.5" y="-149.5"/>
      <point x="296.5" y="-152.5" type="curve" smooth="yes"/>
      <point x="293.5" y="-155.5"/>
      <point x="289.667" y="-157"/>
      <point x="285" y="-157" type="curve" smooth="yes"/>
      <point x="280.333" y="-157"/>
      <point x="276.5" y="-155.5"/>
      <point x="273.5" y="-152.5" type="curve" smooth="yes"/>
      <point x="270.5" y="-149.5"/>
      <point x="269" y="-145.667"/>
      <point x="269" y="-141" type="curve" smooth="yes"/>
      <point x="269" y="-108" type="line"/>
      <point x="204" y="-108" type="line"/>
      <point x="204" y="-205" type="line"/>
      <point x="497" y="-205" type="line"/>
      <point x="497" y="397" type="line"/>
    </contour>
  </outline>
</glyph>
<glyph name="pan" format="2">
  <advance width="700"/>
  <unicode hex="F002"/>
  <outline>
    <contour>
      <point x="338.571" y="627" type="curve" smooth="yes"/>
      <point x="343.238" y="628.333"/>
      <point x="348.571" y="629"/>
      <point x="354.571" y="629" type="curve" smooth="yes"/>
      <point x="358.571" y="629" type="line" smooth="yes"/>
      <point x="366.571" y="629"/>
      <point x="372.905" y="628.333"/>
      <point x="377.571" y="627" type="curve" smooth="yes"/>
      <point x="386.905" y="624.333"/>
      <point x="394.238" y="618.5"/>
      <point x="399.571" y="609.5" type="curve" smooth="yes"/>
      <point x="404.905" y="600.5"/>
      <point x="408.571" y="588"/>
      <point x="410.571" y="572" type="curve"/>
      <point x="420.571" y="578"/>
      <point x="429.905" y="581"/>
      <point x="438.571" y="581" type="curve" smooth="yes"/>
      <point x="445.905" y="581"/>
      <point x="453.405" y="578.5"/>
      <point x="461.071" y="573.5" type="curve" smooth="yes"/>
      <point x="468.738" y="568.5"/>
      <point x="474.905" y="561.333"/>
      <point x="479.571" y="552" type="curve" smooth="yes"/>
      <point x="485.571" y="540"/>
      <point x="489.905" y="521"/>
      <point x="492.571" y="495" type="curve"/>
      <point x="499.238" y="497.667"/>
      <point x="505.905" y="499"/>
      <point x="512.571" y="499" type="curve" smooth="yes"/>
      <point x="530.571" y="499"/>
      <point x="543.905" y="492.333"/>
      <point x="552.571" y="479" type="curve" smooth="yes"/>
      <point x="558.571" y="469"/>
      <point x="561.571" y="454"/>
      <point x="561.571" y="434" type="curve" smooth="yes"/>
      <point x="561.571" y="214" type="line" smooth="yes"/>
      <point x="561.571" y="212"/>
      <point x="561.571" y="212"/>
      <point x="561.571" y="210" type="curve" smooth="yes"/>
      <point x="529.571" y="90" type="line"/>
      <point x="529.571" y="-22" type="line" smooth="yes"/>
      <point x="529.571" y="-26"/>
      <point x="527.905" y="-29.667007"/>
      <point x="524.571" y="-33" type="curve" smooth="yes"/>
      <point x="521.238" y="-36.332993"/>
      <point x="517.238" y="-38"/>
      <point x="512.571" y="-38" type="curve" smooth="yes"/>
      <point x="260.571" y="-38" type="line" smooth="yes"/>
      <point x="255.905" y="-38"/>
      <point x="252.071" y="-36.332993"/>
      <point x="249.071" y="-33" type="curve" smooth="yes"/>
      <point x="246.071" y="-29.667007"/>
      <point x="244.571" y="-26"/>
      <point x="244.571" y="-22" type="curve" smooth="yes"/>
      <point x="244.571" y="87" type="line"/>
      <point x="158.571" y="196" type="line" smooth="yes"/>
      <point x="156.571" y="198.66667"/>
      <point x="155.238" y="201.66667"/>
      <point x="154.571" y="205" type="curve" smooth="yes"/>
      <point x="138.571" y="400" type="line" smooth="yes"/>
      <point x="137.905" y="405.333"/>
      <point x="139.571" y="409.667"/>
      <point x="143.571" y="413" type="curve" smooth="yes"/>
      <point x="153.571" y="423"/>
      <point x="165.405" y="428.833"/>
      <point x="179.071" y="430.5" type="curve" smooth="yes"/>
      <point x="192.738" y="432.167"/>
      <point x="204.571" y="430"/>
      <point x="214.571" y="424" type="curve" smooth="yes"/>
      <point x="215.238" y="424"/>
      <point x="216.238" y="423.5"/>
      <point x="217.571" y="422.5" type="curve" smooth="yes"/>
      <point x="218.905" y="421.5"/>
      <point x="219.571" y="420.667"/>
      <point x="219.571" y="420" type="curve"/>
      <point x="219.571" y="434" type="line"/>
      <point x="219.571" y="434"/>
      <point x="219.571" y="434"/>
      <point x="219.571" y="435" type="curve" smooth="yes"/>
      <point x="219.571" y="499" type="line" smooth="yes"/>
      <point x="219.571" y="531.667"/>
      <point x="227.238" y="554.667"/>
      <point x="242.571" y="568" type="curve" smooth="yes"/>
      <point x="251.905" y="576.667"/>
      <point x="263.238" y="581"/>
      <point x="276.571" y="581" type="curve" smooth="yes"/>
      <point x="284.571" y="581"/>
      <point x="293.905" y="578.333"/>
      <point x="304.571" y="573" type="curve"/>
      <point x="307.238" y="588.333"/>
      <point x="311.238" y="600.5"/>
      <point x="316.571" y="609.5" type="curve" smooth="yes"/>
      <point x="321.905" y="618.5"/>
      <point x="329.238" y="624.333"/>
    </contour>
    <contour>
      <point x="367.571" y="596.5" type="curve" smooth="yes"/>
      <point x="366.238" y="596.833"/>
      <point x="363.238" y="597"/>
      <point x="358.571" y="597" type="curve" smooth="yes"/>
      <point x="353.238" y="597"/>
      <point x="349.738" y="596.667"/>
      <point x="348.071" y="596" type="curve" smooth="yes"/>
      <point x="346.405" y="595.333"/>
      <point x="344.905" y="594"/>
      <point x="343.571" y="592" type="curve" smooth="yes"/>
      <point x="336.905" y="581.333"/>
      <point x="333.571" y="555.667"/>
      <point x="333.571" y="515" type="curve" smooth="yes"/>
      <point x="333.571" y="336" type="line" smooth="yes"/>
      <point x="333.571" y="332"/>
      <point x="332.071" y="328.333"/>
      <point x="329.071" y="325" type="curve" smooth="yes"/>
      <point x="326.071" y="321.667"/>
      <point x="322.238" y="320"/>
      <point x="317.571" y="320" type="curve" smooth="yes"/>
      <point x="312.905" y="320"/>
      <point x="309.071" y="321.667"/>
      <point x="306.071" y="325" type="curve" smooth="yes"/>
      <point x="303.071" y="328.333"/>
      <point x="301.571" y="332"/>
      <point x="301.571" y="336" type="curve" smooth="yes"/>
      <point x="301.571" y="516" type="line" smooth="yes"/>
      <point x="301.571" y="530.667"/>
      <point x="298.238" y="540.333"/>
      <point x="291.571" y="545" type="curve" smooth="yes"/>
      <point x="288.238" y="547"/>
      <point x="283.238" y="548"/>
      <point x="276.571" y="548" type="curve" smooth="yes"/>
      <point x="271.238" y="548"/>
      <point x="267.238" y="546.667"/>
      <point x="264.571" y="544" type="curve" smooth="yes"/>
      <point x="256.571" y="536.667"/>
      <point x="252.571" y="521.667"/>
      <point x="252.571" y="499" type="curve" smooth="yes"/>
      <point x="252.571" y="369" type="line"/>
      <point x="252.571" y="320" type="line" smooth="yes"/>
      <point x="252.571" y="315.333"/>
      <point x="250.905" y="311.5"/>
      <point x="247.571" y="308.5" type="curve" smooth="yes"/>
      <point x="244.238" y="305.5"/>
      <point x="240.405" y="304"/>
      <point x="236.071" y="304" type="curve" smooth="yes"/>
      <point x="231.738" y="304"/>
      <point x="227.905" y="305.5"/>
      <point x="224.571" y="308.5" type="curve" smooth="yes"/>
      <point x="221.238" y="311.5"/>
      <point x="219.571" y="315.333"/>
      <point x="219.571" y="320" type="curve" smooth="yes"/>
      <point x="219.571" y="369" type="line" smooth="yes"/>
      <point x="219.571" y="373.667"/>
      <point x="217.738" y="378.5"/>
      <point x="214.071" y="383.5" type="curve" smooth="yes"/>
      <point x="210.405" y="388.5"/>
      <point x="205.905" y="392.333"/>
      <point x="200.571" y="395" type="curve" smooth="yes"/>
      <point x="190.571" y="399.667"/>
      <point x="180.905" y="399"/>
      <point x="171.571" y="393" type="curve"/>
      <point x="186.571" y="212" type="line"/>
      <point x="273.571" y="102" type="line" smooth="yes"/>
      <point x="275.571" y="99.333"/>
      <point x="276.571" y="96"/>
      <point x="276.571" y="92" type="curve" smooth="yes"/>
      <point x="276.571" y="-5" type="line"/>
      <point x="496.571" y="-5" type="line"/>
      <point x="496.571" y="92" type="line" smooth="yes"/>
      <point x="496.571" y="93.333"/>
      <point x="496.905" y="94.667"/>
      <point x="497.571" y="96" type="curve" smooth="yes"/>
      <point x="529.571" y="216" type="line"/>
      <point x="529.571" y="434" type="line" smooth="yes"/>
      <point x="529.571" y="448"/>
      <point x="527.905" y="457.333"/>
      <point x="524.571" y="462" type="curve" smooth="yes"/>
      <point x="522.571" y="465.333"/>
      <point x="518.571" y="467"/>
      <point x="512.571" y="467" type="curve" smooth="yes"/>
      <point x="507.238" y="467"/>
      <point x="503.571" y="465.667"/>
      <point x="501.571" y="463" type="curve" smooth="yes"/>
      <point x="498.238" y="459"/>
      <point x="496.571" y="451.333"/>
      <point x="496.571" y="440" type="curve" smooth="yes"/>
      <point x="496.571" y="349"/>
      <point x="496.571" y="349"/>
      <point x="496.571" y="304" type="curve" smooth="yes"/>
      <point x="496.571" y="299.3333"/>
      <point x="495.071" y="295.3333"/>
      <point x="492.071" y="292" type="curve" smooth="yes"/>
      <point x="489.071" y="288.6667"/>
      <point x="485.238" y="287"/>
      <point x="480.571" y="287" type="curve" smooth="yes"/>
      <point x="475.905" y="287"/>
      <point x="471.905" y="288.6667"/>
      <point x="468.571" y="292" type="curve" smooth="yes"/>
      <point x="465.238" y="295.3333"/>
      <point x="463.905" y="299.3333"/>
      <point x="464.571" y="304" type="curve" smooth="yes"/>
      <point x="464.571" y="441" type="line" smooth="yes"/>
      <point x="463.905" y="487.667"/>
      <point x="459.238" y="519.667"/>
      <point x="450.571" y="537" type="curve" smooth="yes"/>
      <point x="447.905" y="542.333"/>
      <point x="446.071" y="545.5"/>
      <point x="445.071" y="546.5" type="curve" smooth="yes"/>
      <point x="444.071" y="547.5"/>
      <point x="442.571" y="548"/>
      <point x="440.571" y="548" type="curve" smooth="yes"/>
      <point x="439.571" y="548"/>
      <point x="439.571" y="548"/>
      <point x="438.571" y="548" type="curve" smooth="yes"/>
      <point x="432.571" y="548"/>
      <point x="427.571" y="546"/>
      <point x="423.571" y="542" type="curve" smooth="yes"/>
      <point x="418.238" y="537.333"/>
      <point x="415.571" y="529.667"/>
      <point x="415.571" y="519" type="curve" smooth="yes"/>
      <point x="415.571" y="518" type="line" smooth="yes"/>
      <point x="415.571" y="517"/>
      <point x="415.571" y="517"/>
      <point x="415.571" y="516" type="curve" smooth="yes"/>
      <point x="415.571" y="515"/>
      <point x="415.571" y="515"/>
      <point x="415.571" y="515" type="curve"/>
      <point x="415.571" y="320" type="line" smooth="yes"/>
      <point x="415.571" y="315.333"/>
      <point x="413.905" y="311.5"/>
      <point x="410.571" y="308.5" type="curve" smooth="yes"/>
      <point x="407.238" y="305.5"/>
      <point x="403.405" y="304"/>
      <point x="399.071" y="304" type="curve" smooth="yes"/>
      <point x="394.738" y="304"/>
      <point x="390.905" y="305.5"/>
      <point x="387.571" y="308.5" type="curve" smooth="yes"/>
      <point x="384.238" y="311.5"/>
      <point x="382.571" y="315.333"/>
      <point x="382.571" y="320" type="curve" smooth="yes"/>
      <point x="382.571" y="516" type="line" smooth="yes"/>
      <point x="381.905" y="556"/>
      <point x="378.238" y="581.333"/>
      <point x="371.571" y="592" type="curve" smooth="yes"/>
      <point x="370.238" y="594.667"/>
      <point x="368.905" y="596.167"/>
    </contour>
  </outline>
</glyph>
<glyph name="pen" format="2">
  <advance width="700" height="700"/>
  <unicode hex="F003"/>
  <outline>
    <contour>
      <point x="350" y="430" type="curve" smooth="yes"/>
      <point x="351" y="430"/>
      <point x="351" y="430"/>
      <point x="352" y="430" type="curve" smooth="yes"/>
      <point x="395" y="430" type="line" smooth="yes"/>
      <point x="403.667" y="430"/>
      <point x="409" y="426"/>
      <point x="411" y="418" type="curve" smooth="yes"/>
      <point x="460" y="213" type="line"/>
      <point x="523" y="87" type="line" smooth="yes"/>
      <point x="524.333" y="85"/>
      <point x="525" y="82.6667"/>
      <point x="525" y="80" type="curve" smooth="yes"/>
      <point x="525" y="76.6667"/>
      <point x="524" y="73.6667"/>
      <point x="522" y="71" type="curve" smooth="yes"/>
      <point x="461" y="-20" type="line"/>
      <point x="461" y="-95" type="line"/>
      <point x="461" y="-222" type="line" smooth="yes"/>
      <point x="461" y="-223"/>
      <point x="461" y="-223"/>
      <point x="461" y="-223" type="curve"/>
      <point x="461" y="-224" type="line"/>
      <point x="461" y="-224"/>
      <point x="461" y="-224"/>
      <point x="461" y="-225" type="curve" smooth="yes"/>
      <point x="459.667" y="-233.667"/>
      <point x="454.333" y="-238"/>
      <point x="445" y="-238" type="curve" smooth="yes"/>
      <point x="255" y="-238" type="line" smooth="yes"/>
      <point x="251.667" y="-238"/>
      <point x="249" y="-237.333"/>
      <point x="247" y="-236" type="curve" smooth="yes"/>
      <point x="246" y="-236"/>
      <point x="246" y="-236"/>
      <point x="246" y="-236" type="curve"/>
      <point x="241.333" y="-232.667"/>
      <point x="239" y="-228"/>
      <point x="239" y="-222" type="curve" smooth="yes"/>
      <point x="239" y="-95" type="line"/>
      <point x="239" y="-95"/>
      <point x="239" y="-95"/>
      <point x="239" y="-94" type="curve" smooth="yes"/>
      <point x="239" y="-20" type="line"/>
      <point x="178" y="71" type="line" smooth="yes"/>
      <point x="176" y="73.6667"/>
      <point x="175" y="76.6667"/>
      <point x="175" y="80" type="curve" smooth="yes"/>
      <point x="175" y="82.6667"/>
      <point x="175.667" y="85"/>
      <point x="177" y="87" type="curve" smooth="yes"/>
      <point x="239" y="212" type="line"/>
      <point x="287" y="417" type="line" smooth="yes"/>
      <point x="289" y="425.667"/>
      <point x="294" y="430"/>
      <point x="302" y="430" type="curve" smooth="yes"/>
      <point x="348" y="430" type="line" smooth="yes"/>
      <point x="349" y="430"/>
      <point x="349" y="430"/>
    </contour>
    <contour>
      <point x="315" y="398" type="line"/>
      <point x="270" y="204" type="line" smooth="yes"/>
      <point x="270" y="202.667"/>
      <point x="269.667" y="201.333"/>
      <point x="269" y="200" type="curve" smooth="yes"/>
      <point x="209" y="81" type="line"/>
      <point x="268" y="-7" type="line" smooth="yes"/>
      <point x="269.333" y="-9.66667"/>
      <point x="270" y="-12.6667"/>
      <point x="270" y="-16" type="curve" smooth="yes"/>
      <point x="270" y="-79" type="line"/>
      <point x="430" y="-79" type="line"/>
      <point x="430" y="-16" type="line" smooth="yes"/>
      <point x="430" y="-12.6667"/>
      <point x="430.667" y="-9.66667"/>
      <point x="432" y="-7" type="curve" smooth="yes"/>
      <point x="491" y="81" type="line"/>
      <point x="431" y="200" type="line" smooth="yes"/>
      <point x="430.333" y="201.333"/>
      <point x="430" y="202.333"/>
      <point x="430" y="203" type="curve" smooth="yes"/>
      <point x="383" y="398" type="line"/>
      <point x="366" y="398" type="line"/>
      <point x="366" y="91" type="line"/>
      <point x="376.667" y="85"/>
      <point x="382" y="76"/>
      <point x="382" y="64" type="curve" smooth="yes"/>
      <point x="382" y="55.3333"/>
      <point x="378.833" y="47.8333"/>
      <point x="372.5" y="41.5" type="curve" smooth="yes"/>
      <point x="366.167" y="35.1667"/>
      <point x="358.667" y="32"/>
      <point x="350" y="32" type="curve" smooth="yes"/>
      <point x="341.333" y="32"/>
      <point x="333.833" y="35.1667"/>
      <point x="327.5" y="41.5" type="curve" smooth="yes"/>
      <point x="321.167" y="47.8333"/>
      <point x="318" y="55.3333"/>
      <point x="318" y="64" type="curve" smooth="yes"/>
      <point x="318" y="76"/>
      <point x="323.333" y="85"/>
      <point x="334" y="91" type="curve"/>
      <point x="334" y="398" type="line"/>
    </contour>
    <contour>
      <point x="270" y="-111" type="line"/>
      <point x="270" y="-207" type="line"/>
      <point x="430" y="-207" type="line"/>
      <point x="430" y="-111" type="line"/>
    </contour>
  </outline>
</glyph>
<glyph name="pencil" format="2">
  <advance width="700" height="700"/>
  <unicode hex="F004"/>
  <outline>
    <contour>
      <point x="350.75" y="414" type="curve" smooth="yes"/>
      <point x="356.083" y="414"/>
      <point x="360.417" y="411.667"/>
      <point x="363.75" y="407" type="curve" smooth="yes"/>
      <point x="518.75" y="147" type="line" smooth="yes"/>
      <point x="520.083" y="144.333"/>
      <point x="520.75" y="141.667"/>
      <point x="520.75" y="139" type="curve" smooth="yes"/>
      <point x="520.75" y="130" type="line" smooth="yes"/>
      <point x="521.417" y="128"/>
      <point x="521.417" y="126.333"/>
      <point x="520.75" y="125" type="curve" smooth="yes"/>
      <point x="520.75" y="-223" type="line" smooth="yes"/>
      <point x="520.75" y="-227"/>
      <point x="519.25" y="-230.5"/>
      <point x="516.25" y="-233.5" type="curve" smooth="yes"/>
      <point x="513.25" y="-236.5"/>
      <point x="509.75" y="-238"/>
      <point x="505.75" y="-238" type="curve" smooth="yes"/>
      <point x="194.75" y="-238" type="line" smooth="yes"/>
      <point x="190.083" y="-238"/>
      <point x="186.25" y="-236.5"/>
      <point x="183.25" y="-233.5" type="curve" smooth="yes"/>
      <point x="180.25" y="-230.5"/>
      <point x="178.75" y="-227"/>
      <point x="178.75" y="-223" type="curve" smooth="yes"/>
      <point x="178.75" y="124" type="line" smooth="yes"/>
      <point x="178.75" y="127"/>
      <point x="178.75" y="127"/>
      <point x="178.75" y="130" type="curve" smooth="yes"/>
      <point x="178.75" y="139" type="line" smooth="yes"/>
      <point x="178.75" y="141.667"/>
      <point x="179.417" y="144.333"/>
      <point x="180.75" y="147" type="curve" smooth="yes"/>
      <point x="336.75" y="407" type="line" smooth="yes"/>
      <point x="340.083" y="412.333"/>
      <point x="344.75" y="414.667"/>
    </contour>
    <contour>
      <point x="265.75" y="228" type="line"/>
      <point x="209.75" y="135" type="line"/>
      <point x="209.75" y="133" type="line"/>
      <point x="263.75" y="79" type="line"/>
      <point x="338.75" y="161" type="line" smooth="yes"/>
      <point x="342.083" y="164.333"/>
      <point x="346.083" y="166"/>
      <point x="350.75" y="166" type="curve" smooth="yes"/>
      <point x="354.75" y="165.333"/>
      <point x="358.417" y="163.667"/>
      <point x="361.75" y="161" type="curve" smooth="yes"/>
      <point x="435.75" y="79" type="line"/>
      <point x="489.75" y="133" type="line"/>
      <point x="489.75" y="135" type="line"/>
      <point x="433.75" y="228" type="line"/>
    </contour>
    <contour>
      <point x="349.75" y="127" type="line"/>
      <point x="279.75" y="51" type="line"/>
      <point x="279.75" y="-207" type="line"/>
      <point x="419.75" y="-207" type="line"/>
      <point x="419.75" y="51" type="line"/>
    </contour>
    <contour>
      <point x="489.75" y="89" type="line"/>
      <point x="450.75" y="50" type="line"/>
      <point x="450.75" y="-207" type="line"/>
      <point x="489.75" y="-207" type="line"/>
    </contour>
    <contour>
      <point x="209.75" y="89" type="line"/>
      <point x="209.75" y="-207" type="line"/>
      <point x="248.75" y="-207" type="line"/>
      <point x="248.75" y="50" type="line"/>
    </contour>
  </outline>
</glyph>
<glyph name="select" format="2">
  <advance width="700"/>
  <unicode hex="F005"/>
  <outline>
    <contour>
      <point x="172.44" y="626" type="curve" smooth="yes"/>
      <point x="174.44" y="627.333"/>
      <point x="176.774" y="628"/>
      <point x="179.44" y="628" type="curve" smooth="yes"/>
      <point x="184.774" y="628"/>
      <point x="189.107" y="626"/>
      <point x="192.44" y="622" type="curve" smooth="yes"/>
      <point x="533.44" y="263" type="line" smooth="yes"/>
      <point x="538.774" y="257.6667"/>
      <point x="539.94" y="251.3333"/>
      <point x="536.94" y="244" type="curve" smooth="yes"/>
      <point x="533.94" y="236.6667"/>
      <point x="528.44" y="233"/>
      <point x="520.44" y="233" type="curve" smooth="yes"/>
      <point x="409.44" y="233" type="line"/>
      <point x="421.44" y="214.3333"/>
      <point x="439.44" y="186"/>
      <point x="463.44" y="148" type="curve" smooth="yes"/>
      <point x="487.44" y="110"/>
      <point x="505.44" y="81.667"/>
      <point x="517.44" y="63" type="curve" smooth="yes"/>
      <point x="520.107" y="58.332993"/>
      <point x="520.774" y="53.667007"/>
      <point x="519.44" y="49" type="curve" smooth="yes"/>
      <point x="518.774" y="44.332993"/>
      <point x="516.107" y="40.667007"/>
      <point x="511.44" y="38" type="curve" smooth="yes"/>
      <point x="385.44" y="-34" type="line" smooth="yes"/>
      <point x="380.774" y="-36.667007"/>
      <point x="375.94" y="-37.167007"/>
      <point x="370.94" y="-35.5" type="curve" smooth="yes"/>
      <point x="365.94" y="-33.832993"/>
      <point x="362.44" y="-30.332993"/>
      <point x="360.44" y="-25" type="curve" smooth="yes"/>
      <point x="280.44" y="165" type="line"/>
      <point x="192.44" y="77" type="line" smooth="yes"/>
      <point x="186.44" y="71"/>
      <point x="179.774" y="69.5"/>
      <point x="172.44" y="72.5" type="curve" smooth="yes"/>
      <point x="165.107" y="75.5"/>
      <point x="161.44" y="81"/>
      <point x="161.44" y="89" type="curve" smooth="yes"/>
      <point x="161.44" y="610" type="line" smooth="yes"/>
      <point x="161.44" y="618"/>
      <point x="165.107" y="623.333"/>
    </contour>
    <contour>
      <point x="197.44" y="565" type="line"/>
      <point x="197.44" y="133" type="line"/>
      <point x="274.44" y="210" type="line" smooth="yes"/>
      <point x="279.107" y="214"/>
      <point x="284.44" y="215.5"/>
      <point x="290.44" y="214.5" type="curve" smooth="yes"/>
      <point x="296.44" y="213.5"/>
      <point x="300.774" y="210"/>
      <point x="303.44" y="204" type="curve" smooth="yes"/>
      <point x="385.44" y="7" type="line"/>
      <point x="477.44" y="60" type="line"/>
      <point x="361.44" y="241" type="line" smooth="yes"/>
      <point x="358.107" y="247"/>
      <point x="358.107" y="253"/>
      <point x="361.44" y="259" type="curve" smooth="yes"/>
      <point x="364.774" y="265.6667"/>
      <point x="369.774" y="269"/>
      <point x="376.44" y="269" type="curve" smooth="yes"/>
      <point x="478.44" y="269" type="line"/>
    </contour>
  </outline>
</glyph>
<glyph name="shapes" format="2">
  <advance width="700" height="700"/>
  <unicode hex="F006"/>
  <outline>
    <contour>
      <point x="242" y="428" type="curve" smooth="yes"/>
      <point x="566" y="428" type="line" smooth="yes"/>
      <point x="585.333" y="428"/>
      <point x="602" y="421"/>
      <point x="616" y="407" type="curve" smooth="yes"/>
      <point x="630" y="393"/>
      <point x="637" y="376"/>
      <point x="637" y="356" type="curve" smooth="yes"/>
      <point x="637" y="33" type="line" smooth="yes"/>
      <point x="637" y="13"/>
      <point x="630" y="-4"/>
      <point x="616" y="-18" type="curve" smooth="yes"/>
      <point x="602" y="-32"/>
      <point x="585.333" y="-39"/>
      <point x="566" y="-39" type="curve" smooth="yes"/>
      <point x="527" y="-39" type="line"/>
      <point x="518.333" y="-95"/>
      <point x="492.167" y="-141.833"/>
      <point x="448.5" y="-179.5" type="curve" smooth="yes"/>
      <point x="404.833" y="-217.167"/>
      <point x="354" y="-236"/>
      <point x="296" y="-236" type="curve" smooth="yes"/>
      <point x="232" y="-236"/>
      <point x="177.167" y="-213.167"/>
      <point x="131.5" y="-167.5" type="curve" smooth="yes"/>
      <point x="85.8333" y="-121.833"/>
      <point x="63" y="-67"/>
      <point x="63" y="-3" type="curve" smooth="yes"/>
      <point x="63" y="37.6667"/>
      <point x="72.6667" y="75.3333"/>
      <point x="92" y="110" type="curve" smooth="yes"/>
      <point x="111.333" y="144.667"/>
      <point x="137.667" y="172.667"/>
      <point x="171" y="194" type="curve"/>
      <point x="171" y="356" type="line" smooth="yes"/>
      <point x="171" y="376"/>
      <point x="178" y="393"/>
      <point x="192" y="407" type="curve" smooth="yes"/>
      <point x="206" y="421"/>
      <point x="222.667" y="428"/>
    </contour>
    <contour>
      <point x="242" y="392" type="line" smooth="yes"/>
      <point x="232" y="392"/>
      <point x="223.667" y="388.5"/>
      <point x="217" y="381.5" type="curve" smooth="yes"/>
      <point x="210.333" y="374.5"/>
      <point x="207" y="366"/>
      <point x="207" y="356" type="curve" smooth="yes"/>
      <point x="207" y="212" type="line"/>
      <point x="235.667" y="224"/>
      <point x="265.333" y="230"/>
      <point x="296" y="230" type="curve" smooth="yes"/>
      <point x="360.667" y="230"/>
      <point x="415.833" y="207.167"/>
      <point x="461.5" y="161.5" type="curve" smooth="yes"/>
      <point x="507.167" y="115.833"/>
      <point x="530" y="61"/>
      <point x="530" y="-3" type="curve"/>
      <point x="566" y="-3" type="line" smooth="yes"/>
      <point x="576" y="-3"/>
      <point x="584.333" y="0.5"/>
      <point x="591" y="7.5" type="curve" smooth="yes"/>
      <point x="597.667" y="14.5"/>
      <point x="601" y="23"/>
      <point x="601" y="33" type="curve" smooth="yes"/>
      <point x="601" y="356" type="line" smooth="yes"/>
      <point x="601" y="366"/>
      <point x="597.667" y="374.5"/>
      <point x="591" y="381.5" type="curve" smooth="yes"/>
      <point x="584.333" y="388.5"/>
      <point x="576" y="392"/>
      <point x="566" y="392" type="curve" smooth="yes"/>
    </contour>
    <contour>
      <point x="296" y="194" type="curve" smooth="yes"/>
      <point x="241.333" y="194"/>
      <point x="194.833" y="174.833"/>
      <point x="156.5" y="136.5" type="curve" smooth="yes"/>
      <point x="118.167" y="98.1667"/>
      <point x="99" y="51.6667"/>
      <point x="99" y="-3" type="curve" smooth="yes"/>
      <point x="99" y="-57.6667"/>
      <point x="118.167" y="-104.167"/>
      <point x="156.5" y="-142.5" type="curve" smooth="yes"/>
      <point x="194.833" y="-180.833"/>
      <point x="241.333" y="-200"/>
      <point x="296" y="-200" type="curve" smooth="yes"/>
      <point x="348" y="-200"/>
      <point x="392.667" y="-182.667"/>
      <point x="430" y="-148" type="curve" smooth="yes"/>
      <point x="467.333" y="-113.333"/>
      <point x="488.333" y="-70.6667"/>
      <point x="493" y="-20" type="curve"/>
      <point x="493" y="-19" type="line" smooth="yes"/>
      <point x="493.667" y="-13.6667"/>
      <point x="494" y="-8.33333"/>
      <point x="494" y="-3" type="curve" smooth="yes"/>
      <point x="494" y="51.6667"/>
      <point x="474.667" y="98.1667"/>
      <point x="436" y="136.5" type="curve" smooth="yes"/>
      <point x="397.333" y="174.833"/>
      <point x="350.667" y="194"/>
    </contour>
  </outline>
</glyph>
<glyph name="text" format="2">
  <advance width="700" height="700"/>
  <unicode hex="F007"/>
  <outline>
    <contour>
      <point x="114" y="429" type="curve" smooth="yes"/>
      <point x="586" y="429" type="line" smooth="yes"/>
      <point x="595.333" y="429"/>
      <point x="600.667" y="424.667"/>
      <point x="602" y="416" type="curve" smooth="yes"/>
      <point x="635" y="204" type="line" smooth="yes"/>
      <point x="635" y="203"/>
      <point x="635" y="203"/>
      <point x="635" y="202" type="curve" smooth="yes"/>
      <point x="635" y="197.333"/>
      <point x="633.333" y="193.333"/>
      <point x="630" y="190" type="curve" smooth="yes"/>
      <point x="626.667" y="186.667"/>
      <point x="622.667" y="185"/>
      <point x="618" y="185" type="curve" smooth="yes"/>
      <point x="570" y="185" type="line" smooth="yes"/>
      <point x="562.667" y="185"/>
      <point x="557.667" y="188.333"/>
      <point x="555" y="195" type="curve" smooth="yes"/>
      <point x="494" y="332" type="line"/>
      <point x="423" y="332" type="line"/>
      <point x="423" y="-134" type="line"/>
      <point x="432" y="-143" type="line"/>
      <point x="511" y="-174" type="line" smooth="yes"/>
      <point x="517.667" y="-176.667"/>
      <point x="521" y="-181.667"/>
      <point x="521" y="-189" type="curve" smooth="yes"/>
      <point x="521" y="-222" type="line" smooth="yes"/>
      <point x="521" y="-226"/>
      <point x="519.333" y="-229.667"/>
      <point x="516" y="-233" type="curve" smooth="yes"/>
      <point x="512.667" y="-236.333"/>
      <point x="509" y="-238"/>
      <point x="505" y="-238" type="curve" smooth="yes"/>
      <point x="195" y="-238" type="line" smooth="yes"/>
      <point x="190.333" y="-238"/>
      <point x="186.5" y="-236.333"/>
      <point x="183.5" y="-233" type="curve" smooth="yes"/>
      <point x="180.5" y="-229.667"/>
      <point x="179" y="-226"/>
      <point x="179" y="-222" type="curve" smooth="yes"/>
      <point x="179" y="-189" type="line" smooth="yes"/>
      <point x="179" y="-181.667"/>
      <point x="182.333" y="-176.667"/>
      <point x="189" y="-174" type="curve" smooth="yes"/>
      <point x="267" y="-143" type="line"/>
      <point x="277" y="-134" type="line"/>
      <point x="277" y="332" type="line"/>
      <point x="206" y="332" type="line"/>
      <point x="145" y="195" type="line" smooth="yes"/>
      <point x="142.333" y="188.333"/>
      <point x="137.333" y="185"/>
      <point x="130" y="185" type="curve" smooth="yes"/>
      <point x="81" y="185" type="line" smooth="yes"/>
      <point x="77" y="185"/>
      <point x="73.3333" y="186.667"/>
      <point x="70" y="190" type="curve" smooth="yes"/>
      <point x="66.6667" y="193.333"/>
      <point x="65" y="197.333"/>
      <point x="65" y="202" type="curve" smooth="yes"/>
      <point x="65" y="203"/>
      <point x="65" y="203"/>
      <point x="65" y="204" type="curve" smooth="yes"/>
      <point x="98" y="416" type="line" smooth="yes"/>
      <point x="99.3333" y="424.667"/>
      <point x="104.667" y="429"/>
    </contour>
    <contour>
      <point x="128" y="397" type="line"/>
      <point x="100" y="218" type="line"/>
      <point x="120" y="218" type="line"/>
      <point x="180" y="355" type="line" smooth="yes"/>
      <point x="183.333" y="361"/>
      <point x="188.333" y="364"/>
      <point x="195" y="364" type="curve" smooth="yes"/>
      <point x="293" y="364" type="line" smooth="yes"/>
      <point x="297.667" y="364"/>
      <point x="301.5" y="362.5"/>
      <point x="304.5" y="359.5" type="curve" smooth="yes"/>
      <point x="307.5" y="356.5"/>
      <point x="309" y="352.667"/>
      <point x="309" y="348" type="curve" smooth="yes"/>
      <point x="309" y="-140" type="line" smooth="yes"/>
      <point x="309" y="-144.667"/>
      <point x="307.333" y="-148.667"/>
      <point x="304" y="-152" type="curve" smooth="yes"/>
      <point x="288" y="-168" type="line" smooth="yes"/>
      <point x="286.667" y="-169.333"/>
      <point x="285" y="-170.667"/>
      <point x="283" y="-172" type="curve" smooth="yes"/>
      <point x="212" y="-200" type="line"/>
      <point x="212" y="-205" type="line"/>
      <point x="488" y="-205" type="line"/>
      <point x="488" y="-200" type="line"/>
      <point x="417" y="-172" type="line" smooth="yes"/>
      <point x="415" y="-170.667"/>
      <point x="413.333" y="-169.333"/>
      <point x="412" y="-168" type="curve" smooth="yes"/>
      <point x="395" y="-152" type="line" smooth="yes"/>
      <point x="392.333" y="-148.667"/>
      <point x="391" y="-144.667"/>
      <point x="391" y="-140" type="curve" smooth="yes"/>
      <point x="391" y="348" type="line" smooth="yes"/>
      <point x="391" y="352.667"/>
      <point x="392.5" y="356.5"/>
      <point x="395.5" y="359.5" type="curve" smooth="yes"/>
      <point x="398.5" y="362.5"/>
      <point x="402.333" y="364"/>
      <point x="407" y="364" type="curve" smooth="yes"/>
      <point x="505" y="364" type="line" smooth="yes"/>
      <point x="511.667" y="364"/>
      <point x="516.333" y="361"/>
      <point x="519" y="355" type="curve" smooth="yes"/>
      <point x="580" y="218" type="line"/>
      <point x="600" y="218" type="line"/>
      <point x="572" y="397" type="line"/>
    </contour>
  </outline>
</glyph>
<glyph name="zoom" format="2">
  <advance width="700"/>
  <unicode hex="F008"/>
  <outline>
    <contour>
      <point x="258" y="542.5" type="curve" smooth="yes"/>
      <point x="283.333" y="568.167"/>
      <point x="314" y="581"/>
      <point x="350" y="581" type="curve" smooth="yes"/>
      <point x="386" y="581"/>
      <point x="416.667" y="568.167"/>
      <point x="442" y="542.5" type="curve" smooth="yes"/>
      <point x="467.333" y="516.833"/>
      <point x="480" y="486.167"/>
      <point x="480" y="450.5" type="curve" smooth="yes"/>
      <point x="480" y="414.833"/>
      <point x="467.333" y="384.167"/>
      <point x="442" y="358.5" type="curve" smooth="yes"/>
      <point x="416.667" y="332.833"/>
      <point x="386" y="320"/>
      <point x="350" y="320" type="curve" smooth="yes"/>
      <point x="314" y="320"/>
      <point x="283.333" y="332.833"/>
      <point x="258" y="358.5" type="curve" smooth="yes"/>
      <point x="232.667" y="384.167"/>
      <point x="220" y="414.833"/>
      <point x="220" y="450.5" type="curve" smooth="yes"/>
      <point x="220" y="486.167"/>
      <point x="232.667" y="516.833"/>
    </contour>
    <contour>
      <point x="419.5" y="519.5" type="curve" smooth="yes"/>
      <point x="400.5" y="538.5"/>
      <point x="377.333" y="548"/>
      <point x="350" y="548" type="curve" smooth="yes"/>
      <point x="322.667" y="548"/>
      <point x="299.5" y="538.5"/>
      <point x="280.5" y="519.5" type="curve" smooth="yes"/>
      <point x="261.5" y="500.5"/>
      <point x="252" y="477.5"/>
      <point x="252" y="450.5" type="curve" smooth="yes"/>
      <point x="252" y="423.5"/>
      <point x="261.5" y="400.5"/>
      <point x="280.5" y="381.5" type="curve" smooth="yes"/>
      <point x="299.5" y="362.5"/>
      <point x="322.667" y="353"/>
      <point x="350" y="353" type="curve" smooth="yes"/>
      <point x="377.333" y="353"/>
      <point x="400.5" y="362.5"/>
      <point x="419.5" y="381.5" type="curve" smooth="yes"/>
      <point x="438.5" y="400.5"/>
      <point x="448" y="423.5"/>
      <point x="448" y="450.5" type="curve" smooth="yes"/>
      <point x="448" y="477.5"/>
      <point x="438.5" y="500.5"/>
    </contour>
    <contour>
      <point x="318" y="467" type="line"/>
      <point x="383" y="467" type="line" smooth="yes"/>
      <point x="387.667" y="467"/>
      <point x="391.5" y="465.333"/>
      <point x="394.5" y="462" type="curve" smooth="yes"/>
      <point x="397.5" y="458.667"/>
      <point x="399" y="454.833"/>
      <point x="399" y="450.5" type="curve" smooth="yes"/>
      <point x="399" y="446.167"/>
      <point x="397.5" y="442.333"/>
      <point x="394.5" y="439" type="curve" smooth="yes"/>
      <point x="391.5" y="435.667"/>
      <point x="387.667" y="434"/>
      <point x="383" y="434" type="curve" smooth="yes"/>
      <point x="318" y="434" type="line"/>
      <point x="317" y="434" type="line" smooth="yes"/>
      <point x="313" y="434"/>
      <point x="309.333" y="435.667"/>
      <point x="306" y="439" type="curve" smooth="yes"/>
      <point x="302.667" y="442.333"/>
      <point x="301" y="446.167"/>
      <point x="301" y="450.5" type="curve" smooth="yes"/>
      <point x="301" y="454.833"/>
      <point x="302.667" y="458.667"/>
      <point x="306" y="462" type="curve" smooth="yes"/>
      <point x="309.333" y="465.333"/>
      <point x="313" y="467"/>
      <point x="317" y="467" type="curve" smooth="yes"/>
    </contour>
    <contour>
      <point x="338.5" y="494.5" type="curve" smooth="yes"/>
      <point x="341.5" y="497.5"/>
      <point x="345.333" y="499"/>
      <point x="350" y="499" type="curve" smooth="yes"/>
      <point x="354.667" y="499"/>
      <point x="358.5" y="497.5"/>
      <point x="361.5" y="494.5" type="curve" smooth="yes"/>
      <point x="364.5" y="491.5"/>
      <point x="366" y="487.667"/>
      <point x="366" y="483" type="curve" smooth="yes"/>
      <point x="366" y="418" type="line" smooth="yes"/>
      <point x="366" y="413.333"/>
      <point x="364.5" y="409.333"/>
      <point x="361.5" y="406" type="curve" smooth="yes"/>
      <point x="358.5" y="402.667"/>
      <point x="354.667" y="401"/>
      <point x="350" y="401" type="curve" smooth="yes"/>
      <point x="345.333" y="401"/>
      <point x="341.5" y="402.667"/>
      <point x="338.5" y="406" type="curve" smooth="yes"/>
      <point x="335.5" y="409.333"/>
      <point x="334" y="413.333"/>
      <point x="334" y="418" type="curve" smooth="yes"/>
      <point x="334" y="483" type="line" smooth="yes"/>
      <point x="334" y="487.667"/>
      <point x="335.5" y="491.5"/>
    </contour>
    <contour>
      <point x="223.5" y="576.5" type="curve" smooth="yes"/>
      <point x="258.5" y="611.5"/>
      <point x="300.667" y="629"/>
      <point x="350" y="629" type="curve" smooth="yes"/>
      <point x="399.333" y="629"/>
      <point x="441.5" y="611.5"/>
      <point x="476.5" y="576.5" type="curve" smooth="yes"/>
      <point x="511.5" y="541.5"/>
      <point x="529" y="499.333"/>
      <point x="529" y="450" type="curve" smooth="yes"/>
      <point x="529" y="400.667"/>
      <point x="511.5" y="358.5"/>
      <point x="476.5" y="323.5" type="curve" smooth="yes"/>
      <point x="441.5" y="288.5"/>
      <point x="399.333" y="271"/>
      <point x="350" y="271" type="curve" smooth="yes"/>
      <point x="300.667" y="271"/>
      <point x="258.5" y="288.5"/>
      <point x="223.5" y="323.5" type="curve" smooth="yes"/>
      <point x="188.5" y="358.5"/>
      <point x="171" y="400.667"/>
      <point x="171" y="450" type="curve" smooth="yes"/>
      <point x="171" y="499.333"/>
      <point x="188.5" y="541.5"/>
    </contour>
    <contour>
      <point x="454" y="554" type="curve" smooth="yes"/>
      <point x="425.333" y="582.667"/>
      <point x="390.667" y="597"/>
      <point x="350" y="597" type="curve" smooth="yes"/>
      <point x="309.333" y="597"/>
      <point x="274.833" y="582.667"/>
      <point x="246.5" y="554" type="curve" smooth="yes"/>
      <point x="218.167" y="525.333"/>
      <point x="204" y="490.833"/>
      <point x="204" y="450.5" type="curve" smooth="yes"/>
      <point x="204" y="410.167"/>
      <point x="218.167" y="375.667"/>
      <point x="246.5" y="347" type="curve" smooth="yes"/>
      <point x="274.833" y="318.333"/>
      <point x="309.333" y="304"/>
      <point x="350" y="304" type="curve" smooth="yes"/>
      <point x="390.667" y="304"/>
      <point x="425.333" y="318.333"/>
      <point x="454" y="347" type="curve" smooth="yes"/>
      <point x="482.667" y="375.667"/>
      <point x="497" y="410.167"/>
      <point x="497" y="450.5" type="curve" smooth="yes"/>
      <point x="497" y="490.833"/>
      <point x="482.667" y="525.333"/>
    </contour>
    <contour>
      <point x="283" y="240.5" type="curve" smooth="yes"/>
      <point x="292.333" y="250.1667"/>
      <point x="304" y="255"/>
      <point x="318" y="255" type="curve" smooth="yes"/>
      <point x="383" y="255" type="line" smooth="yes"/>
      <point x="396.333" y="255"/>
      <point x="407.667" y="250.1667"/>
      <point x="417" y="240.5" type="curve" smooth="yes"/>
      <point x="426.333" y="230.8333"/>
      <point x="431" y="219.3333"/>
      <point x="431" y="206" type="curve" smooth="yes"/>
      <point x="431" y="11" type="line" smooth="yes"/>
      <point x="431" y="-2.3329926"/>
      <point x="426.333" y="-13.832993"/>
      <point x="417" y="-23.5" type="curve" smooth="yes"/>
      <point x="407.667" y="-33.167007"/>
      <point x="396.333" y="-38"/>
      <point x="383" y="-38" type="curve" smooth="yes"/>
      <point x="318" y="-38" type="line" smooth="yes"/>
      <point x="304" y="-38"/>
      <point x="292.333" y="-33.167007"/>
      <point x="283" y="-23.5" type="curve" smooth="yes"/>
      <point x="273.667" y="-13.832993"/>
      <point x="269" y="-2.3329926"/>
      <point x="269" y="11" type="curve" smooth="yes"/>
      <point x="269" y="206" type="line" smooth="yes"/>
      <point x="269" y="219.3333"/>
      <point x="273.667" y="230.8333"/>
    </contour>
    <contour>
      <point x="318" y="222" type="line" smooth="yes"/>
      <point x="313.333" y="222"/>
      <point x="309.333" y="220.5"/>
      <point x="306" y="217.5" type="curve" smooth="yes"/>
      <point x="302.667" y="214.5"/>
      <point x="301" y="210.6667"/>
      <point x="301" y="206" type="curve" smooth="yes"/>
      <point x="301" y="11" type="line" smooth="yes"/>
      <point x="301" y="6.3329926"/>
      <point x="302.667" y="2.5"/>
      <point x="306" y="-0.5" type="curve" smooth="yes"/>
      <point x="309.333" y="-3.5"/>
      <point x="313.333" y="-5"/>
      <point x="318" y="-5" type="curve" smooth="yes"/>
      <point x="383" y="-5" type="line" smooth="yes"/>
      <point x="387.667" y="-5"/>
      <point x="391.5" y="-3.5"/>
      <point x="394.5" y="-0.5" type="curve" smooth="yes"/>
      <point x="397.5" y="2.5"/>
      <point x="399" y="6.3329926"/>
      <point x="399" y="11" type="curve" smooth="yes"/>
      <point x="399" y="206" type="line" smooth="yes"/>
      <point x="399" y="210.6667"/>
      <point x="397.5" y="214.5"/>
      <point x="394.5" y="217.5" type="curve" smooth="yes"/>
      <point x="391.5" y="220.5"/>
      <point x="387.667" y="222"/>
      <point x="383" y="222" type="curve" smooth="yes"/>
    </contour>
    <contour>
      <point x="317" y="227" type="line"/>
      <point x="317" y="348" type="line"/>
      <point x="383" y="348" type="line"/>
      <point x="383" y="227" type="line"/>
    </contour>
  </outline>
</glyph>
<glyph name="vws" format="2">
  <advance width="700"/>
  <unicode hex="F009"/>
  <outline>
    <contour>
      <point x="149.762" y="20.707" type="curve" smooth="yes"/>
      <point x="110.027" y="59.126007"/>
      <point x="90.1592" y="109.9307"/>
      <point x="90.1592" y="173.1221" type="curve"/>
      <point x="90.1836" y="174.8467" type="line" smooth="yes"/>
      <point x="90.1836" y="175.0693"/>
      <point x="90.1751" y="175.24539"/>
      <point x="90.1582" y="175.375" type="curve" smooth="yes"/>
      <point x="90.1582" y="216.23889"/>
      <point x="100.914" y="262.3457"/>
      <point x="122.427" y="313.695" type="curve" smooth="yes"/>
      <point x="144.159" y="366.404"/>
      <point x="168.583" y="411.664"/>
      <point x="195.697" y="449.475" type="curve" smooth="yes"/>
      <point x="222.983" y="488.509"/>
      <point x="259.583" y="524.474"/>
      <point x="305.497" y="557.36804" type="curve" smooth="yes"/>
      <point x="351.411" y="590.263"/>
      <point x="396.118" y="606.70996"/>
      <point x="439.619" y="606.70996" type="curve" smooth="yes"/>
      <point x="440.052" y="606.70996" type="line" smooth="yes"/>
      <point x="490.611" y="606.70996"/>
      <point x="531.548" y="586.303"/>
      <point x="562.863" y="545.489" type="curve" smooth="yes"/>
      <point x="594.178" y="504.676"/>
      <point x="609.835" y="458.871"/>
      <point x="609.835" y="408.073" type="curve" smooth="yes"/>
      <point x="609.84" y="407.438"/>
      <point x="609.842" y="406.801"/>
      <point x="609.842" y="406.162" type="curve" smooth="yes"/>
      <point x="609.842" y="367.31702"/>
      <point x="601.207" y="322.39"/>
      <point x="583.938" y="271.3809" type="curve" smooth="yes"/>
      <point x="566.669" y="220.3711"/>
      <point x="546.819" y="174.3047"/>
      <point x="524.388" y="133.18161" type="curve" smooth="yes"/>
      <point x="501.957" y="92.059"/>
      <point x="470.16" y="53.830994"/>
      <point x="428.996" y="18.5" type="curve" smooth="yes"/>
      <point x="387.397" y="-17.904007"/>
      <point x="345.177" y="-36.145004"/>
      <point x="302.336" y="-36.223007" type="curve" smooth="yes"/>
      <point x="239.279" y="-36.145996"/>
      <point x="188.421" y="-17.169998"/>
    </contour>
    <contour>
      <point x="534.961" y="521.31" type="curve" smooth="yes"/>
      <point x="510.863" y="553.694"/>
      <point x="479.235" y="569.88696"/>
      <point x="440.077" y="569.88696" type="curve" smooth="yes"/>
      <point x="412.936" y="569.88696"/>
      <point x="385.54" y="558.76404"/>
      <point x="357.89" y="536.518" type="curve" smooth="yes"/>
      <point x="330.239" y="514.271"/>
      <point x="307.819" y="489.526"/>
      <point x="290.628" y="462.282" type="curve" smooth="yes"/>
      <point x="273.437" y="435.038"/>
      <point x="258.271" y="403.849"/>
      <point x="245.129" y="368.715" type="curve" smooth="yes"/>
      <point x="231.369" y="333.64502"/>
      <point x="221.354" y="299.4609"/>
      <point x="215.083" y="266.1641" type="curve" smooth="yes"/>
      <point x="207.584" y="228.6471"/>
      <point x="203.835" y="199.06673"/>
      <point x="203.835" y="177.4229" type="curve" smooth="yes"/>
      <point x="203.835" y="155.77899"/>
      <point x="205.604" y="136.4352"/>
      <point x="209.141" y="119.3916" type="curve" smooth="yes"/>
      <point x="212.678" y="102.3473"/>
      <point x="217.869" y="85.733"/>
      <point x="224.714" y="69.548996" type="curve" smooth="yes"/>
      <point x="231.558" y="53.365005"/>
      <point x="242.004" y="40.041"/>
      <point x="256.052" y="29.578995" type="curve" smooth="yes"/>
      <point x="270.099" y="19.117996"/>
      <point x="285.531" y="13.886993"/>
      <point x="302.348" y="13.886993" type="curve" smooth="yes"/>
      <point x="336.141" y="13.886993"/>
      <point x="370.475" y="29.382996"/>
      <point x="405.351" y="60.377" type="curve" smooth="yes"/>
      <point x="441.765" y="92.318"/>
      <point x="470.426" y="126.7471"/>
      <point x="491.335" y="163.66501" type="curve" smooth="yes"/>
      <point x="512.243" y="200.58235"/>
      <point x="531.169" y="242.8499"/>
      <point x="548.111" y="290.4678" type="curve" smooth="yes"/>
      <point x="563.936" y="333.948"/>
      <point x="571.968" y="373.148"/>
      <point x="572.208" y="408.07" type="curve" smooth="yes"/>
      <point x="571.972" y="449.764"/>
      <point x="559.556" y="487.51"/>
    </contour>
  </outline>
</glyph>
<glyph name="anchor" format="2">
  <advance width="700"/>
  <unicode hex="F00A"/>
  <outline>
    <contour>
      <point x="324.627" y="512.452" type="curve" smooth="yes"/>
      <point x="331.584" y="505.474"/>
      <point x="339.945" y="501.984"/>
      <point x="349.71" y="501.984" type="curve" smooth="yes"/>
      <point x="359.581" y="501.984"/>
      <point x="368.002" y="505.467"/>
      <point x="374.972" y="512.433" type="curve" smooth="yes"/>
      <point x="381.942" y="519.402"/>
      <point x="385.429" y="527.81"/>
      <point x="385.431" y="537.655" type="curve" smooth="yes"/>
      <point x="385.432" y="547.555"/>
      <point x="381.954" y="555.98303"/>
      <point x="374.997" y="562.94" type="curve" smooth="yes"/>
      <point x="368.039" y="569.897"/>
      <point x="359.646" y="573.376"/>
      <point x="349.818" y="573.376" type="curve" smooth="yes"/>
      <point x="339.97" y="573.376"/>
      <point x="331.57" y="569.893"/>
      <point x="324.618" y="562.927" type="curve" smooth="yes"/>
      <point x="317.666" y="555.961"/>
      <point x="314.19" y="547.53296"/>
      <point x="314.19" y="537.643" type="curve" smooth="yes"/>
      <point x="314.19" y="527.827"/>
      <point x="317.669" y="519.43"/>
    </contour>
    <contour>
      <point x="449.727" y="406.252" type="line" smooth="yes"/>
      <point x="457.527" y="406.252"/>
      <point x="463.827" y="404.15198"/>
      <point x="468.627" y="399.952" type="curve" smooth="yes"/>
      <point x="474.027" y="395.15198"/>
      <point x="476.727" y="389.752"/>
      <point x="476.727" y="383.752" type="curve" smooth="yes"/>
      <point x="476.727" y="377.752"/>
      <point x="474.027" y="372.352"/>
      <point x="468.627" y="367.552" type="curve" smooth="yes"/>
      <point x="463.227" y="362.752"/>
      <point x="456.926" y="360.352"/>
      <point x="449.727" y="360.352" type="curve" smooth="yes"/>
      <point x="385.583" y="360.352" type="line"/>
      <point x="385.479" y="68.733" type="line"/>
      <point x="416.911" y="74.746"/>
      <point x="444.929" y="88.468"/>
      <point x="469.534" y="109.9004" type="curve" smooth="yes"/>
      <point x="494.129" y="131.06839"/>
      <point x="511.643" y="156.6937"/>
      <point x="522.075" y="186.7764" type="curve"/>
      <point x="500.076" y="194.08398" type="line" smooth="yes"/>
      <point x="498.91" y="194.5293"/>
      <point x="496.633" y="195.72624"/>
      <point x="493.247" y="197.6748" type="curve" smooth="yes"/>
      <point x="486.433" y="202.92612"/>
      <point x="483.018" y="209.7552"/>
      <point x="483" y="218.1621" type="curve" smooth="yes"/>
      <point x="483.018" y="225.3555"/>
      <point x="484.648" y="230.3643"/>
      <point x="487.893" y="233.1885" type="curve" smooth="yes"/>
      <point x="488.848" y="233.9639"/>
      <point x="490.213" y="235.4255"/>
      <point x="491.987" y="237.5732" type="curve" smooth="yes"/>
      <point x="579.575" y="319.79498" type="line" smooth="yes"/>
      <point x="585.409" y="325.233"/>
      <point x="591.331" y="327.816"/>
      <point x="597.342" y="327.544" type="curve" smooth="yes"/>
      <point x="603.331" y="327.816"/>
      <point x="608.382" y="325.962"/>
      <point x="612.494" y="321.98102" type="curve" smooth="yes"/>
      <point x="617.184" y="317.741"/>
      <point x="619.935" y="313.091"/>
      <point x="620.747" y="308.03198" type="curve" smooth="yes"/>
      <point x="639.76" y="189.54199" type="line" smooth="yes"/>
      <point x="640.271" y="186.415"/>
      <point x="640.492" y="184.4876"/>
      <point x="640.422" y="183.7598" type="curve" smooth="yes"/>
      <point x="640.492" y="176.6882"/>
      <point x="638.009" y="170.6439"/>
      <point x="632.975" y="165.627" type="curve" smooth="yes"/>
      <point x="628.41" y="161.0436"/>
      <point x="622.425" y="158.5638"/>
      <point x="615.021" y="158.1875" type="curve" smooth="yes"/>
      <point x="612.916" y="157.9733"/>
      <point x="610.404" y="158.3512"/>
      <point x="607.485" y="159.3213" type="curve" smooth="yes"/>
      <point x="586.946" y="166.15039" type="line"/>
      <point x="570.466" y="115.6178"/>
      <point x="540.477" y="74.398"/>
      <point x="496.977" y="42.490997" type="curve" smooth="yes"/>
      <point x="453.477" y="10.798996"/>
      <point x="404.479" y="-5.1920013"/>
      <point x="349.984" y="-5.4799957" type="curve" smooth="yes"/>
      <point x="295.279" y="-5.1920013"/>
      <point x="246.296" y="10.787003"/>
      <point x="203.035" y="42.455994" type="curve" smooth="yes"/>
      <point x="159.896" y="74.386"/>
      <point x="129.9" y="115.5651"/>
      <point x="113.049" y="165.9922" type="curve"/>
      <point x="92.4473" y="159.3018" type="line" smooth="yes"/>
      <point x="79.8333" y="155.33499"/>
      <point x="70.4512" y="157.4518"/>
      <point x="64.3008" y="165.6523" type="curve" smooth="yes"/>
      <point x="60.0306" y="172.1901"/>
      <point x="58.6481" y="180.1533"/>
      <point x="60.1533" y="189.54199" type="curve" smooth="yes"/>
      <point x="79.1484" y="308.03198" type="line" smooth="yes"/>
      <point x="80.2005" y="313.512"/>
      <point x="82.9447" y="318.159"/>
      <point x="87.3809" y="321.973" type="curve" smooth="yes"/>
      <point x="91.9447" y="325.95898"/>
      <point x="97.0544" y="327.814"/>
      <point x="102.71" y="327.537" type="curve" smooth="yes"/>
      <point x="108.619" y="327.822"/>
      <point x="114.495" y="325.224"/>
      <point x="120.338" y="319.745" type="curve" smooth="yes"/>
      <point x="207.957" y="237.5732" type="line" smooth="yes"/>
      <point x="210.137" y="235.4255"/>
      <point x="211.485" y="233.96161"/>
      <point x="212.003" y="233.1816" type="curve" smooth="yes"/>
      <point x="216.285" y="227.362"/>
      <point x="217.863" y="221.0892"/>
      <point x="216.734" y="214.3633" type="curve" smooth="yes"/>
      <point x="215.462" y="206.08919"/>
      <point x="212.121" y="200.52637"/>
      <point x="206.711" y="197.6748" type="curve" smooth="yes"/>
      <point x="200.121" y="194.52637"/>
      <point x="190.438" y="190.88965"/>
      <point x="177.661" y="186.7646" type="curve"/>
      <point x="188.638" y="156.08951"/>
      <point x="206.678" y="130.1243"/>
      <point x="231.78" y="108.8691" type="curve" smooth="yes"/>
      <point x="257.078" y="87.524"/>
      <point x="285.868" y="73.942"/>
      <point x="318.15" y="68.123" type="curve"/>
      <point x="318.047" y="360.352" type="line"/>
      <point x="249.927" y="360.352" type="line" smooth="yes"/>
      <point x="242.727" y="360.352"/>
      <point x="236.427" y="362.752"/>
      <point x="231.026" y="367.552" type="curve" smooth="yes"/>
      <point x="225.627" y="372.352"/>
      <point x="222.927" y="377.752"/>
      <point x="222.927" y="383.752" type="curve" smooth="yes"/>
      <point x="222.927" y="389.752"/>
      <point x="225.627" y="395.15198"/>
      <point x="231.026" y="399.952" type="curve" smooth="yes"/>
      <point x="235.826" y="404.15198"/>
      <point x="242.127" y="406.252"/>
      <point x="249.927" y="406.252" type="curve" smooth="yes"/>
      <point x="318.031" y="406.252" type="line"/>
      <point x="318.013" y="457.696" type="line"/>
      <point x="302.022" y="464.2"/>
      <point x="289.18" y="474.813"/>
      <point x="279.487" y="489.536" type="curve" smooth="yes"/>
      <point x="269.38" y="504.213"/>
      <point x="264.441" y="520.249"/>
      <point x="264.67" y="537.643" type="curve" smooth="yes"/>
      <point x="264.441" y="561.649"/>
      <point x="272.924" y="582.131"/>
      <point x="290.121" y="599.08704" type="curve" smooth="yes"/>
      <point x="307.125" y="616.32996"/>
      <point x="327.579" y="624.808"/>
      <point x="351.484" y="624.52" type="curve" smooth="yes"/>
      <point x="375.579" y="624.808"/>
      <point x="396.063" y="616.336"/>
      <point x="412.936" y="599.104" type="curve" smooth="yes"/>
      <point x="429.663" y="582.136"/>
      <point x="438.134" y="561.653"/>
      <point x="438.349" y="537.655" type="curve" smooth="yes"/>
      <point x="438.134" y="519.653"/>
      <point x="433.293" y="503.568"/>
      <point x="423.827" y="489.4" type="curve" smooth="yes"/>
      <point x="414.093" y="474.768"/>
      <point x="401.357" y="464.2"/>
      <point x="385.617" y="457.696" type="curve"/>
      <point x="385.6" y="406.252" type="line"/>
    </contour>
  </outline>
</glyph>
<glyph name="pap" format="2">
  <advance width="700"/>
  <unicode hex="F00B"/>
  <outline>
    <contour>
      <point x="202.993" y="204.74219" type="line"/>
      <point x="206.48" y="286.5146" type="line"/>
      <point x="204.838" y="292.04102" type="line"/>
      <point x="199.057" y="294.3594" type="line"/>
      <point x="205.662" y="296.6914" type="line"/>
      <point x="209.272" y="302.285" type="line"/>
      <point x="234.139" y="386.25" type="line"/>
      <point x="233.96" y="391.958" type="line"/>
      <point x="229.214" y="395.686" type="line"/>
      <point x="235.841" y="396.139" type="line"/>
      <point x="240.505" y="400.399" type="line"/>
      <point x="286.46" y="468.619" type="line"/>
      <point x="288.26" y="473.818" type="line"/>
      <point x="285.728" y="479.283" type="line"/>
      <point x="291.24" y="476.733" type="line"/>
      <point x="296.474" y="478.41" type="line"/>
      <point x="358.476" y="514.29004" type="line"/>
      <point x="362.396" y="517.864" type="line"/>
      <point x="363.759" y="524.298" type="line"/>
      <point x="365.904" y="518.676" type="line"/>
      <point x="370.186" y="517" type="line"/>
      <point x="431.436" y="510.296" type="line"/>
      <point x="436.424" y="510.885" type="line"/>
      <point x="441.608" y="515.649" type="line"/>
      <point x="439.329" y="509.304" type="line"/>
      <point x="441.149" y="505.012" type="line"/>
      <point x="481.53" y="457.531" type="line"/>
      <point x="485.68" y="454.819" type="line"/>
      <point x="492.281" y="456.168" type="line"/>
      <point x="487.035" y="451.373" type="line"/>
      <point x="486.098" y="445.93" type="line"/>
      <point x="496.428" y="370.814" type="line"/>
      <point x="498.89" y="365.89502" type="line"/>
      <point x="505.086" y="364.514" type="line"/>
      <point x="498.711" y="361.46002" type="line"/>
      <point x="495.821" y="355.77698" type="line"/>
      <point x="481.801" y="269.2324" type="line"/>
      <point x="482.887" y="263.5166" type="line"/>
      <point x="488.33" y="260.6533" type="line"/>
      <point x="481.651" y="258.9717" type="line"/>
      <point x="477.605" y="253.8066" type="line"/>
      <point x="444.284" y="175.9824" type="line"/>
      <point x="443.656" y="170.5166" type="line"/>
      <point x="447.58" y="166.0234" type="line"/>
      <point x="441.286" y="166.9111" type="line"/>
      <point x="436.298" y="163.8389" type="line"/>
      <point x="381.949" y="111.9307" type="line"/>
      <point x="378.91" y="107.416" type="line"/>
      <point x="379.471" y="101.1729" type="line"/>
      <point x="375.464" y="105.5264" type="line" smooth="yes"/>
      <point x="373.719" y="106.4007"/>
      <point x="372.032" y="106.4245"/>
      <point x="370.401" y="105.5977" type="curve" smooth="yes"/>
      <point x="304.739" y="91.548" type="line"/>
      <point x="299.842" y="89.334" type="line"/>
      <point x="296.321" y="83.369" type="line"/>
      <point x="296.348" y="89.729" type="line"/>
      <point x="293.055" y="92.869" type="line"/>
      <point x="238.601" y="121.0107" type="line"/>
      <point x="233.771" y="121.9941" type="line"/>
      <point x="227.616" y="118.7168" type="line"/>
      <point x="231.515" y="124.5107" type="line"/>
      <point x="231.04" y="129.44629" type="line"/>
      <point x="204.879" y="191.3164" type="line"/>
      <point x="201.54" y="195.2041" type="line"/>
      <point x="195.023" y="195.31836" type="line"/>
      <point x="200.982" y="199.18066" type="line"/>
    </contour>
    <contour>
      <point x="144.128" y="236.95801" type="line"/>
      <point x="145.139" y="197.86523" type="line"/>
      <point x="104.528" y="188.0791" type="line"/>
      <point x="106.368" y="232.1582" type="line"/>
    </contour>
    <contour>
      <point x="144.128" y="236.95801" type="line"/>
      <point x="148.341" y="276.7656" type="line"/>
      <point x="187.713" y="278.123" type="line"/>
      <point x="186.159" y="242.3008" type="line"/>
    </contour>
    <contour>
      <point x="160.483" y="128.2139" type="line"/>
      <point x="179.081" y="96.597" type="line"/>
      <point x="144.177" y="69.677" type="line"/>
      <point x="126.897" y="110.0889" type="line"/>
    </contour>
    <contour>
      <point x="160.483" y="128.2139" type="line"/>
      <point x="150.048" y="164.3359" type="line"/>
      <point x="188.723" y="178.459" type="line"/>
      <point x="200.787" y="149.9648" type="line"/>
    </contour>
    <contour>
      <point x="97.7891" y="166.1562" type="line"/>
      <point x="95.3561" y="165.42639"/>
      <point x="93.4264" y="163.7995"/>
      <point x="92" y="161.27539" type="curve" smooth="yes"/>
      <point x="90.5801" y="153.4033" type="line"/>
      <point x="135.398" y="49.675003" type="line"/>
      <point x="142.304" y="45.865997" type="line"/>
      <point x="149.284" y="48.061996" type="line"/>
      <point x="146.369" y="41.229004" type="line"/>
      <point x="149.428" y="34.024994" type="line"/>
      <point x="254.928" y="-19.755005" type="line"/>
      <point x="263.705" y="-18.332" type="line"/>
      <point x="268.742" y="-12.641998" type="line"/>
      <point x="270.354" y="-19.145996" type="line"/>
      <point x="277.658" y="-22.334" type="line"/>
      <point x="339.791" y="-9.052002" type="line"/>
      <point x="342.486" y="-8.848007" type="line"/>
      <point x="342.47" y="-8.479004" type="line"/>
      <point x="407.242" y="5.3670044" type="line"/>
      <point x="414.116" y="11.643997" type="line"/>
      <point x="415.039" y="18.598007" type="line"/>
      <point x="420.558" y="15.110992" type="line"/>
      <point x="429.116" y="17.365997" type="line"/>
      <point x="527.787" y="110.5469" type="line"/>
      <point x="530.396" y="118.627" type="line"/>
      <point x="527.24" y="124.1357" type="line"/>
      <point x="534.25" y="124.3838" type="line"/>
      <point x="540.738" y="130.2305" type="line"/>
      <point x="588.647" y="240.7422" type="line"/>
      <point x="588.076" y="248.0059" type="line"/>
      <point x="582.872" y="251.4658" type="line"/>
      <point x="589.72" y="253.8213" type="line"/>
      <point x="594.02" y="260.4873" type="line"/>
      <point x="611.463" y="368.722" type="line"/>
      <point x="609.187" y="375.435" type="line"/>
      <point x="603.1" y="377.517" type="line"/>
      <point x="609.487" y="381.328" type="line"/>
      <point x="612.268" y="388.693" type="line"/>
      <point x="596.554" y="498.726" type="line"/>
      <point x="591.572" y="504.253" type="line"/>
      <point x="584.645" y="503.995" type="line"/>
      <point x="589.424" y="509.891" type="line"/>
      <point x="589.032" y="517.81104" type="line"/>
      <point x="514.444" y="604.56604" type="line"/>
      <point x="506.264" y="606.133" type="line"/>
      <point x="499.817" y="602.175" type="line"/>
      <point x="500.685" y="609.24097" type="line"/>
      <point x="495.284" y="614.975" type="line"/>
      <point x="438.187" y="621.407" type="line"/>
      <point x="432.132" y="623.084" type="line"/>
      <point x="431.859" y="622.12" type="line"/>
      <point x="369.159" y="629.18396" type="line"/>
      <point x="360.761" y="624.938" type="line"/>
      <point x="357.66" y="618.203" type="line"/>
      <point x="353.699" y="623.36304" type="line"/>
      <point x="345.077" y="623.60803" type="line"/>
      <point x="226.276" y="555.79504" type="line"/>
      <point x="221.574" y="548.121" type="line"/>
      <point x="222.991" y="541.68604" type="line"/>
      <point x="216.38" y="543.12" type="line"/>
      <point x="208.712" y="538.628" type="line"/>
      <point x="137.119" y="433.43298" type="line"/>
      <point x="136.223" y="425.68298" type="line"/>
      <point x="140.53" y="421.16998" type="line"/>
      <point x="133.526" y="419.832" type="line"/>
      <point x="128.151" y="413.50598" type="line"/>
      <point x="95.5322" y="304.21" type="line"/>
      <point x="96.8613" y="297.3105" type="line"/>
      <point x="102.476" y="294.4707" type="line"/>
      <point x="95.7783" y="291.5479" type="line"/>
      <point x="92.0703" y="284.6494" type="line"/>
      <point x="87.7324" y="173.6553" type="line"/>
      <point x="91.2256" y="167.25" type="line"/>
    </contour>
    <contour>
      <point x="230.156" y="51.059998" type="line"/>
      <point x="265.996" y="39.203003" type="line"/>
      <point x="250.459" y="-0.47200012" type="line"/>
      <point x="210.053" y="20.233002" type="line"/>
    </contour>
    <contour>
      <point x="230.156" y="51.059998" type="line"/>
      <point x="200.599" y="72.699" type="line"/>
      <point x="229.58" y="103.2764" type="line"/>
      <point x="255.486" y="89.9" type="line"/>
    </contour>
    <contour>
      <point x="340.319" y="38.300995" type="line"/>
      <point x="379.976" y="52.349" type="line"/>
      <point x="391.195" y="15.841995" type="line"/>
      <point x="341.837" y="5.2859955" type="line"/>
    </contour>
    <contour>
      <point x="340.319" y="38.300995" type="line"/>
      <point x="300.157" y="35.28" type="line"/>
      <point x="307.466" y="73.825" type="line"/>
      <point x="338.383" y="80.438" type="line"/>
    </contour>
    <contour>
      <point x="447.576" y="96.955" type="line"/>
      <point x="475.771" y="129.8721" type="line"/>
      <point x="507.134" y="109.6406" type="line"/>
      <point x="469.791" y="74.204" type="line"/>
    </contour>
    <contour>
      <point x="447.576" y="96.955" type="line"/>
      <point x="413.194" y="70.535" type="line"/>
      <point x="395.523" y="101.4355" type="line"/>
      <point x="420.205" y="124.9863" type="line"/>
    </contour>
    <contour>
      <point x="516.149" y="199.28711" type="line"/>
      <point x="530.048" y="238.5703" type="line"/>
      <point x="568.73" y="233.1758" type="line"/>
      <point x="550.354" y="190.43457" type="line"/>
    </contour>
    <contour>
      <point x="516.149" y="199.28711" type="line"/>
      <point x="496.804" y="161.4912" type="line"/>
      <point x="463.171" y="175.8662" type="line"/>
      <point x="477.463" y="209.2998" type="line"/>
    </contour>
    <contour>
      <point x="548.021" y="313.591" type="line"/>
      <point x="552.623" y="353.42902" type="line"/>
      <point x="593.034" y="357.15" type="line"/>
      <point x="586.052" y="314.048" type="line"/>
    </contour>
    <contour>
      <point x="548.021" y="313.591" type="line"/>
      <point x="539.743" y="273.69238" type="line"/>
      <point x="500.992" y="276.0078" type="line"/>
      <point x="507.017" y="313.098" type="line"/>
    </contour>
    <contour>
      <point x="551.797" y="427.242" type="line"/>
      <point x="543.228" y="464.138" type="line"/>
      <point x="582.573" y="481.479" type="line"/>
      <point x="588.629" y="438.074" type="line"/>
    </contour>
    <contour>
      <point x="551.797" y="427.242" type="line"/>
      <point x="553.885" y="388.371" type="line"/>
      <point x="514.236" y="381.352" type="line"/>
      <point x="509.646" y="414.845" type="line"/>
    </contour>
    <contour>
      <point x="511.628" y="525.688" type="line"/>
      <point x="483.962" y="549.48596" type="line"/>
      <point x="511.459" y="583.847" type="line"/>
      <point x="540.082" y="550.401" type="line"/>
    </contour>
    <contour>
      <point x="511.628" y="525.688" type="line"/>
      <point x="530.976" y="494.592" type="line"/>
      <point x="495.14" y="472.84" type="line"/>
      <point x="476.276" y="494.986" type="line"/>
    </contour>
    <contour>
      <point x="418.582" y="575.052" type="line"/>
      <point x="378.594" y="573.449" type="line"/>
      <point x="380.394" y="613.687" type="line"/>
      <point x="427.982" y="608.374" type="line"/>
    </contour>
    <contour>
      <point x="418.582" y="575.052" type="line"/>
      <point x="455.184" y="564.903" type="line"/>
      <point x="435.433" y="528.85803" type="line"/>
      <point x="406.445" y="532.027" type="line"/>
    </contour>
    <contour>
      <point x="304.086" y="548.461" type="line"/>
      <point x="269.154" y="522.81396" type="line"/>
      <point x="245.73" y="551.544" type="line"/>
      <point x="290.558" y="577.273" type="line"/>
    </contour>
    <contour>
      <point x="304.086" y="548.461" type="line"/>
      <point x="343.077" y="565.21204" type="line"/>
      <point x="349.673" y="528.95996" type="line"/>
      <point x="321.016" y="512.40796" type="line"/>
    </contour>
    <contour>
      <point x="214.607" y="462.262" type="line"/>
      <point x="193.495" y="425.148" type="line"/>
      <point x="157.648" y="437.832" type="line"/>
      <point x="185.025" y="478.291" type="line"/>
    </contour>
    <contour>
      <point x="214.607" y="462.262" type="line"/>
      <point x="241.592" y="496.105" type="line"/>
      <point x="269.188" y="473.548" type="line"/>
      <point x="249.023" y="443.613" type="line"/>
    </contour>
    <contour>
      <point x="164.132" y="351.896" type="line"/>
      <point x="154.528" y="312.066" type="line"/>
      <point x="114.883" y="313.393" type="line"/>
      <point x="127.592" y="356.253" type="line"/>
    </contour>
    <contour>
      <point x="164.132" y="351.896" type="line"/>
      <point x="178.059" y="391.176" type="line"/>
      <point x="214.756" y="382.78" type="line"/>
      <point x="204.219" y="347.114" type="line"/>
    </contour>
  </outline>
</glyph>
<glyph name="openeye" format="2">
  <advance width="700"/>
  <unicode hex="F00C"/>
  <outline>
    <contour>
      <point x="528.532" y="406.047" type="curve" smooth="yes"/>
      <point x="584.116" y="376.078"/>
      <point x="629.418" y="334.55902"/>
      <point x="664.438" y="281.4902" type="curve" smooth="yes"/>
      <point x="668.069" y="276" type="line"/>
      <point x="664.443" y="270.5605" type="line" smooth="yes"/>
      <point x="629.427" y="217.4707"/>
      <point x="584.125" y="175.9382"/>
      <point x="528.538" y="145.96289" type="curve" smooth="yes"/>
      <point x="472.951" y="115.9876"/>
      <point x="413.45" y="101"/>
      <point x="350.035" y="101" type="curve" smooth="yes"/>
      <point x="286.61" y="101"/>
      <point x="227.098" y="115.9857"/>
      <point x="171.498" y="145.957" type="curve" smooth="yes"/>
      <point x="115.898" y="175.9284"/>
      <point x="70.584" y="217.4525"/>
      <point x="35.5566" y="270.5293" type="curve" smooth="yes"/>
      <point x="31.9307" y="276" type="line"/>
      <point x="35.5566" y="281.4902" type="line" smooth="yes"/>
      <point x="70.6178" y="334.561"/>
      <point x="115.947" y="376.08002"/>
      <point x="171.544" y="406.048" type="curve" smooth="yes"/>
      <point x="227.14" y="436.016"/>
      <point x="286.639" y="451"/>
      <point x="350.041" y="451" type="curve" smooth="yes"/>
      <point x="413.451" y="451"/>
      <point x="472.948" y="436.016"/>
    </contour>
    <contour>
      <point x="163.823" y="364.708" type="curve" smooth="yes"/>
      <point x="127.223" y="341.233"/>
      <point x="96.0534" y="311.664"/>
      <point x="70.3145" y="276" type="curve"/>
      <point x="96.306" y="239.9922"/>
      <point x="127.83" y="210.2018"/>
      <point x="164.888" y="186.6289" type="curve" smooth="yes"/>
      <point x="201.944" y="163.0573"/>
      <point x="242.029" y="147.1562"/>
      <point x="285.143" y="138.9258" type="curve"/>
      <point x="269.71" y="146.388"/>
      <point x="255.917" y="156.16339"/>
      <point x="243.763" y="168.252" type="curve" smooth="yes"/>
      <point x="229.646" y="182.2819"/>
      <point x="218.647" y="198.57617"/>
      <point x="210.765" y="217.1348" type="curve" smooth="yes"/>
      <point x="202.882" y="235.694"/>
      <point x="198.94" y="255.3118"/>
      <point x="198.94" y="275.98828" type="curve" smooth="yes"/>
      <point x="198.94" y="276.1914"/>
      <point x="198.94" y="276.1914"/>
      <point x="198.94" y="276.3945" type="curve" smooth="yes"/>
      <point x="198.94" y="296.8027"/>
      <point x="202.799" y="316.312"/>
      <point x="210.515" y="334.923" type="curve" smooth="yes"/>
      <point x="218.231" y="353.534"/>
      <point x="229.313" y="370.05902"/>
      <point x="243.763" y="384.499" type="curve" smooth="yes"/>
      <point x="255.233" y="395.939"/>
      <point x="268.197" y="405.312"/>
      <point x="282.655" y="412.616" type="curve"/>
      <point x="240.034" y="404.153"/>
      <point x="200.424" y="388.18298"/>
    </contour>
    <contour>
      <point x="284.897" y="209.37012" type="curve" smooth="yes"/>
      <point x="303.343" y="190.91438"/>
      <point x="325.581" y="181.6865"/>
      <point x="351.612" y="181.6865" type="curve" smooth="yes"/>
      <point x="351.647" y="181.738"/>
      <point x="351.689" y="181.76111"/>
      <point x="351.736" y="181.7559" type="curve" smooth="yes"/>
      <point x="377.796" y="181.7513"/>
      <point x="400.011" y="190.96289"/>
      <point x="418.381" y="209.39063" type="curve" smooth="yes"/>
      <point x="436.786" y="227.8092"/>
      <point x="445.989" y="250.057"/>
      <point x="445.989" y="276.1338" type="curve" smooth="yes"/>
      <point x="445.989" y="276.1579"/>
      <point x="445.992" y="276.195"/>
      <point x="445.996" y="276.24512" type="curve" smooth="yes"/>
      <point x="446.001" y="302.3"/>
      <point x="436.789" y="324.50702"/>
      <point x="418.362" y="342.864" type="curve" smooth="yes"/>
      <point x="399.91" y="361.26898"/>
      <point x="377.659" y="370.472"/>
      <point x="351.606" y="370.472" type="curve" smooth="yes"/>
      <point x="351.435" y="370.48102"/>
      <point x="351.332" y="370.486"/>
      <point x="351.298" y="370.486" type="curve" smooth="yes"/>
      <point x="325.33" y="370.486"/>
      <point x="303.177" y="361.272"/>
      <point x="284.838" y="342.845" type="curve" smooth="yes"/>
      <point x="266.432" y="324.34"/>
      <point x="257.229" y="302.088"/>
      <point x="257.229" y="276.0889" type="curve" smooth="yes"/>
      <point x="257.229" y="250.0654"/>
      <point x="266.452" y="227.8258"/>
    </contour>
    <contour>
      <point x="459.972" y="168.3086" type="curve" smooth="yes"/>
      <point x="448.477" y="156.8177"/>
      <point x="435.479" y="147.4033"/>
      <point x="420.977" y="140.0654" type="curve"/>
      <point x="462.878" y="148.8519"/>
      <point x="501.799" y="164.91501"/>
      <point x="537.739" y="188.2549" type="curve" smooth="yes"/>
      <point x="573.68" y="211.5947"/>
      <point x="604.335" y="240.84311"/>
      <point x="629.704" y="276" type="curve"/>
      <point x="604.549" y="310.891"/>
      <point x="574.177" y="339.975"/>
      <point x="538.591" y="363.252" type="curve" smooth="yes"/>
      <point x="503.004" y="386.529"/>
      <point x="464.465" y="402.655"/>
      <point x="422.974" y="411.63" type="curve"/>
      <point x="447.672" y="398.604"/>
      <point x="467.477" y="380.025"/>
      <point x="482.388" y="355.891" type="curve" smooth="yes"/>
      <point x="497.299" y="331.75702"/>
      <point x="504.755" y="305.277"/>
      <point x="504.755" y="276.4512" type="curve" smooth="yes"/>
      <point x="504.771" y="276.2266"/>
      <point x="504.778" y="276.0924"/>
      <point x="504.778" y="276.0488" type="curve" smooth="yes"/>
      <point x="504.778" y="255.3789"/>
      <point x="500.838" y="235.7656"/>
      <point x="492.957" y="217.209" type="curve" smooth="yes"/>
      <point x="485.076" y="198.65234"/>
      <point x="474.081" y="182.3522"/>
    </contour>
    <contour>
      <point x="340.876" y="279.8672" type="curve" smooth="yes"/>
      <point x="334.816" y="273.8118"/>
      <point x="327.466" y="270.7842"/>
      <point x="318.826" y="270.7842" type="curve" smooth="yes"/>
      <point x="310.186" y="270.7842"/>
      <point x="302.833" y="273.8118"/>
      <point x="296.766" y="279.8672" type="curve" smooth="yes"/>
      <point x="290.699" y="285.9225"/>
      <point x="287.645" y="293.2956"/>
      <point x="287.604" y="301.986" type="curve" smooth="yes"/>
      <point x="287.645" y="310.562"/>
      <point x="290.698" y="317.904"/>
      <point x="296.763" y="324.013" type="curve" smooth="yes"/>
      <point x="302.828" y="330.121"/>
      <point x="310.18" y="333.176"/>
      <point x="318.82" y="333.176" type="curve" smooth="yes"/>
      <point x="327.447" y="333.176"/>
      <point x="334.795" y="330.121"/>
      <point x="340.862" y="324.013" type="curve" smooth="yes"/>
      <point x="346.931" y="317.904"/>
      <point x="349.994" y="310.555"/>
      <point x="350.054" y="301.967" type="curve" smooth="yes"/>
      <point x="349.994" y="293.2891"/>
      <point x="346.935" y="285.9225"/>
    </contour>
  </outline>
</glyph>
<glyph name="closedeye" format="2">
  <advance width="700"/>
  <unicode hex="F00D"/>
  <outline>
    <contour>
      <point x="697.695" y="316" type="line"/>
      <point x="697.695" y="279" type="line"/>
      <point x="641.157" y="279" type="line"/>
      <point x="616.071" y="248.2467"/>
      <point x="587.148" y="222.3021"/>
      <point x="554.388" y="201.16602" type="curve"/>
      <point x="590.514" y="165.04001" type="line"/>
      <point x="564.351" y="138.877" type="line"/>
      <point x="521.182" y="182.0449" type="line"/>
      <point x="473.385" y="157.5501"/>
      <point x="422.622" y="144.0189"/>
      <point x="368.891" y="141.4512" type="curve"/>
      <point x="368.891" y="82" type="line"/>
      <point x="331.891" y="82" type="line"/>
      <point x="331.891" y="141.4111" type="line"/>
      <point x="278.292" y="143.8727"/>
      <point x="227.506" y="157.3952"/>
      <point x="179.531" y="181.9785" type="curve"/>
      <point x="136.43" y="138.877" type="line"/>
      <point x="110.268" y="165.04001" type="line"/>
      <point x="146.381" y="201.15332" type="line"/>
      <point x="113.021" y="222.6826"/>
      <point x="83.8607" y="248.6315"/>
      <point x="58.9004" y="279" type="curve"/>
      <point x="2.30469" y="279" type="line"/>
      <point x="2.30469" y="316" type="line"/>
      <point x="70.3047" y="316" type="line"/>
      <point x="96.0286" y="280"/>
      <point x="128.057" y="249.8333"/>
      <point x="166.391" y="225.5" type="curve" smooth="yes"/>
      <point x="204.724" y="201.16667"/>
      <point x="244.305" y="185.6419"/>
      <point x="285.133" y="178.9258" type="curve" smooth="yes"/>
      <point x="304.971" y="175.6419"/>
      <point x="326.891" y="174"/>
      <point x="350.891" y="174" type="curve" smooth="yes"/>
      <point x="376.891" y="174"/>
      <point x="400.25" y="176.0218"/>
      <point x="420.968" y="180.0654" type="curve" smooth="yes"/>
      <point x="465.583" y="190.0218"/>
      <point x="504.504" y="206.08496"/>
      <point x="537.73" y="228.2549" type="curve" smooth="yes"/>
      <point x="573.837" y="251.4183"/>
      <point x="604.492" y="280.6667"/>
      <point x="629.695" y="316" type="curve"/>
    </contour>
  </outline>
</glyph>
<glyph name="minus" format="2">
  <advance width="576"/>
  <unicode hex="F00E"/>
  <outline>
    <contour>
      <point x="474.25" y="279.75" type="line"/>
      <point x="474.25" y="332.25" type="line"/>
      <point x="101.75" y="332.25" type="line"/>
      <point x="101.75" y="279.75" type="line"/>
    </contour>
  </outline>
</glyph>
<glyph name="plus" format="2">
  <advance width="576"/>
  <unicode hex="F00F"/>
  <outline>
    <contour>
      <point x="474.25" y="279.75" type="line"/>
      <point x="474.25" y="332.25" type="line"/>
      <point x="314.25" y="332.25" type="line"/>
      <point x="314.25" y="492.25" type="line"/>
      <point x="261.75" y="492.25" type="line"/>
      <point x="261.75" y="332.25" type="line"/>
      <point x="101.75" y="332.25" type="line"/>
      <point x="101.75" y="279.75" type="line"/>
      <point x="261.75" y="279.75" type="line"/>
      <point x="261.75" y="119.75" type="line"/>
      <point x="314.25" y="119.75" type="line"/>
      <point x="314.25" y="279.75" type="line"/>
    </contour>
  </outline>
</glyph>
<glyph name="left" format="2">
  <advance width="576"/>
  <unicode hex="F010"/>
  <outline>
    <contour>
      <point x="501.75" y="332.25" type="line"/>
      <point x="501.75" y="279.75" type="line"/>
      <point x="176.75" y="279.75" type="line"/>
      <point x="325.5" y="129.75" type="line"/>
      <point x="288" y="92.25" type="line"/>
      <point x="74.25" y="306" type="line"/>
      <point x="288" y="519.75" type="line"/>
      <point x="325.5" y="482.25" type="line"/>
      <point x="176.75" y="332.25" type="line"/>
    </contour>
  </outline>
</glyph>
<glyph name="down" format="2">
  <advance width="576" height="576"/>
  <unicode hex="F011"/>
  <outline>
    <contour>
      <point x="501.75" y="106" type="line"/>
      <point x="288" y="-107.75" type="line"/>
      <point x="74.25" y="106" type="line"/>
      <point x="113" y="143.5" type="line"/>
      <point x="261.75" y="-5.25" type="line"/>
      <point x="261.75" y="319.75" type="line"/>
      <point x="314.25" y="319.75" type="line"/>
      <point x="314.25" y="-5.25" type="line"/>
      <point x="464.25" y="143.5" type="line"/>
    </contour>
  </outline>
</glyph>
<glyph name="up" format="2">
  <advance width="576"/>
  <unicode hex="F012"/>
  <outline>
    <contour>
      <point x="74.25" y="306" type="line"/>
      <point x="288" y="519.75" type="line"/>
      <point x="501.75" y="306" type="line"/>
      <point x="463" y="268.5" type="line"/>
      <point x="314.25" y="417.25" type="line"/>
      <point x="314.25" y="92.25" type="line"/>
      <point x="261.75" y="92.25" type="line"/>
      <point x="261.75" y="417.25" type="line"/>
      <point x="111.75" y="268.5" type="line"/>
    </contour>
  </outline>
</glyph>
<glyph name="right" format="2">
  <advance width="576"/>
  <unicode hex="F014"/>
  <outline>
    <contour>
      <point x="288" y="519.75" type="line"/>
      <point x="501.75" y="306" type="line"/>
      <point x="288" y="92.25" type="line"/>
      <point x="250.5" y="129.75" type="line"/>
      <point x="399.25" y="279.75" type="line"/>
      <point x="74.25" y="279.75" type="line"/>
      <point x="74.25" y="332.25" type="line"/>
      <point x="399.25" y="332.25" type="line"/>
      <point x="250.5" y="482.25" type="line"/>
    </contour>
  </outline>
</glyph>
<glyph name="rename" format="2">
  <advance width="789"/>
  <unicode hex="F015"/>
  <outline>
    <contour>
      <point x="245.945" y="194.84473" type="line"/>
      <point x="146.702" y="194.84473" type="line"/>
      <point x="130.955" y="145.04001" type="line"/>
      <point x="67.2344" y="145.04001" type="line"/>
      <point x="158.421" y="418.41602" type="line"/>
      <point x="234.043" y="418.41602" type="line"/>
      <point x="325.23" y="145.04001" type="line"/>
      <point x="261.326" y="145.04001" type="line"/>
    </contour>
    <contour>
      <point x="162.449" y="245.5645" type="line"/>
      <point x="229.832" y="245.5645" type="line"/>
      <point x="196.324" y="354.32898" type="line"/>
    </contour>
    <contour>
      <point x="413.09" y="202.80957" type="curve" smooth="yes"/>
      <point x="419.865" y="192.49448"/>
      <point x="429.539" y="187.3369"/>
      <point x="442.112" y="187.3369" type="curve" smooth="yes"/>
      <point x="454.808" y="187.3369"/>
      <point x="464.482" y="192.46387"/>
      <point x="471.135" y="202.71777" type="curve" smooth="yes"/>
      <point x="477.787" y="212.9717"/>
      <point x="481.113" y="227.8643"/>
      <point x="481.113" y="247.39551" type="curve" smooth="yes"/>
      <point x="481.113" y="266.92682"/>
      <point x="477.787" y="281.8193"/>
      <point x="471.135" y="292.07318" type="curve" smooth="yes"/>
      <point x="464.482" y="302.327"/>
      <point x="454.808" y="307.454"/>
      <point x="442.112" y="307.454" type="curve" smooth="yes"/>
      <point x="429.539" y="307.454"/>
      <point x="419.865" y="302.297"/>
      <point x="413.09" y="291.9824" type="curve" smooth="yes"/>
      <point x="406.315" y="281.6673"/>
      <point x="402.928" y="266.805"/>
      <point x="402.928" y="247.39551" type="curve" smooth="yes"/>
      <point x="402.928" y="227.9867"/>
      <point x="406.315" y="213.1247"/>
    </contour>
    <contour>
      <point x="402.928" y="320.089" type="line"/>
      <point x="411.106" y="332.052"/>
      <point x="420.139" y="340.871"/>
      <point x="430.027" y="346.547" type="curve" smooth="yes"/>
      <point x="439.915" y="352.22302"/>
      <point x="451.268" y="355.062"/>
      <point x="464.085" y="355.062" type="curve" smooth="yes"/>
      <point x="486.79" y="355.062"/>
      <point x="505.467" y="345.021"/>
      <point x="520.115" y="324.941" type="curve" smooth="yes"/>
      <point x="534.764" y="304.861"/>
      <point x="542.088" y="279.012"/>
      <point x="542.088" y="247.39551" type="curve" smooth="yes"/>
      <point x="542.088" y="215.7796"/>
      <point x="534.764" y="189.9313"/>
      <point x="520.115" y="169.8506" type="curve" smooth="yes"/>
      <point x="505.467" y="149.7699"/>
      <point x="486.79" y="139.72949"/>
      <point x="464.085" y="139.72949" type="curve" smooth="yes"/>
      <point x="451.268" y="139.72949"/>
      <point x="439.915" y="142.5677"/>
      <point x="430.027" y="148.2441" type="curve" smooth="yes"/>
      <point x="420.139" y="153.9206"/>
      <point x="411.106" y="162.7402"/>
      <point x="402.928" y="174.7031" type="curve"/>
      <point x="402.928" y="145.04001" type="line"/>
      <point x="343.968" y="145.04001" type="line"/>
      <point x="343.968" y="429.952" type="line"/>
      <point x="402.928" y="429.952" type="line"/>
    </contour>
    <contour>
      <point x="693.75" y="352.224" type="curve" smooth="yes"/>
      <point x="703.307" y="349.935"/>
      <point x="712.646" y="347.096"/>
      <point x="721.766" y="343.70898" type="curve"/>
      <point x="721.766" y="290.2422" type="line"/>
      <point x="713.479" y="295.9408"/>
      <point x="705.453" y="300.457"/>
      <point x="697.688" y="303.792" type="curve" smooth="yes"/>
      <point x="689.62" y="307.124"/>
      <point x="681.227" y="308.589"/>
      <point x="672.51" y="308.187" type="curve" smooth="yes"/>
      <point x="656.227" y="308.589"/>
      <point x="643.41" y="303.248"/>
      <point x="634.059" y="292.165" type="curve" smooth="yes"/>
      <point x="625.077" y="281.5817"/>
      <point x="620.499" y="266.6585"/>
      <point x="620.325" y="247.39551" type="curve" smooth="yes"/>
      <point x="620.499" y="228.3252"/>
      <point x="625.077" y="213.4023"/>
      <point x="634.059" y="202.62695" type="curve" smooth="yes"/>
      <point x="643.41" y="191.73569"/>
      <point x="656.227" y="186.3949"/>
      <point x="672.51" y="186.60449" type="curve" smooth="yes"/>
      <point x="682.061" y="186.3949"/>
      <point x="690.85" y="187.9209"/>
      <point x="698.877" y="191.18262" type="curve" smooth="yes"/>
      <point x="707.516" y="194.58757"/>
      <point x="715.146" y="199.10417"/>
      <point x="721.766" y="204.73242" type="curve"/>
      <point x="721.766" y="151.082" type="line"/>
      <point x="712.646" y="147.054"/>
      <point x="703.307" y="144.2161"/>
      <point x="693.75" y="142.5684" type="curve" smooth="yes"/>
      <point x="684.141" y="140.8828"/>
      <point x="674.619" y="139.9365"/>
      <point x="665.186" y="139.72949" type="curve" smooth="yes"/>
      <point x="632.119" y="139.9365"/>
      <point x="606.057" y="149.4277"/>
      <point x="587" y="168.2031" type="curve" smooth="yes"/>
      <point x="568.557" y="186.9277"/>
      <point x="559.158" y="213.3252"/>
      <point x="558.802" y="247.39551" type="curve" smooth="yes"/>
      <point x="559.158" y="280.8252"/>
      <point x="568.557" y="307.223"/>
      <point x="587" y="326.589" type="curve" smooth="yes"/>
      <point x="606.057" y="345.556"/>
      <point x="632.119" y="355.047"/>
      <point x="665.186" y="355.062" type="curve" smooth="yes"/>
      <point x="674.619" y="355.047"/>
      <point x="684.141" y="354.101"/>
    </contour>
  </outline>
</glyph>
<glyph name="union" format="2">
  <advance width="700"/>
  <unicode hex="F016"/>
  <outline>
    <contour>
      <point x="247.669" y="460.947" type="curve" smooth="yes"/>
      <point x="247.035" y="460.955"/>
      <point x="246.56" y="460.959"/>
      <point x="246.243" y="460.959" type="curve" smooth="yes"/>
      <point x="222.698" y="460.959"/>
      <point x="199.932" y="456.298"/>
      <point x="177.946" y="446.977" type="curve" smooth="yes"/>
      <point x="155.962" y="437.655"/>
      <point x="136.369" y="424.74298"/>
      <point x="119.167" y="408.241" type="curve" smooth="yes"/>
      <point x="105.438" y="395.07098"/>
      <point x="93.9391" y="380.21698"/>
      <point x="84.6709" y="363.68" type="curve" smooth="yes"/>
      <point x="75.4027" y="347.142"/>
      <point x="69.0286" y="329.643"/>
      <point x="65.5488" y="311.18298" type="curve" smooth="yes"/>
      <point x="62.8516" y="298.9945"/>
      <point x="61.5029" y="286.5423"/>
      <point x="61.5029" y="273.8262" type="curve" smooth="yes"/>
      <point x="61.5029" y="254.3561"/>
      <point x="64.5654" y="235.2415"/>
      <point x="70.6904" y="216.4824" type="curve" smooth="yes"/>
      <point x="76.8154" y="197.72331"/>
      <point x="85.557" y="180.3327"/>
      <point x="96.915" y="164.3105" type="curve" smooth="yes"/>
      <point x="115.876" y="137.5632"/>
      <point x="139.576" y="117.6051"/>
      <point x="168.015" y="104.4365" type="curve" smooth="yes"/>
      <point x="192.969" y="92.163"/>
      <point x="219.87" y="86.026"/>
      <point x="248.719" y="86.026" type="curve" smooth="yes"/>
      <point x="285.954" y="86.026"/>
      <point x="319.746" y="95.796"/>
      <point x="350.097" y="115.335" type="curve"/>
      <point x="379.955" y="95.889"/>
      <point x="413.563" y="86.166"/>
      <point x="450.921" y="86.166" type="curve" smooth="yes"/>
      <point x="473.573" y="86.166"/>
      <point x="495.544" y="90.018"/>
      <point x="516.833" y="97.722" type="curve" smooth="yes"/>
      <point x="538.122" y="105.4255"/>
      <point x="557.104" y="116.7487"/>
      <point x="573.777" y="131.6914" type="curve" smooth="yes"/>
      <point x="594.57" y="149.0885"/>
      <point x="610.554" y="170.4193"/>
      <point x="621.731" y="195.6836" type="curve" smooth="yes"/>
      <point x="632.909" y="220.9479"/>
      <point x="638.497" y="247.2594"/>
      <point x="638.497" y="274.6182" type="curve" smooth="yes"/>
      <point x="638.497" y="306.707"/>
      <point x="630.98" y="336.104"/>
      <point x="615.946" y="362.81" type="curve" smooth="yes"/>
      <point x="602.039" y="389.411"/>
      <point x="582.034" y="411.409"/>
      <point x="555.933" y="428.80298" type="curve" smooth="yes"/>
      <point x="523.59" y="450.354"/>
      <point x="488.375" y="461.13"/>
      <point x="450.289" y="461.13" type="curve" smooth="yes"/>
      <point x="434.133" y="461.13"/>
      <point x="418.465" y="459.001"/>
      <point x="403.282" y="454.742" type="curve" smooth="yes"/>
      <point x="384.389" y="449.768"/>
      <point x="366.686" y="442.00702"/>
      <point x="350.173" y="431.45898" type="curve"/>
      <point x="319.317" y="451.202"/>
      <point x="285.625" y="461.028"/>
      <point x="249.097" y="460.936" type="curve" smooth="yes"/>
      <point x="248.779" y="460.936"/>
      <point x="248.303" y="460.939"/>
    </contour>
    <contour>
      <point x="251.147" y="273.9375" type="curve"/>
      <point x="250.078" y="352.268"/>
      <point x="249.049" y="403.477"/>
      <point x="248.06" y="427.564" type="curve"/>
      <point x="248.242" y="427.563"/>
      <point x="248.395" y="427.562"/>
      <point x="248.52" y="427.562" type="curve" smooth="yes"/>
      <point x="250.582" y="427.562"/>
      <point x="252.632" y="427.526"/>
      <point x="254.668" y="427.45398" type="curve"/>
      <point x="253.697" y="403.215"/>
      <point x="252.707" y="352.049"/>
      <point x="251.696" y="273.957" type="curve" smooth="yes"/>
      <point x="251.696" y="273.9551"/>
      <point x="251.604" y="273.95178"/>
      <point x="251.421" y="273.9473" type="curve" smooth="yes"/>
      <point x="251.239" y="273.9427"/>
      <point x="251.147" y="273.9395"/>
    </contour>
    <contour>
      <point x="229.747" y="426.599" type="curve" smooth="yes"/>
      <point x="231.924" y="426.86"/>
      <point x="234.107" y="427.069"/>
      <point x="236.297" y="427.227" type="curve"/>
      <point x="235.324" y="403.074"/>
      <point x="234.326" y="352.188"/>
      <point x="233.306" y="274.5684" type="curve"/>
      <point x="232.239" y="351.764"/>
      <point x="231.053" y="402.44"/>
    </contour>
    <contour>
      <point x="210.948" y="423.012" type="curve" smooth="yes"/>
      <point x="213.215" y="423.607"/>
      <point x="215.487" y="424.14398"/>
      <point x="217.766" y="424.623" type="curve"/>
      <point x="217.471" y="418.10498"/>
      <point x="217.187" y="409.725"/>
      <point x="216.911" y="399.47998" type="curve" smooth="yes"/>
      <point x="216.336" y="378.091"/>
      <point x="215.601" y="336.565"/>
      <point x="214.707" y="274.9014" type="curve"/>
      <point x="213.64" y="350.224"/>
      <point x="212.387" y="399.594"/>
    </contour>
    <contour>
      <point x="192.544" y="416.844" type="curve" smooth="yes"/>
      <point x="194.682" y="417.71698"/>
      <point x="196.826" y="418.538"/>
      <point x="198.976" y="419.306" type="curve"/>
      <point x="198.7" y="413.068"/>
      <point x="198.435" y="405.147"/>
      <point x="198.181" y="395.543" type="curve" smooth="yes"/>
      <point x="197.634" y="374.85"/>
      <point x="196.954" y="334.734"/>
      <point x="196.141" y="275.1943" type="curve"/>
      <point x="195.068" y="347.82898"/>
      <point x="193.869" y="395.04602"/>
    </contour>
    <contour>
      <point x="173.266" y="407.424" type="curve" smooth="yes"/>
      <point x="175.643" y="408.78998"/>
      <point x="178.06" y="410.096"/>
      <point x="180.517" y="411.34302" type="curve"/>
      <point x="180.25" y="405.61798"/>
      <point x="179.989" y="398.543"/>
      <point x="179.734" y="390.11902" type="curve" smooth="yes"/>
      <point x="179.256" y="374.29102"/>
      <point x="178.308" y="326.13"/>
      <point x="176.892" y="245.6348" type="curve"/>
      <point x="176.784" y="252.2422"/>
      <point x="176.644" y="261.0124"/>
      <point x="176.472" y="271.9453" type="curve" smooth="yes"/>
      <point x="175.36" y="342.772"/>
      <point x="174.291" y="387.932"/>
    </contour>
    <contour>
      <point x="153.673" y="394.126" type="curve" smooth="yes"/>
      <point x="156.151" y="396.09302"/>
      <point x="158.68" y="397.982"/>
      <point x="161.262" y="399.79102" type="curve"/>
      <point x="161.02" y="394.797"/>
      <point x="160.78" y="388.827"/>
      <point x="160.544" y="381.88098" type="curve" smooth="yes"/>
      <point x="160.108" y="369.011"/>
      <point x="159.049" y="322.316"/>
      <point x="157.368" y="241.7969" type="curve"/>
      <point x="157.235" y="249.2018"/>
      <point x="157.069" y="258.70898"/>
      <point x="156.87" y="270.3184" type="curve" smooth="yes"/>
      <point x="155.761" y="335.029"/>
      <point x="154.696" y="376.299"/>
    </contour>
    <contour>
      <point x="136.113" y="377.95398" type="curve" smooth="yes"/>
      <point x="137.891" y="379.84"/>
      <point x="139.728" y="381.701"/>
      <point x="141.622" y="383.536" type="curve"/>
      <point x="141.466" y="379.78998"/>
      <point x="141.315" y="375.54498"/>
      <point x="141.171" y="370.802" type="curve" smooth="yes"/>
      <point x="140.664" y="354.216"/>
      <point x="140.063" y="322.372"/>
      <point x="139.367" y="275.2676" type="curve"/>
      <point x="138.347" y="327.736"/>
      <point x="137.262" y="361.965"/>
    </contour>
    <contour>
      <point x="117.019" y="353.201" type="curve" smooth="yes"/>
      <point x="119.025" y="356.452"/>
      <point x="121.173" y="359.643"/>
      <point x="123.462" y="362.773" type="curve"/>
      <point x="123.397" y="361.365"/>
      <point x="123.332" y="359.898"/>
      <point x="123.267" y="358.371" type="curve" smooth="yes"/>
      <point x="122.665" y="344.199"/>
      <point x="121.876" y="317.126"/>
      <point x="120.899" y="277.1514" type="curve" smooth="yes"/>
      <point x="120.876" y="276.23138"/>
      <point x="120.708" y="274.85352"/>
      <point x="120.396" y="273.0176" type="curve" smooth="yes"/>
      <point x="120.082" y="271.1816"/>
      <point x="119.914" y="269.806"/>
      <point x="119.892" y="268.8906" type="curve"/>
      <point x="119.217" y="296.832"/>
      <point x="118.682" y="316.364"/>
      <point x="118.285" y="327.487" type="curve" smooth="yes"/>
      <point x="117.929" y="337.466"/>
      <point x="117.562" y="345.264"/>
      <point x="117.185" y="350.88202" type="curve" smooth="yes"/>
      <point x="117.13" y="351.694"/>
      <point x="117.075" y="352.46698"/>
    </contour>
    <contour>
      <point x="99.6611" y="311.152" type="curve" smooth="yes"/>
      <point x="100.746" y="315.77"/>
      <point x="102.045" y="320.29498"/>
      <point x="103.56" y="324.728" type="curve"/>
      <point x="103.161" y="313.44"/>
      <point x="102.713" y="298.1152"/>
      <point x="102.216" y="278.752" type="curve"/>
      <point x="102.103" y="281.5749"/>
      <point x="101.799" y="285.3877"/>
      <point x="101.306" y="290.1904" type="curve" smooth="yes"/>
      <point x="100.813" y="294.9925"/>
      <point x="100.519" y="298.2721"/>
      <point x="100.421" y="300.029" type="curve" smooth="yes"/>
      <point x="100.174" y="304.458"/>
      <point x="99.9202" y="308.16602"/>
    </contour>
    <contour>
      <point x="113.177" y="201.45215" type="curve"/>
      <point x="111.483" y="204.66374"/>
      <point x="109.899" y="207.9349"/>
      <point x="108.423" y="211.2656" type="curve" smooth="yes"/>
      <point x="108.776" y="215.9238"/>
      <point x="109.11" y="222.2969"/>
      <point x="109.427" y="230.3848" type="curve" smooth="yes"/>
      <point x="109.785" y="239.51111"/>
      <point x="110.259" y="255.55789"/>
      <point x="110.849" y="278.5254" type="curve"/>
      <point x="110.876" y="277.4447"/>
      <point x="110.944" y="275.8092"/>
      <point x="111.054" y="273.6191" type="curve" smooth="yes"/>
      <point x="111.163" y="271.4303"/>
      <point x="111.231" y="269.7832"/>
      <point x="111.257" y="268.6777" type="curve" smooth="yes"/>
      <point x="112.012" y="237.36389"/>
      <point x="112.652" y="214.9554"/>
    </contour>
    <contour>
      <point x="133.009" y="172.1934" type="curve"/>
      <point x="130.708" y="174.8958"/>
      <point x="128.478" y="177.7018"/>
      <point x="126.317" y="180.6113" type="curve" smooth="yes"/>
      <point x="126.38" y="181.4818"/>
      <point x="126.442" y="182.40201"/>
      <point x="126.503" y="183.3721" type="curve" smooth="yes"/>
      <point x="126.907" y="189.7959"/>
      <point x="127.306" y="198.70313"/>
      <point x="127.702" y="210.0938" type="curve" smooth="yes"/>
      <point x="128.013" y="219.0534"/>
      <point x="128.781" y="247.6908"/>
      <point x="130.005" y="296.0059" type="curve"/>
      <point x="131.364" y="230.61"/>
      <point x="132.244" y="192.37827"/>
      <point x="132.646" y="181.3105" type="curve" smooth="yes"/>
      <point x="132.765" y="178.0163"/>
      <point x="132.886" y="174.9772"/>
    </contour>
    <contour>
      <point x="150.892" y="154.4453" type="curve"/>
      <point x="148.968" y="156.0495"/>
      <point x="147.082" y="157.7087"/>
      <point x="145.233" y="159.4229" type="curve" smooth="yes"/>
      <point x="146.188" y="176.2197"/>
      <point x="147.111" y="214.7913"/>
      <point x="148.003" y="275.1377" type="curve"/>
      <point x="148.012" y="274.5856"/>
      <point x="148.05" y="273.7572"/>
      <point x="148.118" y="272.65228" type="curve" smooth="yes"/>
      <point x="148.186" y="271.54822"/>
      <point x="148.225" y="270.7201"/>
      <point x="148.234" y="270.168" type="curve" smooth="yes"/>
      <point x="149.093" y="220.0866"/>
      <point x="149.803" y="186.2738"/>
      <point x="150.364" y="168.72949" type="curve" smooth="yes"/>
      <point x="150.536" y="163.3597"/>
      <point x="150.712" y="158.5983"/>
    </contour>
    <contour>
      <point x="170.712" y="140.6104" type="curve"/>
      <point x="168.112" y="142.1123"/>
      <point x="165.565" y="143.6927"/>
      <point x="163.071" y="145.3516" type="curve" smooth="yes"/>
      <point x="164.149" y="164.7233"/>
      <point x="165.352" y="207.96745"/>
      <point x="166.679" y="275.08398" type="curve" smooth="yes"/>
      <point x="166.933" y="287.8861"/>
      <point x="167.137" y="298.056"/>
      <point x="167.293" y="305.594" type="curve"/>
      <point x="168.671" y="223.0286"/>
      <point x="169.563" y="174.8717"/>
      <point x="169.968" y="161.123" type="curve" smooth="yes"/>
      <point x="170.208" y="152.9876"/>
      <point x="170.456" y="146.1501"/>
    </contour>
    <contour>
      <point x="189.957" y="131.0957" type="curve"/>
      <point x="187.47" y="132.1517"/>
      <point x="185.006" y="133.2796"/>
      <point x="182.565" y="134.47949" type="curve" smooth="yes"/>
      <point x="183.633" y="154.499"/>
      <point x="184.791" y="201.46875"/>
      <point x="186.04" y="275.3887" type="curve" smooth="yes"/>
      <point x="186.225" y="286.3796"/>
      <point x="186.382" y="295.6068"/>
      <point x="186.513" y="303.07" type="curve"/>
      <point x="187.782" y="220.9479"/>
      <point x="188.645" y="171.6774"/>
      <point x="189.102" y="155.2588" type="curve" smooth="yes"/>
      <point x="189.376" y="145.3942"/>
      <point x="189.661" y="137.3398"/>
    </contour>
    <contour>
      <point x="208.335" y="124.7041" type="curve"/>
      <point x="206.086" y="125.32"/>
      <point x="203.855" y="125.9896"/>
      <point x="201.641" y="126.7129" type="curve" smooth="yes"/>
      <point x="202.663" y="147.4831"/>
      <point x="203.709" y="196.93684"/>
      <point x="204.776" y="275.07422" type="curve"/>
      <point x="204.779" y="274.8542"/>
      <point x="204.869" y="274.5241"/>
      <point x="205.046" y="274.08398" type="curve" smooth="yes"/>
      <point x="205.223" y="273.6439"/>
      <point x="205.313" y="273.31378"/>
      <point x="205.316" y="273.0938" type="curve" smooth="yes"/>
      <point x="206.176" y="212.3848"/>
      <point x="206.888" y="171.4961"/>
      <point x="207.452" y="150.4277" type="curve" smooth="yes"/>
      <point x="207.735" y="139.8385"/>
      <point x="208.029" y="131.264"/>
    </contour>
    <contour>
      <point x="227.147" y="120.8584" type="curve"/>
      <point x="224.765" y="121.1865"/>
      <point x="222.399" y="121.5703"/>
      <point x="220.052" y="122.0098" type="curve" smooth="yes"/>
      <point x="221.091" y="144.1543"/>
      <point x="222.188" y="195.07585"/>
      <point x="223.343" y="274.7744" type="curve"/>
      <point x="223.344" y="274.6579"/>
      <point x="223.47" y="274.4837"/>
      <point x="223.72" y="274.252" type="curve" smooth="yes"/>
      <point x="223.97" y="274.0202"/>
      <point x="224.096" y="273.8464"/>
      <point x="224.098" y="273.7305" type="curve" smooth="yes"/>
      <point x="224.786" y="223.8607"/>
      <point x="225.337" y="188.9072"/>
      <point x="225.75" y="168.8701" type="curve" smooth="yes"/>
      <point x="226.193" y="147.305"/>
      <point x="226.659" y="131.3011"/>
    </contour>
    <contour>
      <point x="245.629" y="119.4326" type="curve"/>
      <point x="243.356" y="119.4756"/>
      <point x="241.099" y="119.5651"/>
      <point x="238.856" y="119.7012" type="curve" smooth="yes"/>
      <point x="239.859" y="142.7376"/>
      <point x="240.887" y="194.32129"/>
      <point x="241.941" y="274.4521" type="curve"/>
      <point x="241.942" y="274.3812"/>
      <point x="242.037" y="274.2754"/>
      <point x="242.227" y="274.1348" type="curve" smooth="yes"/>
      <point x="242.416" y="273.9935"/>
      <point x="242.511" y="273.8877"/>
      <point x="242.512" y="273.81738" type="curve" smooth="yes"/>
      <point x="243.59" y="194.73276"/>
      <point x="244.63" y="143.2712"/>
    </contour>
    <contour>
      <point x="263.972" y="120.1367" type="curve" smooth="yes"/>
      <point x="261.765" y="119.9232"/>
      <point x="259.55" y="119.7565"/>
      <point x="257.329" y="119.6367" type="curve"/>
      <point x="258.31" y="143.5684"/>
      <point x="259.31" y="194.9707"/>
      <point x="260.331" y="273.8438" type="curve" smooth="yes"/>
      <point x="260.331" y="273.84772"/>
      <point x="260.423" y="273.8538"/>
      <point x="260.605" y="273.8623" type="curve" smooth="yes"/>
      <point x="260.788" y="273.8708"/>
      <point x="260.88" y="273.877"/>
      <point x="260.88" y="273.8809" type="curve"/>
      <point x="261.95" y="195.43684"/>
      <point x="262.98" y="144.1888"/>
    </contour>
    <contour>
      <point x="281.96" y="122.9385" type="curve" smooth="yes"/>
      <point x="279.901" y="122.4938"/>
      <point x="277.836" y="122.0911"/>
      <point x="275.765" y="121.7305" type="curve"/>
      <point x="276.706" y="146.334"/>
      <point x="277.652" y="196.84016"/>
      <point x="278.603" y="273.249" type="curve"/>
      <point x="279.643" y="197.83171"/>
      <point x="280.762" y="147.7282"/>
    </contour>
    <contour>
      <point x="297.167" y="127.0146" type="curve" smooth="yes"/>
      <point x="296.181" y="126.6982"/>
      <point x="295.193" y="126.3916"/>
      <point x="294.204" y="126.0947" type="curve"/>
      <point x="294.459" y="132.0752"/>
      <point x="294.711" y="139.3649"/>
      <point x="294.96" y="147.9639" type="curve" smooth="yes"/>
      <point x="295.433" y="164.3838"/>
      <point x="296.454" y="218.1198"/>
      <point x="298.023" y="309.172" type="curve"/>
      <point x="298.153" y="300.456"/>
      <point x="298.317" y="289.028"/>
      <point x="298.517" y="274.88672" type="curve" smooth="yes"/>
      <point x="299.56" y="201.0918"/>
      <point x="300.565" y="152.29199"/>
      <point x="301.532" y="128.4873" type="curve" smooth="yes"/>
      <point x="300.09" y="127.9769"/>
      <point x="298.634" y="127.486"/>
    </contour>
    <contour>
      <point x="319.79" y="136.3398" type="curve" smooth="yes"/>
      <point x="317.793" y="135.3158"/>
      <point x="315.767" y="134.3359"/>
      <point x="313.714" y="133.40039" type="curve"/>
      <point x="313.92" y="138.7207"/>
      <point x="314.119" y="144.9876"/>
      <point x="314.313" y="152.2012" type="curve" smooth="yes"/>
      <point x="314.875" y="172.9863"/>
      <point x="315.582" y="213.2926"/>
      <point x="316.435" y="273.12012" type="curve"/>
      <point x="317.419" y="206.06802"/>
      <point x="318.537" y="160.47461"/>
    </contour>
    <contour>
      <point x="337.964" y="147.4307" type="curve" smooth="yes"/>
      <point x="336.145" y="146.1253"/>
      <point x="334.298" y="144.8643"/>
      <point x="332.423" y="143.64749" type="curve"/>
      <point x="332.567" y="147.7243"/>
      <point x="332.709" y="152.2816"/>
      <point x="332.847" y="157.3193" type="curve" smooth="yes"/>
      <point x="333.39" y="177.1676"/>
      <point x="334.063" y="215.5697"/>
      <point x="334.867" y="272.5254" type="curve"/>
      <point x="335.803" y="212.3112"/>
      <point x="336.835" y="170.613"/>
    </contour>
    <contour>
      <point x="350.852" y="156.1035" type="line" smooth="yes"/>
      <point x="350.936" y="158.6576"/>
      <point x="351.018" y="161.3792"/>
      <point x="351.099" y="164.2686" type="curve" smooth="yes"/>
      <point x="351.618" y="182.8356"/>
      <point x="352.244" y="218.6611"/>
      <point x="352.976" y="271.74512" type="curve"/>
      <point x="353.551" y="237.2666"/>
      <point x="354.377" y="202.80339"/>
      <point x="355.452" y="168.3555" type="curve" smooth="yes"/>
      <point x="355.646" y="162.1706"/>
      <point x="355.844" y="156.7721"/>
      <point x="356.048" y="152.1602" type="curve"/>
    </contour>
    <contour>
      <point x="374.458" y="139.5127" type="curve"/>
      <point x="372.294" y="140.7673"/>
      <point x="370.166" y="142.0794"/>
      <point x="368.075" y="143.4492" type="curve" smooth="yes"/>
      <point x="369.072" y="162.6048"/>
      <point x="370.086" y="206.3252"/>
      <point x="371.116" y="274.6104" type="curve"/>
      <point x="371.123" y="274.2126"/>
      <point x="371.209" y="273.6156"/>
      <point x="371.376" y="272.8193" type="curve" smooth="yes"/>
      <point x="371.543" y="272.0231"/>
      <point x="371.629" y="271.42578"/>
      <point x="371.636" y="271.02728" type="curve" smooth="yes"/>
      <point x="372.494" y="215.7044"/>
      <point x="373.204" y="178.3896"/>
      <point x="373.767" y="159.08301" type="curve" smooth="yes"/>
      <point x="373.991" y="151.4202"/>
      <point x="374.221" y="144.8968"/>
    </contour>
    <contour>
      <point x="393.728" y="130.2314" type="curve"/>
      <point x="391.254" y="131.2015"/>
      <point x="388.82" y="132.23401"/>
      <point x="386.426" y="133.3291" type="curve" smooth="yes"/>
      <point x="387.478" y="154.1637"/>
      <point x="388.619" y="201.18132"/>
      <point x="389.849" y="274.3818" type="curve" smooth="yes"/>
      <point x="390.041" y="285.87988"/>
      <point x="390.201" y="295.2904"/>
      <point x="390.329" y="302.613" type="curve"/>
      <point x="391.6" y="219.7552"/>
      <point x="392.463" y="170.0635"/>
      <point x="392.919" y="153.5381" type="curve" smooth="yes"/>
      <point x="393.179" y="144.1331"/>
      <point x="393.449" y="136.3643"/>
    </contour>
    <contour>
      <point x="412.746" y="124.1895" type="curve"/>
      <point x="410.335" y="124.7891"/>
      <point x="407.935" y="125.4469"/>
      <point x="405.544" y="126.1631" type="curve" smooth="yes"/>
      <point x="406.59" y="147.8252"/>
      <point x="407.708" y="197.24121"/>
      <point x="408.898" y="274.4111" type="curve" smooth="yes"/>
      <point x="409.07" y="285.51068"/>
      <point x="409.212" y="294.6305"/>
      <point x="409.325" y="301.771" type="curve"/>
      <point x="410.55" y="218.2464"/>
      <point x="411.401" y="167.554"/>
      <point x="411.876" y="149.6934" type="curve" smooth="yes"/>
      <point x="412.155" y="139.2305"/>
      <point x="412.445" y="130.7292"/>
    </contour>
    <contour>
      <point x="430.919" y="120.793" type="curve"/>
      <point x="428.763" y="121.0651"/>
      <point x="426.615" y="121.3818"/>
      <point x="424.476" y="121.7432" type="curve" smooth="yes"/>
      <point x="425.465" y="144.2067"/>
      <point x="426.461" y="194.9987"/>
      <point x="427.462" y="274.1191" type="curve"/>
      <point x="427.465" y="273.9889"/>
      <point x="427.541" y="273.7943"/>
      <point x="427.69" y="273.53522" type="curve" smooth="yes"/>
      <point x="427.84" y="273.2747"/>
      <point x="427.915" y="273.0798"/>
      <point x="427.917" y="272.9502" type="curve" smooth="yes"/>
      <point x="428.606" y="222.97949"/>
      <point x="429.156" y="187.9554"/>
      <point x="429.567" y="167.8779" type="curve" smooth="yes"/>
      <point x="429.997" y="146.9606"/>
      <point x="430.448" y="131.2656"/>
    </contour>
    <contour>
      <point x="450.106" y="119.5449" type="curve"/>
      <point x="447.646" y="119.5573"/>
      <point x="445.194" y="119.6253"/>
      <point x="442.751" y="119.749" type="curve" smooth="yes"/>
      <point x="443.786" y="143.3766"/>
      <point x="444.901" y="194.77995"/>
      <point x="446.095" y="273.95898" type="curve" smooth="yes"/>
      <point x="446.287" y="286.7754"/>
      <point x="446.445" y="297.11328"/>
      <point x="446.567" y="304.973" type="curve"/>
      <point x="446.685" y="296.7656"/>
      <point x="446.829" y="286.3646"/>
      <point x="447" y="273.7695" type="curve" smooth="yes"/>
      <point x="448.075" y="194.8978"/>
      <point x="449.11" y="143.4896"/>
    </contour>
    <contour>
      <point x="468.761" y="120.5283" type="curve" smooth="yes"/>
      <point x="466.465" y="120.2725"/>
      <point x="464.16" y="120.0664"/>
      <point x="461.847" y="119.9102" type="curve"/>
      <point x="462.843" y="144.0247"/>
      <point x="463.884" y="195.35449"/>
      <point x="464.97" y="273.8994" type="curve" smooth="yes"/>
      <point x="464.97" y="273.9281"/>
      <point x="465.086" y="273.9707"/>
      <point x="465.317" y="274.02728" type="curve" smooth="yes"/>
      <point x="465.55" y="274.0833"/>
      <point x="465.667" y="274.1257"/>
      <point x="465.667" y="274.1543" type="curve"/>
      <point x="466.737" y="195.75327"/>
      <point x="467.769" y="144.5446"/>
    </contour>
    <contour>
      <point x="486.099" y="123.4561" type="curve" smooth="yes"/>
      <point x="484.244" y="123.0348"/>
      <point x="482.384" y="122.6475"/>
      <point x="480.519" y="122.2939" type="curve"/>
      <point x="481.403" y="146.8688"/>
      <point x="482.234" y="197.11589"/>
      <point x="483.012" y="273.03522" type="curve"/>
      <point x="483.081" y="273.1338" type="line"/>
      <point x="484.124" y="197.69043"/>
      <point x="485.13" y="147.7979"/>
    </contour>
    <contour>
      <point x="504.649" y="128.8818" type="curve" smooth="yes"/>
      <point x="502.518" y="128.11621"/>
      <point x="500.377" y="127.3975"/>
      <point x="498.228" y="126.7256" type="curve"/>
      <point x="498.462" y="132.52249"/>
      <point x="498.69" y="139.5085"/>
      <point x="498.911" y="147.6836" type="curve" smooth="yes"/>
      <point x="499.491" y="169.0247"/>
      <point x="500.233" y="210.4619"/>
      <point x="501.138" y="271.99512" type="curve"/>
      <point x="502.137" y="201.61816"/>
      <point x="503.308" y="153.9137"/>
    </contour>
    <contour>
      <point x="523.272" y="137.0273" type="curve" smooth="yes"/>
      <point x="521.273" y="135.9818"/>
      <point x="519.242" y="134.9801"/>
      <point x="517.18" y="134.02249" type="curve"/>
      <point x="517.372" y="139.0505"/>
      <point x="517.559" y="144.8844"/>
      <point x="517.742" y="151.5244" type="curve" smooth="yes"/>
      <point x="518.312" y="172.2113"/>
      <point x="519.037" y="212.2747"/>
      <point x="519.915" y="271.71478" type="curve"/>
      <point x="520.884" y="206.17773"/>
      <point x="522.003" y="161.28189"/>
    </contour>
    <contour>
      <point x="542.457" y="149.1289" type="curve" smooth="yes"/>
      <point x="540.374" y="147.5625"/>
      <point x="538.247" y="146.0563"/>
      <point x="536.077" y="144.6104" type="curve"/>
      <point x="536.216" y="148.35901"/>
      <point x="536.354" y="152.4997"/>
      <point x="536.489" y="157.0322" type="curve" smooth="yes"/>
      <point x="536.971" y="173.0804"/>
      <point x="537.9" y="220.7936"/>
      <point x="539.276" y="300.172" type="curve"/>
      <point x="539.386" y="293.4551"/>
      <point x="539.521" y="285.0111"/>
      <point x="539.681" y="274.83978" type="curve" smooth="yes"/>
      <point x="540.638" y="213.9238"/>
      <point x="541.564" y="172.0202"/>
    </contour>
    <contour>
      <point x="561.437" y="165.6104" type="curve" smooth="yes"/>
      <point x="559.479" y="163.6501"/>
      <point x="557.46" y="161.7451"/>
      <point x="555.38" y="159.89551" type="curve"/>
      <point x="555.438" y="161.5433"/>
      <point x="555.497" y="163.2549"/>
      <point x="555.555" y="165.0303" type="curve" smooth="yes"/>
      <point x="556.021" y="179.3604"/>
      <point x="556.978" y="224.3418"/>
      <point x="558.425" y="299.9746" type="curve"/>
      <point x="558.535" y="293.8079"/>
      <point x="558.675" y="285.8438"/>
      <point x="558.843" y="276.082" type="curve" smooth="yes"/>
      <point x="559.735" y="224.0911"/>
      <point x="560.599" y="187.2673"/>
    </contour>
    <contour>
      <point x="578.48" y="186.3389" type="curve" smooth="yes"/>
      <point x="577.243" y="184.5016"/>
      <point x="575.967" y="182.6992"/>
      <point x="574.652" y="180.9316" type="curve"/>
      <point x="575.111" y="198.5052"/>
      <point x="575.637" y="228.5928"/>
      <point x="576.229" y="271.1943" type="curve"/>
      <point x="576.965" y="233.4385"/>
      <point x="577.715" y="205.15332"/>
    </contour>
    <contour>
      <point x="596.215" y="222.0352" type="curve" smooth="yes"/>
      <point x="595.195" y="219.1211"/>
      <point x="594.087" y="216.2236"/>
      <point x="592.892" y="213.3428" type="curve"/>
      <point x="593.274" y="227.7601"/>
      <point x="593.703" y="246.3971"/>
      <point x="594.177" y="269.2539" type="curve"/>
      <point x="594.346" y="262.3118"/>
      <point x="594.721" y="252.9655"/>
      <point x="595.302" y="241.2148" type="curve" smooth="yes"/>
      <point x="595.734" y="232.4902"/>
      <point x="596.038" y="226.097"/>
    </contour>
    <contour>
      <point x="602.758" y="301.979" type="curve"/>
      <point x="603.76" y="296.3581"/>
      <point x="604.443" y="290.6224"/>
      <point x="604.809" y="284.77148" type="curve" smooth="yes"/>
      <point x="604.63" y="279.4466"/>
      <point x="604.438" y="273.5908"/>
      <point x="604.235" y="267.2041" type="curve"/>
      <point x="604.209" y="268.30762"/>
      <point x="604.067" y="269.9701"/>
      <point x="603.81" y="272.1914" type="curve" smooth="yes"/>
      <point x="603.552" y="274.4134"/>
      <point x="603.409" y="276.082"/>
      <point x="603.382" y="277.1973" type="curve" smooth="yes"/>
      <point x="603.164" y="286.1953"/>
      <point x="602.956" y="294.4557"/>
    </contour>
    <contour>
      <point x="586.586" y="346.92102" type="curve" smooth="yes"/>
      <point x="586.872" y="346.414"/>
      <point x="587.155" y="345.90698"/>
      <point x="587.435" y="345.398" type="curve" smooth="yes"/>
      <point x="587.325" y="342.41998"/>
      <point x="587.217" y="339.213"/>
      <point x="587.11" y="335.77698" type="curve" smooth="yes"/>
      <point x="586.72" y="323.156"/>
      <point x="586.197" y="301.042"/>
      <point x="585.542" y="269.4355" type="curve"/>
      <point x="585.528" y="270.1595"/>
      <point x="585.43" y="271.2461"/>
      <point x="585.249" y="272.6953" type="curve" smooth="yes"/>
      <point x="585.068" y="274.1445"/>
      <point x="584.97" y="275.2318"/>
      <point x="584.956" y="275.957" type="curve" smooth="yes"/>
      <point x="584.283" y="310.426"/>
      <point x="583.7" y="336.121"/>
      <point x="583.208" y="353.042" type="curve"/>
      <point x="584.38" y="351.035"/>
      <point x="585.506" y="348.995"/>
    </contour>
    <contour>
      <point x="565.353" y="377.271" type="curve"/>
      <point x="566.821" y="375.668"/>
      <point x="568.25" y="374.036"/>
      <point x="569.64" y="372.374" type="curve" smooth="yes"/>
      <point x="568.927" y="351.853"/>
      <point x="568.245" y="318.167"/>
      <point x="567.594" y="271.3164" type="curve"/>
      <point x="566.698" y="323.245"/>
      <point x="565.951" y="358.563"/>
    </contour>
    <contour>
      <point x="545.879" y="395.003" type="curve"/>
      <point x="548.032" y="393.362"/>
      <point x="550.127" y="391.677"/>
      <point x="552.163" y="389.948" type="curve" smooth="yes"/>
      <point x="551.258" y="367.39502"/>
      <point x="550.29" y="327.93298"/>
      <point x="549.258" y="271.5625" type="curve" smooth="yes"/>
      <point x="549.07" y="261.2956"/>
      <point x="548.912" y="252.7386"/>
      <point x="548.782" y="245.8916" type="curve"/>
      <point x="547.496" y="323.844"/>
      <point x="546.63" y="370.38202"/>
      <point x="546.184" y="385.50702" type="curve" smooth="yes"/>
      <point x="546.083" y="388.898"/>
      <point x="545.981" y="392.063"/>
    </contour>
    <contour>
      <point x="526.614" y="407.673" type="curve"/>
      <point x="528.825" y="406.425"/>
      <point x="531.021" y="405.11902"/>
      <point x="533.202" y="403.755" type="curve" smooth="yes"/>
      <point x="532.25" y="380.485"/>
      <point x="531.234" y="336.417"/>
      <point x="530.153" y="271.55078" type="curve" smooth="yes"/>
      <point x="529.978" y="260.9382"/>
      <point x="529.828" y="252.082"/>
      <point x="529.706" y="244.98239" type="curve"/>
      <point x="528.455" y="326.046"/>
      <point x="527.597" y="374.904"/>
      <point x="527.134" y="391.555" type="curve" smooth="yes"/>
      <point x="526.965" y="397.61"/>
      <point x="526.791" y="402.983"/>
    </contour>
    <contour>
      <point x="507.762" y="416.758" type="curve"/>
      <point x="509.956" y="415.875"/>
      <point x="512.137" y="414.939"/>
      <point x="514.305" y="413.949" type="curve" smooth="yes"/>
      <point x="513.342" y="390.439"/>
      <point x="512.334" y="343.07098"/>
      <point x="511.28" y="271.8447" type="curve"/>
      <point x="511.276" y="272.0563"/>
      <point x="511.157" y="272.37372"/>
      <point x="510.921" y="272.7969" type="curve" smooth="yes"/>
      <point x="510.685" y="273.2201"/>
      <point x="510.565" y="273.5374"/>
      <point x="510.562" y="273.749" type="curve" smooth="yes"/>
      <point x="509.701" y="334.332"/>
      <point x="508.989" y="375.137"/>
      <point x="508.427" y="396.16498" type="curve" smooth="yes"/>
      <point x="508.212" y="404.188"/>
      <point x="507.99" y="411.05298"/>
    </contour>
    <contour>
      <point x="488.794" y="422.979" type="curve"/>
      <point x="491.099" y="422.389"/>
      <point x="493.389" y="421.74402"/>
      <point x="495.665" y="421.044" type="curve" smooth="yes"/>
      <point x="494.669" y="397.333"/>
      <point x="493.615" y="347.693"/>
      <point x="492.503" y="272.124" type="curve"/>
      <point x="492.502" y="272.2497"/>
      <point x="492.37" y="272.4382"/>
      <point x="492.109" y="272.6895" type="curve" smooth="yes"/>
      <point x="491.849" y="272.9408"/>
      <point x="491.718" y="273.1292"/>
      <point x="491.716" y="273.25488" type="curve" smooth="yes"/>
      <point x="491.027" y="323.037"/>
      <point x="490.476" y="357.93"/>
      <point x="490.063" y="377.93402" type="curve" smooth="yes"/>
      <point x="489.659" y="397.563"/>
      <point x="489.235" y="412.578"/>
    </contour>
    <contour>
      <point x="471.29" y="426.373" type="curve"/>
      <point x="473.182" y="426.12"/>
      <point x="475.065" y="425.833"/>
      <point x="476.938" y="425.511" type="curve" smooth="yes"/>
      <point x="476.029" y="401.863"/>
      <point x="475.175" y="351.068"/>
      <point x="474.376" y="273.125" type="curve"/>
      <point x="473.321" y="350.4"/>
      <point x="472.292" y="401.483"/>
    </contour>
    <contour>
      <point x="452.542" y="427.736" type="curve"/>
      <point x="454.853" y="427.70502"/>
      <point x="457.15" y="427.625"/>
      <point x="459.435" y="427.495" type="curve" smooth="yes"/>
      <point x="458.445" y="403.19202"/>
      <point x="457.411" y="352.034"/>
      <point x="456.333" y="274.02148" type="curve" smooth="yes"/>
      <point x="456.333" y="274.0065"/>
      <point x="456.217" y="273.9844"/>
      <point x="455.985" y="273.9551" type="curve" smooth="yes"/>
      <point x="455.752" y="273.9264"/>
      <point x="455.636" y="273.9046"/>
      <point x="455.636" y="273.8896" type="curve"/>
      <point x="454.565" y="352.403"/>
      <point x="453.534" y="403.685"/>
    </contour>
    <contour>
      <point x="433.39" y="426.77002" type="curve" smooth="yes"/>
      <point x="435.831" y="427.057"/>
      <point x="438.287" y="427.28198"/>
      <point x="440.759" y="427.443" type="curve"/>
      <point x="439.735" y="403.298"/>
      <point x="438.635" y="352.181"/>
      <point x="437.458" y="274.0918" type="curve" smooth="yes"/>
      <point x="437.267" y="261.3757"/>
      <point x="437.106" y="250.8903"/>
      <point x="436.978" y="242.6357" type="curve"/>
      <point x="436.863" y="250.65399"/>
      <point x="436.721" y="260.7992"/>
      <point x="436.552" y="273.0713" type="curve" smooth="yes"/>
      <point x="435.455" y="352.57"/>
      <point x="434.401" y="403.80298"/>
    </contour>
    <contour>
      <point x="415.306" y="423.406" type="curve" smooth="yes"/>
      <point x="417.407" y="423.945"/>
      <point x="419.521" y="424.43298"/>
      <point x="421.646" y="424.871" type="curve"/>
      <point x="421.351" y="418.249"/>
      <point x="421.071" y="409.624"/>
      <point x="420.805" y="398.995" type="curve" smooth="yes"/>
      <point x="420.269" y="377.586"/>
      <point x="419.61" y="335.998"/>
      <point x="418.827" y="274.2305" type="curve"/>
      <point x="417.746" y="350.811"/>
      <point x="416.573" y="400.536"/>
    </contour>
    <contour>
      <point x="396.211" y="417.46002" type="curve" smooth="yes"/>
      <point x="398.574" y="418.357"/>
      <point x="400.964" y="419.199"/>
      <point x="403.383" y="419.985" type="curve"/>
      <point x="403.089" y="413.661"/>
      <point x="402.804" y="405.582"/>
      <point x="402.528" y="395.749" type="curve" smooth="yes"/>
      <point x="401.942" y="374.903"/>
      <point x="401.187" y="334.503"/>
      <point x="400.263" y="274.5469" type="curve" smooth="yes"/>
      <point x="400.259" y="274.2878"/>
      <point x="400.118" y="273.8984"/>
      <point x="399.841" y="273.3789" type="curve" smooth="yes"/>
      <point x="399.565" y="272.86"/>
      <point x="399.425" y="272.4707"/>
      <point x="399.421" y="272.2109" type="curve"/>
      <point x="398.307" y="348.11"/>
      <point x="397.237" y="396.526"/>
    </contour>
    <contour>
      <point x="377.044" y="408.622" type="curve" smooth="yes"/>
      <point x="379.452" y="409.94202"/>
      <point x="381.895" y="411.19598"/>
      <point x="384.371" y="412.384" type="curve"/>
      <point x="384.09" y="406.478"/>
      <point x="383.817" y="399.076"/>
      <point x="383.551" y="390.18" type="curve" smooth="yes"/>
      <point x="383.072" y="374.22998"/>
      <point x="382.121" y="325.576"/>
      <point x="380.696" y="244.2148" type="curve"/>
      <point x="380.583" y="251.181"/>
      <point x="380.441" y="260.1641"/>
      <point x="380.271" y="271.1641" type="curve" smooth="yes"/>
      <point x="379.151" y="343.294"/>
      <point x="378.075" y="389.113"/>
    </contour>
    <contour>
      <point x="360.013" y="397.768" type="line" smooth="yes"/>
      <point x="361.715" y="399.015"/>
      <point x="363.436" y="400.224"/>
      <point x="365.176" y="401.39502" type="curve"/>
      <point x="364.942" y="396.189"/>
      <point x="364.717" y="389.886"/>
      <point x="364.501" y="382.485" type="curve" smooth="yes"/>
      <point x="363.958" y="363.86798"/>
      <point x="363.285" y="327.954"/>
      <point x="362.481" y="274.7432" type="curve"/>
      <point x="362.063" y="299.7777"/>
      <point x="361.173" y="334.12"/>
      <point x="359.809" y="377.771" type="curve" smooth="yes"/>
      <point x="359.57" y="385.40698"/>
      <point x="359.323" y="391.841"/>
      <point x="359.067" y="397.074" type="curve"/>
    </contour>
    <contour>
      <point x="346.792" y="392.998" type="line"/>
      <point x="345.963" y="370.646"/>
      <point x="345.146" y="330.26898"/>
      <point x="344.341" y="271.8672" type="curve"/>
      <point x="344.334" y="272.263"/>
      <point x="344.28" y="272.85712"/>
      <point x="344.177" y="273.6494" type="curve" smooth="yes"/>
      <point x="344.075" y="274.4417"/>
      <point x="344.021" y="275.0358"/>
      <point x="344.015" y="275.4316" type="curve" smooth="yes"/>
      <point x="343.155" y="330.641"/>
      <point x="342.444" y="367.887"/>
      <point x="341.882" y="387.169" type="curve" smooth="yes"/>
      <point x="341.781" y="390.623"/>
      <point x="341.678" y="393.846"/>
      <point x="341.574" y="396.837" type="curve"/>
    </contour>
    <contour>
      <point x="323.105" y="408.815" type="curve"/>
      <point x="325.068" y="407.729"/>
      <point x="327.014" y="406.596"/>
      <point x="328.942" y="405.41602" type="curve" smooth="yes"/>
      <point x="328.052" y="381.94598"/>
      <point x="327.148" y="337.69098"/>
      <point x="326.231" y="272.6504" type="curve"/>
      <point x="326.226" y="272.9479"/>
      <point x="326.14" y="273.3945"/>
      <point x="325.974" y="273.9902" type="curve" smooth="yes"/>
      <point x="325.807" y="274.5853"/>
      <point x="325.722" y="275.0319"/>
      <point x="325.718" y="275.3301" type="curve" smooth="yes"/>
      <point x="324.857" y="333.865"/>
      <point x="324.146" y="373.31598"/>
      <point x="323.583" y="393.682" type="curve" smooth="yes"/>
      <point x="323.427" y="399.314"/>
      <point x="323.268" y="404.358"/>
    </contour>
    <contour>
      <point x="304.399" y="417.538" type="curve"/>
      <point x="306.522" y="416.72302"/>
      <point x="308.626" y="415.859"/>
      <point x="310.712" y="414.945" type="curve" smooth="yes"/>
      <point x="309.774" y="390.88098"/>
      <point x="308.804" y="343.647"/>
      <point x="307.8" y="273.24512" type="curve"/>
      <point x="307.797" y="273.4411"/>
      <point x="307.689" y="273.7354"/>
      <point x="307.477" y="274.1279" type="curve" smooth="yes"/>
      <point x="307.264" y="274.5205"/>
      <point x="307.156" y="274.8148"/>
      <point x="307.153" y="275.01068" type="curve" smooth="yes"/>
      <point x="306.293" y="335.91998"/>
      <point x="305.58" y="376.94202"/>
      <point x="305.017" y="398.076" type="curve" smooth="yes"/>
      <point x="304.816" y="405.57"/>
      <point x="304.61" y="412.05798"/>
    </contour>
    <contour>
      <point x="284.785" y="423.535" type="curve"/>
      <point x="287.267" y="422.96002"/>
      <point x="289.727" y="422.324"/>
      <point x="292.165" y="421.627" type="curve" smooth="yes"/>
      <point x="291.139" y="397.236"/>
      <point x="290.011" y="347.733"/>
      <point x="288.781" y="273.1172" type="curve" smooth="yes"/>
      <point x="288.545" y="258.7474"/>
      <point x="288.349" y="247.0238"/>
      <point x="288.192" y="237.9463" type="curve"/>
      <point x="287.005" y="319.66602"/>
      <point x="286.286" y="366.63"/>
      <point x="286.035" y="378.838" type="curve" smooth="yes"/>
      <point x="285.635" y="398.232"/>
      <point x="285.218" y="413.13202"/>
    </contour>
    <contour>
      <point x="266.47" y="426.615" type="curve"/>
      <point x="268.61" y="426.385"/>
      <point x="270.736" y="426.113"/>
      <point x="272.847" y="425.799" type="curve" smooth="yes"/>
      <point x="271.892" y="401.75702"/>
      <point x="270.931" y="350.944"/>
      <point x="269.966" y="273.3584" type="curve"/>
      <point x="269.966" y="273.42938"/>
      <point x="269.891" y="273.5365"/>
      <point x="269.741" y="273.6797" type="curve" smooth="yes"/>
      <point x="269.591" y="273.8223"/>
      <point x="269.516" y="273.92938"/>
      <point x="269.516" y="274.001" type="curve" smooth="yes"/>
      <point x="268.463" y="351.181"/>
      <point x="267.448" y="402.052"/>
    </contour>
  </outline>
</glyph>
<glyph name="combine" format="2">
  <advance width="700" height="700"/>
  <unicode hex="F017"/>
  <outline>
    <contour>
      <point x="350" y="-84.7314" type="curve"/>
      <point x="380.452" y="-104.381"/>
      <point x="414.122" y="-114.207"/>
      <point x="451.008" y="-114.209" type="curve" smooth="yes"/>
      <point x="476.455" y="-114.209"/>
      <point x="500.761" y="-109.255"/>
      <point x="523.926" y="-99.3477" type="curve" smooth="yes"/>
      <point x="547.09" y="-89.4401"/>
      <point x="567.047" y="-76.1117"/>
      <point x="583.797" y="-59.3623" type="curve" smooth="yes"/>
      <point x="600.546" y="-42.613"/>
      <point x="613.874" y="-22.6559"/>
      <point x="623.781" y="0.508789" type="curve" smooth="yes"/>
      <point x="633.689" y="23.6735"/>
      <point x="638.643" y="47.9792"/>
      <point x="638.643" y="73.4258" type="curve" smooth="yes"/>
      <point x="638.643" y="98.8724"/>
      <point x="633.689" y="123.178"/>
      <point x="623.781" y="146.342" type="curve" smooth="yes"/>
      <point x="613.874" y="169.506"/>
      <point x="600.545" y="189.463"/>
      <point x="583.796" y="206.213" type="curve" smooth="yes"/>
      <point x="567.047" y="222.962"/>
      <point x="547.09" y="236.29"/>
      <point x="523.925" y="246.197" type="curve" smooth="yes"/>
      <point x="500.76" y="256.104"/>
      <point x="476.454" y="261.058"/>
      <point x="451.008" y="261.058" type="curve" smooth="yes"/>
      <point x="414.124" y="261.058"/>
      <point x="380.454" y="251.232"/>
      <point x="350" y="231.58" type="curve"/>
      <point x="319.515" y="251.232"/>
      <point x="285.678" y="261.058"/>
      <point x="248.488" y="261.058" type="curve" smooth="yes"/>
      <point x="223.113" y="260.991"/>
      <point x="198.874" y="255.988"/>
      <point x="175.773" y="246.049" type="curve" smooth="yes"/>
      <point x="152.673" y="236.111"/>
      <point x="132.77" y="222.769"/>
      <point x="116.062" y="206.023" type="curve" smooth="yes"/>
      <point x="99.3568" y="189.277"/>
      <point x="86.0632" y="169.339"/>
      <point x="76.1816" y="146.207" type="curve" smooth="yes"/>
      <point x="66.2988" y="123.076"/>
      <point x="61.3574" y="98.8151"/>
      <point x="61.3574" y="73.4258" type="curve" smooth="yes"/>
      <point x="61.3574" y="47.9948"/>
      <point x="66.3138" y="23.6976"/>
      <point x="76.2266" y="0.53418" type="curve" smooth="yes"/>
      <point x="86.1406" y="-22.6292"/>
      <point x="99.474" y="-42.5869"/>
      <point x="116.227" y="-59.3389" type="curve" smooth="yes"/>
      <point x="132.979" y="-76.0908"/>
      <point x="152.937" y="-89.4232"/>
      <point x="176.1" y="-99.3359" type="curve" smooth="yes"/>
      <point x="199.262" y="-109.249"/>
      <point x="223.559" y="-114.206"/>
      <point x="248.99" y="-114.206" type="curve" smooth="yes"/>
      <point x="285.877" y="-114.206"/>
      <point x="319.547" y="-104.381"/>
    </contour>
    <contour>
      <point x="596.137" y="21.3486" type="curve" smooth="yes"/>
      <point x="595.176" y="18.7087"/>
      <point x="594.139" y="16.0866"/>
      <point x="593.025" y="13.4824" type="curve" smooth="yes"/>
      <point x="592.894" y="13.1751"/>
      <point x="592.762" y="12.8685"/>
      <point x="592.629" y="12.5625" type="curve"/>
      <point x="593.03" y="27.3346"/>
      <point x="593.483" y="46.8984"/>
      <point x="593.988" y="71.2539" type="curve"/>
      <point x="594.158" y="64.3118"/>
      <point x="594.533" y="54.9655"/>
      <point x="595.113" y="43.2148" type="curve" smooth="yes"/>
      <point x="595.658" y="32.2305"/>
      <point x="595.999" y="24.9417"/>
    </contour>
    <contour>
      <point x="578.371" y="-13.5957" type="curve" smooth="yes"/>
      <point x="577.089" y="-15.502"/>
      <point x="575.767" y="-17.3724"/>
      <point x="574.406" y="-19.207" type="curve"/>
      <point x="574.879" y="-1.98828"/>
      <point x="575.424" y="28.8122"/>
      <point x="576.041" y="73.1943" type="curve"/>
      <point x="576.802" y="34.1214"/>
      <point x="577.579" y="5.19141"/>
    </contour>
    <contour>
      <point x="561.332" y="-34.5469" type="curve" smooth="yes"/>
      <point x="560.945" y="-34.9434"/>
      <point x="560.556" y="-35.3376"/>
      <point x="560.164" y="-35.7295" type="curve" smooth="yes"/>
      <point x="558.515" y="-37.3786"/>
      <point x="556.828" y="-38.9873"/>
      <point x="555.104" y="-40.5557" type="curve"/>
      <point x="555.192" y="-38.1715"/>
      <point x="555.28" y="-35.6429"/>
      <point x="555.366" y="-32.9697" type="curve" smooth="yes"/>
      <point x="555.832" y="-18.6396"/>
      <point x="556.789" y="26.3418"/>
      <point x="558.236" y="101.975" type="curve"/>
      <point x="558.347" y="95.8079"/>
      <point x="558.486" y="87.8438"/>
      <point x="558.654" y="78.082" type="curve" smooth="yes"/>
      <point x="559.577" y="24.3223"/>
      <point x="560.47" y="-13.2207"/>
    </contour>
    <contour>
      <point x="542.351" y="-50.9189" type="curve" smooth="yes"/>
      <point x="540.218" y="-52.4645"/>
      <point x="538.039" y="-53.9596"/>
      <point x="535.812" y="-55.4043" type="curve"/>
      <point x="535.978" y="-51.14"/>
      <point x="536.141" y="-46.3278"/>
      <point x="536.301" y="-40.9678" type="curve" smooth="yes"/>
      <point x="536.783" y="-24.9196"/>
      <point x="537.712" y="22.7936"/>
      <point x="539.088" y="102.172" type="curve"/>
      <point x="539.197" y="95.4551"/>
      <point x="539.332" y="87.0111"/>
      <point x="539.492" y="76.8398" type="curve" smooth="yes"/>
      <point x="540.479" y="14.0605"/>
      <point x="541.432" y="-28.5257"/>
    </contour>
    <contour>
      <point x="523.18" y="-62.7861" type="curve" smooth="yes"/>
      <point x="521.127" y="-63.8643"/>
      <point x="519.038" y="-64.9053"/>
      <point x="516.914" y="-65.9092" type="curve"/>
      <point x="517.133" y="-60.4626"/>
      <point x="517.346" y="-53.9847"/>
      <point x="517.554" y="-46.4756" type="curve" smooth="yes"/>
      <point x="518.124" y="-25.7887"/>
      <point x="518.848" y="14.2747"/>
      <point x="519.727" y="73.7148" type="curve"/>
      <point x="520.721" y="6.50781"/>
      <point x="521.872" y="-38.9925"/>
    </contour>
    <contour>
      <point x="504.573" y="-71.1543" type="curve" smooth="yes"/>
      <point x="502.377" y="-71.9798"/>
      <point x="500.169" y="-72.7523"/>
      <point x="497.949" y="-73.4717" type="curve"/>
      <point x="498.215" y="-67.2718"/>
      <point x="498.473" y="-59.5534"/>
      <point x="498.723" y="-50.3164" type="curve" smooth="yes"/>
      <point x="499.302" y="-28.9753"/>
      <point x="500.044" y="12.4619"/>
      <point x="500.949" y="73.9951" type="curve"/>
      <point x="501.975" y="1.66048"/>
      <point x="503.183" y="-46.7227"/>
    </contour>
    <contour>
      <point x="486.003" y="-76.8047" type="curve" smooth="yes"/>
      <point x="484.092" y="-77.2539"/>
      <point x="482.172" y="-77.665"/>
      <point x="480.242" y="-78.0381" type="curve"/>
      <point x="481.159" y="-54.3955"/>
      <point x="482.019" y="-3.37109"/>
      <point x="482.823" y="75.0352" type="curve"/>
      <point x="482.893" y="75.1338" type="line"/>
      <point x="483.969" y="-2.72624"/>
      <point x="485.006" y="-53.3724"/>
    </contour>
    <contour>
      <point x="468.672" y="-79.8125" type="curve" smooth="yes"/>
      <point x="466.312" y="-80.0807"/>
      <point x="463.941" y="-80.2946"/>
      <point x="461.558" y="-80.4541" type="curve"/>
      <point x="462.584" y="-57.4326"/>
      <point x="463.659" y="-5.31478"/>
      <point x="464.781" y="75.8994" type="curve" smooth="yes"/>
      <point x="464.781" y="75.9281"/>
      <point x="464.897" y="75.9707"/>
      <point x="465.129" y="76.0273" type="curve" smooth="yes"/>
      <point x="465.362" y="76.0833"/>
      <point x="465.479" y="76.1257"/>
      <point x="465.479" y="76.1543" type="curve"/>
      <point x="466.584" y="-4.89518"/>
      <point x="467.648" y="-56.8841"/>
    </contour>
    <contour>
      <point x="450.02" y="-80.8018" type="curve"/>
      <point x="447.484" y="-80.7861"/>
      <point x="444.964" y="-80.7116"/>
      <point x="442.457" y="-80.5781" type="curve" smooth="yes"/>
      <point x="443.522" y="-58.1074"/>
      <point x="444.672" y="-5.92839"/>
      <point x="445.906" y="75.959" type="curve" smooth="yes"/>
      <point x="446.099" y="88.7754"/>
      <point x="446.257" y="99.1133"/>
      <point x="446.379" y="106.973" type="curve"/>
      <point x="446.496" y="98.7656"/>
      <point x="446.64" y="88.3646"/>
      <point x="446.812" y="75.7695" type="curve" smooth="yes"/>
      <point x="447.924" y="-5.78385"/>
      <point x="448.993" y="-57.9743"/>
    </contour>
    <contour>
      <point x="430.84" y="-79.5215" type="curve"/>
      <point x="428.608" y="-79.2331"/>
      <point x="426.389" y="-78.8962"/>
      <point x="424.183" y="-78.5107" type="curve" smooth="yes"/>
      <point x="424.907" y="-63.5016"/>
      <point x="425.635" y="-33.279"/>
      <point x="426.367" y="12.1572" type="curve" smooth="yes"/>
      <point x="427.135" y="14.3649"/>
      <point x="427.859" y="16.582"/>
      <point x="428.539" y="18.8086" type="curve"/>
      <point x="428.865" y="-2.36198"/>
      <point x="429.145" y="-18.6722"/>
      <point x="429.379" y="-30.1221" type="curve" smooth="yes"/>
      <point x="429.842" y="-52.6416"/>
      <point x="430.329" y="-69.1081"/>
    </contour>
    <contour>
      <point x="412.664" y="-76.0293" type="curve"/>
      <point x="410.177" y="-75.3906"/>
      <point x="407.706" y="-74.6875"/>
      <point x="405.252" y="-73.9199" type="curve" smooth="yes"/>
      <point x="405.736" y="-64.7012"/>
      <point x="406.236" y="-49.4678"/>
      <point x="406.752" y="-28.2197" type="curve" smooth="yes"/>
      <point x="408.258" y="-25.8779"/>
      <point x="409.713" y="-23.4997"/>
      <point x="411.116" y="-21.085" type="curve"/>
      <point x="411.345" y="-33.5192"/>
      <point x="411.535" y="-42.5931"/>
      <point x="411.688" y="-48.3066" type="curve" smooth="yes"/>
      <point x="411.999" y="-59.9961"/>
      <point x="412.324" y="-69.237"/>
    </contour>
    <contour>
      <point x="393.633" y="-69.7627" type="curve"/>
      <point x="391.118" y="-68.7464"/>
      <point x="388.621" y="-67.6602"/>
      <point x="386.141" y="-66.5039" type="curve" smooth="yes"/>
      <point x="386.323" y="-63.1471"/>
      <point x="386.508" y="-58.9938"/>
      <point x="386.697" y="-54.0439" type="curve" smooth="yes"/>
      <point x="388.795" y="-51.7835"/>
      <point x="390.831" y="-49.4788"/>
      <point x="392.807" y="-47.1299" type="curve"/>
      <point x="393.072" y="-56.3623"/>
      <point x="393.348" y="-63.9066"/>
    </contour>
    <contour>
      <point x="391.58" y="14.6152" type="curve" smooth="yes"/>
      <point x="390.573" y="12.1914"/>
      <point x="389.501" y="9.78353"/>
      <point x="388.363" y="7.3916" type="curve"/>
      <point x="388.785" y="26.9814"/>
      <point x="389.217" y="49.9782"/>
      <point x="389.66" y="76.3818" type="curve" smooth="yes"/>
      <point x="389.853" y="87.8799"/>
      <point x="390.013" y="97.2904"/>
      <point x="390.141" y="104.613" type="curve"/>
      <point x="390.699" y="68.2129"/>
      <point x="391.179" y="38.2135"/>
    </contour>
    <contour>
      <point x="373.066" y="-18.2578" type="curve" smooth="yes"/>
      <point x="371.746" y="-20.0527"/>
      <point x="370.388" y="-21.8158"/>
      <point x="368.991" y="-23.5469" type="curve"/>
      <point x="369.63" y="-0.0078125"/>
      <point x="370.275" y="33.3779"/>
      <point x="370.928" y="76.6104" type="curve"/>
      <point x="370.934" y="76.2126"/>
      <point x="371.021" y="75.6156"/>
      <point x="371.188" y="74.8193" type="curve" smooth="yes"/>
      <point x="371.354" y="74.0231"/>
      <point x="371.441" y="73.4258"/>
      <point x="371.447" y="73.0273" type="curve" smooth="yes"/>
      <point x="372.063" y="33.3242"/>
      <point x="372.603" y="2.89583"/>
    </contour>
    <contour>
      <point x="355.55" y="-38.126" type="curve" smooth="yes"/>
      <point x="353.95" y="-39.6481"/>
      <point x="352.313" y="-41.1387"/>
      <point x="350.64" y="-42.5977" type="curve"/>
      <point x="350.731" y="-39.8418"/>
      <point x="350.822" y="-36.8864"/>
      <point x="350.91" y="-33.7314" type="curve" smooth="yes"/>
      <point x="351.43" y="-15.1644"/>
      <point x="352.055" y="20.6611"/>
      <point x="352.787" y="73.7451" type="curve"/>
      <point x="353.363" y="39.2666"/>
      <point x="354.188" y="4.80339"/>
      <point x="355.264" y="-29.6445" type="curve" smooth="yes"/>
      <point x="355.358" y="-32.6589"/>
      <point x="355.453" y="-35.486"/>
    </contour>
    <contour>
      <point x="336.973" y="-30.4736" type="curve"/>
      <point x="335.623" y="-28.9945"/>
      <point x="334.303" y="-27.4889"/>
      <point x="333.012" y="-25.957" type="curve" smooth="yes"/>
      <point x="333.486" y="-4.12565"/>
      <point x="334.041" y="29.3685"/>
      <point x="334.679" y="74.5254" type="curve"/>
      <point x="335.388" y="28.8906"/>
      <point x="336.152" y="-6.10905"/>
    </contour>
    <contour>
      <point x="317.699" y="-4.20508" type="curve"/>
      <point x="316.806" y="-2.67383"/>
      <point x="315.934" y="-1.12272"/>
      <point x="315.084" y="0.448242" type="curve" smooth="yes"/>
      <point x="315.436" y="20.527"/>
      <point x="315.823" y="45.4176"/>
      <point x="316.246" y="75.1201" type="curve"/>
      <point x="316.702" y="44.0798"/>
      <point x="317.186" y="17.638"/>
    </contour>
    <contour>
      <point x="319.539" y="-60.4482" type="curve" smooth="yes"/>
      <point x="319.596" y="-61.5544"/>
      <point x="319.652" y="-62.6175"/>
      <point x="319.707" y="-63.6377" type="curve" smooth="yes"/>
      <point x="317.632" y="-64.7113"/>
      <point x="315.543" y="-65.7347"/>
      <point x="313.441" y="-66.708" type="curve"/>
      <point x="313.587" y="-63.154"/>
      <point x="313.73" y="-59.1341"/>
      <point x="313.87" y="-54.6484" type="curve"/>
      <point x="315.713" y="-56.6165"/>
      <point x="317.603" y="-58.5498"/>
    </contour>
    <contour>
      <point x="298.75" y="48.2783" type="curve"/>
      <point x="297.896" y="53.6038"/>
      <point x="297.32" y="59.0124"/>
      <point x="297.021" y="64.5039" type="curve" smooth="yes"/>
      <point x="297.153" y="72.0052"/>
      <point x="297.29" y="79.8581"/>
      <point x="297.434" y="88.0625" type="curve" smooth="yes"/>
      <point x="297.613" y="90.0482"/>
      <point x="297.831" y="92.0228"/>
      <point x="298.086" y="93.9863" type="curve"/>
      <point x="298.16" y="88.8118"/>
      <point x="298.241" y="83.112"/>
      <point x="298.328" y="76.8867" type="curve" smooth="yes"/>
      <point x="298.47" y="66.8919"/>
      <point x="298.611" y="57.3558"/>
    </contour>
    <contour>
      <point x="300.393" y="-38.5303" type="curve" smooth="yes"/>
      <point x="300.745" y="-52.7256"/>
      <point x="301.092" y="-63.7715"/>
      <point x="301.434" y="-71.668" type="curve" smooth="yes"/>
      <point x="298.944" y="-72.5749"/>
      <point x="296.438" y="-73.4141"/>
      <point x="293.914" y="-74.1855" type="curve"/>
      <point x="294.205" y="-67.8099"/>
      <point x="294.491" y="-59.7601"/>
      <point x="294.771" y="-50.0361" type="curve" smooth="yes"/>
      <point x="294.887" y="-46.0081"/>
      <point x="295.036" y="-39.7344"/>
      <point x="295.219" y="-31.2148" type="curve"/>
      <point x="296.885" y="-33.6966"/>
      <point x="298.61" y="-36.1351"/>
    </contour>
    <contour>
      <point x="279.703" y="-3.26758" type="curve" smooth="yes"/>
      <point x="280.398" y="-38.015"/>
      <point x="281.126" y="-62.7012"/>
      <point x="281.885" y="-77.3262" type="curve" smooth="yes"/>
      <point x="279.763" y="-77.7865"/>
      <point x="277.63" y="-78.2012"/>
      <point x="275.484" y="-78.5703" type="curve"/>
      <point x="276.114" y="-63.2474"/>
      <point x="276.745" y="-36.3577"/>
      <point x="277.378" y="2.09863" type="curve"/>
      <point x="277.84" y="0.986003"/>
      <point x="278.312" y="-0.123698"/>
      <point x="278.797" y="-1.23047" type="curve" smooth="yes"/>
      <point x="279.096" y="-1.91211"/>
      <point x="279.398" y="-2.59115"/>
    </contour>
    <contour>
      <point x="263.879" y="-80.1094" type="curve" smooth="yes"/>
      <point x="261.613" y="-80.3223"/>
      <point x="259.336" y="-80.486"/>
      <point x="257.047" y="-80.6006" type="curve"/>
      <point x="258.057" y="-57.7295"/>
      <point x="259.089" y="-5.58138"/>
      <point x="260.143" y="75.8438" type="curve" smooth="yes"/>
      <point x="260.143" y="75.8477"/>
      <point x="260.234" y="75.8538"/>
      <point x="260.417" y="75.8623" type="curve" smooth="yes"/>
      <point x="260.6" y="75.8708"/>
      <point x="260.691" y="75.877"/>
      <point x="260.691" y="75.8809" type="curve"/>
      <point x="261.796" y="-5.09766"/>
      <point x="262.858" y="-57.0944"/>
    </contour>
    <contour>
      <point x="245.535" y="-80.7637" type="curve"/>
      <point x="243.202" y="-80.7129"/>
      <point x="240.88" y="-80.611"/>
      <point x="238.57" y="-80.458" type="curve" smooth="yes"/>
      <point x="239.604" y="-58.5915"/>
      <point x="240.664" y="-6.28809"/>
      <point x="241.753" y="76.4521" type="curve"/>
      <point x="241.754" y="76.3812"/>
      <point x="241.849" y="76.2754"/>
      <point x="242.038" y="76.1348" type="curve" smooth="yes"/>
      <point x="242.228" y="75.9935"/>
      <point x="242.323" y="75.8877"/>
      <point x="242.323" y="75.8174" type="curve" smooth="yes"/>
      <point x="243.436" y="-5.78939"/>
      <point x="244.507" y="-57.9831"/>
    </contour>
    <contour>
      <point x="227.062" y="-79.2578" type="curve"/>
      <point x="224.616" y="-78.9082"/>
      <point x="222.183" y="-78.4987"/>
      <point x="219.764" y="-78.0293" type="curve" smooth="yes"/>
      <point x="220.832" y="-57.0775"/>
      <point x="221.962" y="-5.47624"/>
      <point x="223.154" y="76.7744" type="curve"/>
      <point x="223.156" y="76.6579"/>
      <point x="223.281" y="76.4837"/>
      <point x="223.531" y="76.252" type="curve" smooth="yes"/>
      <point x="223.781" y="76.0202"/>
      <point x="223.907" y="75.8464"/>
      <point x="223.909" y="75.7305" type="curve" smooth="yes"/>
      <point x="224.597" y="25.8607"/>
      <point x="225.148" y="-9.09277"/>
      <point x="225.562" y="-29.1299" type="curve" smooth="yes"/>
      <point x="226.028" y="-51.8343"/>
      <point x="226.52" y="-68.3747"/>
      <point x="227.035" y="-78.751" type="curve" smooth="yes"/>
      <point x="227.044" y="-78.9215"/>
      <point x="227.053" y="-79.0905"/>
    </contour>
    <contour>
      <point x="208.245" y="-75.3184" type="curve"/>
      <point x="205.935" y="-74.6771"/>
      <point x="203.637" y="-73.9795"/>
      <point x="201.352" y="-73.2256" type="curve" smooth="yes"/>
      <point x="202.406" y="-53.7087"/>
      <point x="203.485" y="-3.60872"/>
      <point x="204.588" y="77.0742" type="curve"/>
      <point x="204.59" y="76.8542"/>
      <point x="204.68" y="76.5241"/>
      <point x="204.857" y="76.084" type="curve" smooth="yes"/>
      <point x="205.035" y="75.6439"/>
      <point x="205.125" y="75.3138"/>
      <point x="205.128" y="75.0938" type="curve" smooth="yes"/>
      <point x="205.988" y="14.3848"/>
      <point x="206.7" y="-26.5039"/>
      <point x="207.264" y="-47.5723" type="curve" smooth="yes"/>
      <point x="207.576" y="-59.2865"/>
      <point x="207.903" y="-68.5352"/>
    </contour>
    <contour>
      <point x="189.867" y="-68.915" type="curve"/>
      <point x="189.604" y="-68.8037"/>
      <point x="189.34" y="-68.6917"/>
      <point x="189.076" y="-68.5791" type="curve" smooth="yes"/>
      <point x="186.768" y="-67.5915"/>
      <point x="184.497" y="-66.5622"/>
      <point x="182.266" y="-65.4912" type="curve" smooth="yes"/>
      <point x="183.365" y="-46.7015"/>
      <point x="184.56" y="0.92513"/>
      <point x="185.852" y="77.3887" type="curve" smooth="yes"/>
      <point x="186.036" y="88.3796"/>
      <point x="186.194" y="97.6068"/>
      <point x="186.324" y="105.07" type="curve"/>
      <point x="187.594" y="22.9479"/>
      <point x="188.457" y="-26.3226"/>
      <point x="188.913" y="-42.7412" type="curve" smooth="yes"/>
      <point x="189.217" y="-53.6995"/>
      <point x="189.535" y="-62.4242"/>
    </contour>
    <contour>
      <point x="170.616" y="-59.3203" type="curve"/>
      <point x="167.941" y="-57.7611"/>
      <point x="165.329" y="-56.1344"/>
      <point x="162.78" y="-54.4404" type="curve" smooth="yes"/>
      <point x="163.884" y="-36.029"/>
      <point x="165.12" y="7.8125"/>
      <point x="166.49" y="77.084" type="curve" smooth="yes"/>
      <point x="166.744" y="89.8861"/>
      <point x="166.949" y="100.056"/>
      <point x="167.104" y="107.594" type="curve"/>
      <point x="168.483" y="25.0286"/>
      <point x="169.374" y="-23.1283"/>
      <point x="169.779" y="-36.877" type="curve" smooth="yes"/>
      <point x="170.048" y="-45.985"/>
      <point x="170.327" y="-53.4661"/>
    </contour>
    <contour>
      <point x="150.796" y="-45.5947" type="curve"/>
      <point x="148.793" y="-43.9567"/>
      <point x="146.837" y="-42.2692"/>
      <point x="144.926" y="-40.5322" type="curve" smooth="yes"/>
      <point x="145.923" y="-24.9053"/>
      <point x="146.886" y="14.318"/>
      <point x="147.814" y="77.1377" type="curve"/>
      <point x="147.824" y="76.5856"/>
      <point x="147.862" y="75.7572"/>
      <point x="147.93" y="74.6523" type="curve" smooth="yes"/>
      <point x="147.997" y="73.5482"/>
      <point x="148.036" y="72.7201"/>
      <point x="148.046" y="72.168" type="curve" smooth="yes"/>
      <point x="148.905" y="22.0866"/>
      <point x="149.615" y="-11.7262"/>
      <point x="150.176" y="-29.2705" type="curve" smooth="yes"/>
      <point x="150.376" y="-35.5413"/>
      <point x="150.583" y="-40.9827"/>
    </contour>
    <contour>
      <point x="132.934" y="-28.2803" type="curve"/>
      <point x="130.508" y="-25.4951"/>
      <point x="128.183" y="-22.6152"/>
      <point x="125.959" y="-19.6406" type="curve" smooth="yes"/>
      <point x="126.079" y="-18.1497"/>
      <point x="126.198" y="-16.4788"/>
      <point x="126.314" y="-14.6279" type="curve" smooth="yes"/>
      <point x="126.718" y="-8.2041"/>
      <point x="127.118" y="0.703125"/>
      <point x="127.514" y="12.0938" type="curve" smooth="yes"/>
      <point x="127.825" y="21.0534"/>
      <point x="128.592" y="49.6908"/>
      <point x="129.816" y="98.0059" type="curve"/>
      <point x="131.176" y="32.61"/>
      <point x="132.056" y="-5.62174"/>
      <point x="132.457" y="-16.6895" type="curve" smooth="yes"/>
      <point x="132.613" y="-20.9876"/>
      <point x="132.771" y="-24.8512"/>
    </contour>
    <contour>
      <point x="113.098" y="0.706055" type="curve"/>
      <point x="111.318" y="4.06348"/>
      <point x="109.637" y="7.51465"/>
      <point x="108.055" y="11.0596" type="curve" smooth="yes"/>
      <point x="108.474" y="15.8265"/>
      <point x="108.868" y="22.9349"/>
      <point x="109.238" y="32.3848" type="curve" smooth="yes"/>
      <point x="109.596" y="41.5111"/>
      <point x="110.07" y="57.5579"/>
      <point x="110.66" y="80.5254" type="curve"/>
      <point x="110.688" y="79.4447"/>
      <point x="110.756" y="77.8092"/>
      <point x="110.865" y="75.6191" type="curve" smooth="yes"/>
      <point x="110.975" y="73.4303"/>
      <point x="111.042" y="71.7832"/>
      <point x="111.068" y="70.6777" type="curve" smooth="yes"/>
      <point x="111.877" y="37.1367"/>
      <point x="112.553" y="13.8128"/>
    </contour>
    <contour>
      <point x="99.5898" y="111.737" type="curve" smooth="yes"/>
      <point x="100.645" y="115.799"/>
      <point x="101.871" y="119.82"/>
      <point x="103.27" y="123.802" type="curve"/>
      <point x="102.897" y="112.841"/>
      <point x="102.483" y="98.4909"/>
      <point x="102.027" y="80.752" type="curve"/>
      <point x="101.914" y="83.5749"/>
      <point x="101.611" y="87.3877"/>
      <point x="101.117" y="92.1904" type="curve" smooth="yes"/>
      <point x="100.625" y="96.9925"/>
      <point x="100.33" y="100.272"/>
      <point x="100.232" y="102.029" type="curve" smooth="yes"/>
      <point x="100.023" y="105.784"/>
      <point x="99.8086" y="109.02"/>
    </contour>
    <contour>
      <point x="116.983" y="153.064" type="curve" smooth="yes"/>
      <point x="118.944" y="156.359"/>
      <point x="121.009" y="159.557"/>
      <point x="123.179" y="162.656" type="curve"/>
      <point x="123.146" y="161.91"/>
      <point x="123.112" y="161.148"/>
      <point x="123.078" y="160.371" type="curve" smooth="yes"/>
      <point x="122.477" y="146.199"/>
      <point x="121.688" y="119.126"/>
      <point x="120.711" y="79.1514" type="curve" smooth="yes"/>
      <point x="120.688" y="78.2314"/>
      <point x="120.52" y="76.8535"/>
      <point x="120.207" y="75.0176" type="curve" smooth="yes"/>
      <point x="119.893" y="73.1816"/>
      <point x="119.725" y="71.806"/>
      <point x="119.703" y="70.8906" type="curve"/>
      <point x="119.029" y="98.832"/>
      <point x="118.493" y="118.364"/>
      <point x="118.097" y="129.487" type="curve" smooth="yes"/>
      <point x="117.741" y="139.466"/>
      <point x="117.374" y="147.264"/>
      <point x="116.996" y="152.882" type="curve" smooth="yes"/>
      <point x="116.992" y="152.943"/>
      <point x="116.988" y="153.004"/>
    </contour>
    <contour>
      <point x="136.02" y="178.577" type="curve" smooth="yes"/>
      <point x="137.264" y="179.919"/>
      <point x="138.534" y="181.238"/>
      <point x="139.828" y="182.533" type="curve" smooth="yes"/>
      <point x="140.34" y="183.045"/>
      <point x="140.855" y="183.552"/>
      <point x="141.373" y="184.056" type="curve"/>
      <point x="141.238" y="180.683"/>
      <point x="141.108" y="176.931"/>
      <point x="140.982" y="172.802" type="curve" smooth="yes"/>
      <point x="140.476" y="156.216"/>
      <point x="139.875" y="124.372"/>
      <point x="139.179" y="77.2676" type="curve"/>
      <point x="138.187" y="128.276"/>
      <point x="137.134" y="162.046"/>
    </contour>
    <contour>
      <point x="153.566" y="194.671" type="curve" smooth="yes"/>
      <point x="155.977" y="196.549"/>
      <point x="158.452" y="198.357"/>
      <point x="160.992" y="200.098" type="curve"/>
      <point x="160.778" y="195.464"/>
      <point x="160.566" y="190.058"/>
      <point x="160.355" y="183.881" type="curve" smooth="yes"/>
      <point x="159.919" y="171.011"/>
      <point x="158.861" y="124.316"/>
      <point x="157.18" y="43.7969" type="curve"/>
      <point x="157.046" y="51.2018"/>
      <point x="156.88" y="60.709"/>
      <point x="156.682" y="72.3184" type="curve" smooth="yes"/>
      <point x="155.602" y="135.327"/>
      <point x="154.564" y="176.111"/>
    </contour>
    <contour>
      <point x="173.168" y="207.639" type="curve" smooth="yes"/>
      <point x="175.478" y="208.929"/>
      <point x="177.835" y="210.17"/>
      <point x="180.238" y="211.362" type="curve"/>
      <point x="180.003" y="206.011"/>
      <point x="179.772" y="199.597"/>
      <point x="179.546" y="192.119" type="curve" smooth="yes"/>
      <point x="179.067" y="176.291"/>
      <point x="178.12" y="128.13"/>
      <point x="176.703" y="47.6348" type="curve"/>
      <point x="176.595" y="54.2422"/>
      <point x="176.455" y="63.0124"/>
      <point x="176.283" y="73.9453" type="curve" smooth="yes"/>
      <point x="175.204" y="142.69"/>
      <point x="174.165" y="187.255"/>
    </contour>
    <contour>
      <point x="192.473" y="216.845" type="curve" smooth="yes"/>
      <point x="194.536" y="217.67"/>
      <point x="196.611" y="218.449"/>
      <point x="198.695" y="219.18" type="curve"/>
      <point x="198.452" y="213.299"/>
      <point x="198.218" y="206.087"/>
      <point x="197.992" y="197.543" type="curve" smooth="yes"/>
      <point x="197.445" y="176.85"/>
      <point x="196.765" y="136.734"/>
      <point x="195.952" y="77.1943" type="curve"/>
      <point x="194.911" y="147.683"/>
      <point x="193.751" y="194.233"/>
    </contour>
    <contour>
      <point x="210.887" y="222.883" type="curve" smooth="yes"/>
      <point x="213.073" y="223.447"/>
      <point x="215.271" y="223.96"/>
      <point x="217.48" y="224.424" type="curve"/>
      <point x="217.22" y="218.255"/>
      <point x="216.967" y="210.607"/>
      <point x="216.723" y="201.48" type="curve" smooth="yes"/>
      <point x="216.147" y="180.091"/>
      <point x="215.412" y="138.565"/>
      <point x="214.519" y="76.9014" type="curve"/>
      <point x="213.483" y="150.013"/>
      <point x="212.272" y="198.673"/>
    </contour>
    <contour>
      <point x="229.671" y="226.462" type="curve" smooth="yes"/>
      <point x="231.778" y="226.726"/>
      <point x="233.897" y="226.946"/>
      <point x="236.026" y="227.122" type="curve"/>
      <point x="235.079" y="202.187"/>
      <point x="234.109" y="152.002"/>
      <point x="233.117" y="76.5684" type="curve"/>
      <point x="232.081" y="151.557"/>
      <point x="230.932" y="201.521"/>
    </contour>
    <contour>
      <point x="247.947" y="227.65" type="curve"/>
      <point x="248.295" y="227.652"/>
      <point x="248.643" y="227.653"/>
      <point x="248.99" y="227.653" type="curve" smooth="yes"/>
      <point x="250.803" y="227.653"/>
      <point x="252.609" y="227.623"/>
      <point x="254.406" y="227.563" type="curve"/>
      <point x="253.458" y="202.61"/>
      <point x="252.492" y="152.074"/>
      <point x="251.508" y="75.957" type="curve" smooth="yes"/>
      <point x="251.508" y="75.9551"/>
      <point x="251.416" y="75.9518"/>
      <point x="251.232" y="75.9473" type="curve" smooth="yes"/>
      <point x="251.05" y="75.9427"/>
      <point x="250.959" y="75.9395"/>
      <point x="250.959" y="75.9375" type="curve"/>
      <point x="249.918" y="152.251"/>
      <point x="248.914" y="202.822"/>
    </contour>
    <contour>
      <point x="266.355" y="226.709" type="curve"/>
      <point x="268.443" y="226.479"/>
      <point x="270.519" y="226.207"/>
      <point x="272.585" y="225.893" type="curve" smooth="yes"/>
      <point x="271.875" y="207.008"/>
      <point x="271.162" y="173.347"/>
      <point x="270.447" y="124.908" type="curve" smooth="yes"/>
      <point x="269.828" y="122.74"/>
      <point x="269.249" y="120.561"/>
      <point x="268.711" y="118.37" type="curve"/>
      <point x="267.903" y="170.437"/>
      <point x="267.118" y="206.549"/>
    </contour>
    <contour>
      <point x="284.676" y="223.544" type="curve"/>
      <point x="287.098" y="222.97"/>
      <point x="289.504" y="222.335"/>
      <point x="291.895" y="221.641" type="curve" smooth="yes"/>
      <point x="291.423" y="209.867"/>
      <point x="290.929" y="192.831"/>
      <point x="290.414" y="170.532" type="curve" smooth="yes"/>
      <point x="288.943" y="168.098"/>
      <point x="287.523" y="165.625"/>
      <point x="286.156" y="163.112" type="curve"/>
      <point x="286.018" y="171.603"/>
      <point x="285.915" y="177.511"/>
      <point x="285.847" y="180.838" type="curve" smooth="yes"/>
      <point x="285.472" y="199.028"/>
      <point x="285.082" y="213.263"/>
    </contour>
    <contour>
      <point x="304.289" y="217.446" type="curve"/>
      <point x="306.354" y="216.647"/>
      <point x="308.407" y="215.801"/>
      <point x="310.447" y="214.908" type="curve" smooth="yes"/>
      <point x="310.26" y="209.885"/>
      <point x="310.072" y="203.953"/>
      <point x="309.883" y="197.11" type="curve" smooth="yes"/>
      <point x="308.229" y="195.228"/>
      <point x="306.616" y="193.316"/>
      <point x="305.043" y="191.373" type="curve"/>
      <point x="304.969" y="194.575"/>
      <point x="304.898" y="197.476"/>
      <point x="304.828" y="200.076" type="curve" smooth="yes"/>
      <point x="304.653" y="206.639"/>
      <point x="304.473" y="212.429"/>
    </contour>
    <contour>
      <point x="306.223" y="126.949" type="curve" smooth="yes"/>
      <point x="306.944" y="128.887"/>
      <point x="307.707" y="130.813"/>
      <point x="308.512" y="132.727" type="curve"/>
      <point x="308.215" y="115.682"/>
      <point x="307.915" y="96.5218"/>
      <point x="307.611" y="75.2451" type="curve"/>
      <point x="307.609" y="75.4411"/>
      <point x="307.501" y="75.7354"/>
      <point x="307.288" y="76.1279" type="curve" smooth="yes"/>
      <point x="307.075" y="76.5205"/>
      <point x="306.967" y="76.8148"/>
      <point x="306.965" y="77.0107" type="curve" smooth="yes"/>
      <point x="306.704" y="95.4867"/>
      <point x="306.456" y="112.133"/>
    </contour>
    <contour>
      <point x="324.156" y="161.216" type="curve" smooth="yes"/>
      <point x="325.279" y="162.839"/>
      <point x="326.429" y="164.437"/>
      <point x="327.607" y="166.009" type="curve"/>
      <point x="327.09" y="142.386"/>
      <point x="326.569" y="111.933"/>
      <point x="326.043" y="74.6504" type="curve"/>
      <point x="326.038" y="74.9479"/>
      <point x="325.952" y="75.3945"/>
      <point x="325.785" y="75.9902" type="curve" smooth="yes"/>
      <point x="325.618" y="76.5853"/>
      <point x="325.533" y="77.0319"/>
      <point x="325.529" y="77.3301" type="curve" smooth="yes"/>
      <point x="325.02" y="111.979"/>
      <point x="324.562" y="139.941"/>
    </contour>
    <contour>
      <point x="341.877" y="182.458" type="curve" smooth="yes"/>
      <point x="343.328" y="183.906"/>
      <point x="344.81" y="185.326"/>
      <point x="346.322" y="186.719" type="curve"/>
      <point x="345.589" y="163.278"/>
      <point x="344.866" y="125.661"/>
      <point x="344.152" y="73.8672" type="curve"/>
      <point x="344.146" y="74.263"/>
      <point x="344.091" y="74.8571"/>
      <point x="343.988" y="75.6494" type="curve" smooth="yes"/>
      <point x="343.887" y="76.4417"/>
      <point x="343.833" y="77.0358"/>
      <point x="343.826" y="77.4316" type="curve" smooth="yes"/>
      <point x="343.057" y="126.81"/>
      <point x="342.407" y="161.819"/>
    </contour>
    <contour>
      <point x="359.581" y="180.997" type="curve"/>
      <point x="361.121" y="179.419"/>
      <point x="362.624" y="177.81"/>
      <point x="364.09" y="176.169" type="curve" smooth="yes"/>
      <point x="363.589" y="156.041"/>
      <point x="362.99" y="122.899"/>
      <point x="362.293" y="76.7432" type="curve"/>
      <point x="361.875" y="101.778"/>
      <point x="360.984" y="136.12"/>
      <point x="359.62" y="179.771" type="curve" smooth="yes"/>
      <point x="359.607" y="180.184"/>
      <point x="359.594" y="180.592"/>
    </contour>
    <contour>
      <point x="378.538" y="157.156" type="curve"/>
      <point x="379.881" y="155.066"/>
      <point x="381.178" y="152.937"/>
      <point x="382.429" y="150.769" type="curve" smooth="yes"/>
      <point x="381.931" y="125.808"/>
      <point x="381.291" y="90.957"/>
      <point x="380.508" y="46.2148" type="curve"/>
      <point x="380.395" y="53.181"/>
      <point x="380.253" y="62.1641"/>
      <point x="380.082" y="73.1641" type="curve" smooth="yes"/>
      <point x="379.558" y="106.926"/>
      <point x="379.043" y="134.923"/>
    </contour>
    <contour>
      <point x="383.752" y="203.994" type="curve"/>
      <point x="381.967" y="205.831"/>
      <point x="380.139" y="207.639"/>
      <point x="378.27" y="209.416" type="curve"/>
      <point x="380.199" y="210.447"/>
      <point x="382.139" y="211.435"/>
      <point x="384.09" y="212.379" type="curve"/>
      <point x="383.977" y="209.833"/>
      <point x="383.864" y="207.038"/>
    </contour>
    <contour>
      <point x="398.663" y="110.871" type="curve"/>
      <point x="399.348" y="108.139"/>
      <point x="399.955" y="105.389"/>
      <point x="400.484" y="102.62" type="curve" smooth="yes"/>
      <point x="400.352" y="94.3844"/>
      <point x="400.215" y="85.6934"/>
      <point x="400.074" y="76.5469" type="curve" smooth="yes"/>
      <point x="400.07" y="76.2878"/>
      <point x="399.93" y="75.8984"/>
      <point x="399.652" y="75.3789" type="curve" smooth="yes"/>
      <point x="399.376" y="74.86"/>
      <point x="399.236" y="74.4707"/>
      <point x="399.232" y="74.2109" type="curve"/>
      <point x="399.041" y="87.2409"/>
      <point x="398.851" y="99.4609"/>
    </contour>
    <contour>
      <point x="397.081" y="188.702" type="curve" smooth="yes"/>
      <point x="396.754" y="200.976"/>
      <point x="396.43" y="210.604"/>
      <point x="396.111" y="217.588" type="curve" smooth="yes"/>
      <point x="398.429" y="218.479"/>
      <point x="400.761" y="219.31"/>
      <point x="403.108" y="220.082" type="curve"/>
      <point x="402.845" y="214.066"/>
      <point x="402.589" y="206.622"/>
      <point x="402.34" y="197.749" type="curve" smooth="yes"/>
      <point x="402.217" y="193.403"/>
      <point x="402.088" y="188.208"/>
      <point x="401.952" y="182.163" type="curve"/>
      <point x="400.377" y="184.377"/>
      <point x="398.754" y="186.557"/>
    </contour>
    <contour>
      <point x="417.272" y="156.441" type="curve" smooth="yes"/>
      <point x="416.618" y="187.398"/>
      <point x="415.934" y="209.754"/>
      <point x="415.219" y="223.511" type="curve" smooth="yes"/>
      <point x="417.259" y="223.997"/>
      <point x="419.31" y="224.44"/>
      <point x="421.37" y="224.841" type="curve"/>
      <point x="421.108" y="218.518"/>
      <point x="420.856" y="210.569"/>
      <point x="420.616" y="200.995" type="curve" smooth="yes"/>
      <point x="420.338" y="189.884"/>
      <point x="420.027" y="173.338"/>
      <point x="419.683" y="151.356" type="curve"/>
      <point x="418.902" y="153.067"/>
      <point x="418.099" y="154.762"/>
    </contour>
    <contour>
      <point x="436.209" y="86.126" type="curve" smooth="yes"/>
      <point x="435.2" y="157.075"/>
      <point x="434.227" y="203.922"/>
      <point x="433.289" y="226.667" type="curve" smooth="yes"/>
      <point x="435.674" y="226.936"/>
      <point x="438.072" y="227.15"/>
      <point x="440.482" y="227.31" type="curve"/>
      <point x="439.484" y="202.357"/>
      <point x="438.413" y="151.951"/>
      <point x="437.27" y="76.0918" type="curve" smooth="yes"/>
      <point x="437.078" y="63.3757"/>
      <point x="436.918" y="52.8903"/>
      <point x="436.789" y="44.6357" type="curve"/>
      <point x="436.703" y="50.6104"/>
      <point x="436.603" y="57.766"/>
      <point x="436.487" y="66.1025" type="curve" smooth="yes"/>
      <point x="436.579" y="68.5335"/>
      <point x="436.625" y="70.9746"/>
      <point x="436.625" y="73.4258" type="curve" smooth="yes"/>
      <point x="436.625" y="77.6888"/>
      <point x="436.486" y="81.9222"/>
    </contour>
    <contour>
      <point x="452.438" y="227.647" type="curve"/>
      <point x="454.691" y="227.627"/>
      <point x="456.934" y="227.56"/>
      <point x="459.166" y="227.444" type="curve" smooth="yes"/>
      <point x="458.2" y="202.379"/>
      <point x="457.193" y="151.904"/>
      <point x="456.145" y="76.0215" type="curve" smooth="yes"/>
      <point x="456.145" y="76.0065"/>
      <point x="456.029" y="75.9844"/>
      <point x="455.797" y="75.9551" type="curve" smooth="yes"/>
      <point x="455.564" y="75.9264"/>
      <point x="455.447" y="75.9046"/>
      <point x="455.447" y="75.8896" type="curve"/>
      <point x="454.407" y="152.2"/>
      <point x="453.404" y="202.785"/>
    </contour>
    <contour>
      <point x="471.182" y="226.354" type="curve"/>
      <point x="473.021" y="226.114"/>
      <point x="474.852" y="225.84"/>
      <point x="476.676" y="225.532" type="curve" smooth="yes"/>
      <point x="475.794" y="201.095"/>
      <point x="474.965" y="150.959"/>
      <point x="474.188" y="75.125" type="curve"/>
      <point x="473.159" y="150.367"/>
      <point x="472.157" y="200.777"/>
    </contour>
    <contour>
      <point x="488.688" y="222.997" type="curve"/>
      <point x="490.937" y="222.425"/>
      <point x="493.174" y="221.801"/>
      <point x="495.398" y="221.123" type="curve" smooth="yes"/>
      <point x="494.424" y="196.708"/>
      <point x="493.396" y="147.709"/>
      <point x="492.314" y="74.124" type="curve"/>
      <point x="492.313" y="74.2497"/>
      <point x="492.182" y="74.4382"/>
      <point x="491.921" y="74.6895" type="curve" smooth="yes"/>
      <point x="491.66" y="74.9408"/>
      <point x="491.529" y="75.1292"/>
      <point x="491.527" y="75.2549" type="curve" smooth="yes"/>
      <point x="490.839" y="125.037"/>
      <point x="490.288" y="159.93"/>
      <point x="489.875" y="179.934" type="curve" smooth="yes"/>
      <point x="489.495" y="198.35"/>
      <point x="489.099" y="212.704"/>
    </contour>
    <contour>
      <point x="507.648" y="216.81" type="curve"/>
      <point x="508.753" y="216.367"/>
      <point x="509.854" y="215.911"/>
      <point x="510.953" y="215.441" type="curve" smooth="yes"/>
      <point x="511.991" y="214.998"/>
      <point x="513.021" y="214.546"/>
      <point x="514.042" y="214.085" type="curve" smooth="yes"/>
      <point x="513.101" y="189.984"/>
      <point x="512.118" y="143.237"/>
      <point x="511.092" y="73.8447" type="curve"/>
      <point x="511.088" y="74.0563"/>
      <point x="510.968" y="74.3737"/>
      <point x="510.732" y="74.7969" type="curve" smooth="yes"/>
      <point x="510.496" y="75.2201"/>
      <point x="510.376" y="75.5374"/>
      <point x="510.373" y="75.749" type="curve" smooth="yes"/>
      <point x="509.512" y="136.332"/>
      <point x="508.801" y="177.137"/>
      <point x="508.238" y="198.165" type="curve" smooth="yes"/>
      <point x="508.048" y="205.295"/>
      <point x="507.851" y="211.51"/>
    </contour>
    <contour>
      <point x="526.494" y="207.848" type="curve"/>
      <point x="528.686" y="206.632"/>
      <point x="530.836" y="205.372"/>
      <point x="532.945" y="204.068" type="curve" smooth="yes"/>
      <point x="532.013" y="180.389"/>
      <point x="531.02" y="136.883"/>
      <point x="529.965" y="73.5508" type="curve" smooth="yes"/>
      <point x="529.789" y="62.9382"/>
      <point x="529.64" y="54.082"/>
      <point x="529.518" y="46.9824" type="curve"/>
      <point x="528.266" y="128.046"/>
      <point x="527.409" y="176.904"/>
      <point x="526.945" y="193.555" type="curve" smooth="yes"/>
      <point x="526.798" y="198.839"/>
      <point x="526.648" y="203.604"/>
    </contour>
    <contour>
      <point x="545.752" y="195.229" type="curve"/>
      <point x="547.852" y="193.613"/>
      <point x="549.904" y="191.947"/>
      <point x="551.906" y="190.229" type="curve" smooth="yes"/>
      <point x="551.021" y="167.415"/>
      <point x="550.075" y="128.526"/>
      <point x="549.069" y="73.5625" type="curve" smooth="yes"/>
      <point x="548.882" y="63.2956"/>
      <point x="548.723" y="54.7386"/>
      <point x="548.594" y="47.8916" type="curve"/>
      <point x="547.307" y="125.844"/>
      <point x="546.441" y="172.382"/>
      <point x="545.995" y="187.507" type="curve" smooth="yes"/>
      <point x="545.915" y="190.226"/>
      <point x="545.834" y="192.799"/>
    </contour>
    <contour>
      <point x="565.227" y="177.257" type="curve"/>
      <point x="566.646" y="175.688"/>
      <point x="568.032" y="174.089"/>
      <point x="569.386" y="172.458" type="curve" smooth="yes"/>
      <point x="568.696" y="151.784"/>
      <point x="568.036" y="118.736"/>
      <point x="567.405" y="73.3164" type="curve"/>
      <point x="566.541" y="123.438"/>
      <point x="565.814" y="158.085"/>
    </contour>
    <contour>
      <point x="583.078" y="153.009" type="curve"/>
      <point x="584.502" y="150.613"/>
      <point x="585.87" y="148.165"/>
      <point x="587.184" y="145.666" type="curve" smooth="yes"/>
      <point x="587.095" y="143.186"/>
      <point x="587.008" y="140.557"/>
      <point x="586.922" y="137.777" type="curve" smooth="yes"/>
      <point x="586.531" y="125.156"/>
      <point x="586.008" y="103.042"/>
      <point x="585.354" y="71.4355" type="curve"/>
      <point x="585.339" y="72.1595"/>
      <point x="585.242" y="73.2461"/>
      <point x="585.061" y="74.6953" type="curve" smooth="yes"/>
      <point x="584.88" y="76.1445"/>
      <point x="584.782" y="77.2318"/>
      <point x="584.768" y="77.957" type="curve" smooth="yes"/>
      <point x="584.12" y="111.072"/>
      <point x="583.557" y="136.09"/>
    </contour>
    <contour>
      <point x="602.625" y="101.854" type="curve"/>
      <point x="603.531" y="97.0348"/>
      <point x="604.201" y="92.1608"/>
      <point x="604.635" y="87.2324" type="curve" smooth="yes"/>
      <point x="604.451" y="81.7858"/>
      <point x="604.255" y="75.7764"/>
      <point x="604.047" y="69.2041" type="curve"/>
      <point x="604.02" y="70.3076"/>
      <point x="603.878" y="71.9701"/>
      <point x="603.621" y="74.1914" type="curve" smooth="yes"/>
      <point x="603.363" y="76.4134"/>
      <point x="603.221" y="78.082"/>
      <point x="603.193" y="79.1973" type="curve" smooth="yes"/>
      <point x="602.996" y="87.3561"/>
      <point x="602.807" y="94.9085"/>
    </contour>
  </outline>
</glyph>
